<?xml version="1.0" encoding="UTF-8" standalone="no"?>
<svg
   xmlns:dc="http://purl.org/dc/elements/1.1/"
   xmlns:cc="http://creativecommons.org/ns#"
   xmlns:rdf="http://www.w3.org/1999/02/22-rdf-syntax-ns#"
   xmlns:svg="http://www.w3.org/2000/svg"
   xmlns="http://www.w3.org/2000/svg"
   xmlns:sodipodi="http://sodipodi.sourceforge.net/DTD/sodipodi-0.dtd"
   xmlns:inkscape="http://www.inkscape.org/namespaces/inkscape"
   width="1052mm"
   height="118mm"
   viewBox="0 0 1052 118"
   version="1.1"
   id="svg8"
   inkscape:version="1.0.1 (3bc2e813f5, 2020-09-07)"
   sodipodi:docname="black_dx_01.svg">
  <defs
     id="defs2">
    <pattern
       id="EMFhbasepattern"
       patternUnits="userSpaceOnUse"
       width="6"
       height="6"
       x="0"
       y="0" />
  </defs>
  <sodipodi:namedview
     id="base"
     pagecolor="#ffffff"
     bordercolor="#666666"
     borderopacity="1.0"
     inkscape:pageopacity="0.0"
     inkscape:pageshadow="2"
     inkscape:zoom="0.175"
     inkscape:cx="1637.8095"
     inkscape:cy="-314.01789"
     inkscape:document-units="mm"
     inkscape:current-layer="layer1"
     inkscape:document-rotation="0"
     showgrid="false"
     inkscape:window-width="1920"
     inkscape:window-height="1027"
     inkscape:window-x="-8"
     inkscape:window-y="-8"
     inkscape:window-maximized="1"
     inkscape:snap-text-baseline="true" />
  <metadata
     id="metadata5">
    <rdf:RDF>
      <cc:Work
         rdf:about="">
        <dc:format>image/svg+xml</dc:format>
        <dc:type
           rdf:resource="http://purl.org/dc/dcmitype/StillImage" />
        <dc:title />
      </cc:Work>
    </rdf:RDF>
  </metadata>
  <g
     inkscape:label="Warstwa 1"
     inkscape:groupmode="layer"
     id="layer1">
    <text
       xml:space="preserve"
       style="font-style:normal;font-variant:normal;font-weight:400;font-size:16.0617px;line-height:125%;font-family:Calibri;text-align:start;letter-spacing:0px;word-spacing:0px;text-anchor:start;fill:#000000;fill-opacity:1;stroke:none;stroke-width:1.49411"
       x="0.26059309"
       y="88.437759"
       id="text27-6"><tspan
         sodipodi:role="line"
         x="0.26059309"
         y="88.437759"
         id="tspan25-2"
         style="stroke-width:1.49411"><tspan
           dx="0"
           dy="0"
           style="font-style:normal;font-variant:normal;font-weight:400;font-size:16.0617px;font-family:Calibri;fill:#000000;stroke-width:1.49411"
           id="tspan23-5"> </tspan></tspan></text>
    <g
       aria-label="STASIA.IO/DX"
       id="text21-8-4-5"
       style="font-style:normal;font-variant:normal;font-weight:700;font-size:159.402px;line-height:125%;font-family:'Gill Sans MT';text-align:start;letter-spacing:0px;word-spacing:0px;text-anchor:start;fill:#5f9ea0;fill-opacity:1;stroke:none;stroke-width:1.49411">
      <path
         d="m 37.561103,116.55734 q -17.534441,0 -27.41749,-9.72364 Q 0.260565,96.950651 0.260565,79.416211 H 21.93951 q 0,8.289008 4.144504,13.071128 4.303908,4.622716 11.795897,4.622716 h 17.693844 q 7.013777,0 11.317685,-2.869272 4.463312,-3.028676 4.463312,-7.9702 v -5.419736 q 0,-7.810797 -11.477088,-9.723645 L 30.547326,66.185678 Q 16.200966,63.794618 8.7089774,57.09965 1.3763931,50.245277 1.3763931,39.724613 v -8.926625 q 0,-8.448412 4.4633121,-14.824572 Q 10.462421,9.4378515 18.75143,5.9309633 27.199842,2.4240752 38.198719,2.4240752 h 18.012652 q 10.361261,0 18.331461,4.3039082 7.970201,4.3039086 12.274109,12.1147046 4.463312,7.651392 4.463312,17.853249 H 69.601308 q 0,-6.694969 -3.666292,-10.680069 -3.666292,-4.144504 -9.723645,-4.144504 H 38.198719 q -6.694969,0 -10.839473,2.869272 -3.9851,2.869272 -3.9851,7.651393 v 4.303908 q 0,7.9702 10.998876,9.883048 l 29.170934,5.100928 q 14.505764,2.550464 22.157157,9.086029 7.651392,6.37616 7.651392,16.578016 v 10.520665 q 0,8.448412 -4.78212,14.983977 -4.622716,6.53556 -13.071129,10.20186 -8.448412,3.50688 -19.606693,3.50688 z"
         style="font-style:normal;font-variant:normal;font-weight:bold;font-stretch:normal;font-size:159.404px;font-family:'Bai Jamjuree';-inkscape-font-specification:'Bai Jamjuree, Bold';font-variant-ligatures:normal;font-variant-caps:normal;font-variant-numeric:normal;font-variant-east-asian:normal;fill:#5f9ea0;fill-opacity:1;stroke-width:1.49411"
         id="path838" />
      <path
         d="M 133.52192,22.827788 H 98.134226 V 3.6993073 H 190.90736 V 22.827788 h -35.38769 v 92.454322 h -21.99775 z"
         style="font-style:normal;font-variant:normal;font-weight:bold;font-stretch:normal;font-size:159.404px;font-family:'Bai Jamjuree';-inkscape-font-specification:'Bai Jamjuree, Bold';font-variant-ligatures:normal;font-variant-caps:normal;font-variant-numeric:normal;font-variant-east-asian:normal;fill:#5f9ea0;fill-opacity:1;stroke-width:1.49411"
         id="path840" />
      <path
         d="m 252.11827,89.299259 h -41.76385 l -9.88305,25.982851 H 177.51719 L 221.19389,3.6993073 h 9.88305 q 10.36126,0 14.02755,9.5642407 l 39.6916,102.018562 H 261.84191 Z M 216.25236,70.808394 h 29.96796 l -14.82458,-40.16981 h -0.1594 z"
         style="font-style:normal;font-variant:normal;font-weight:bold;font-stretch:normal;font-size:159.404px;font-family:'Bai Jamjuree';-inkscape-font-specification:'Bai Jamjuree, Bold';font-variant-ligatures:normal;font-variant-caps:normal;font-variant-numeric:normal;font-variant-east-asian:normal;fill:#5f9ea0;fill-opacity:1;stroke-width:1.49411"
         id="path842" />
      <path
         d="m 325.92203,116.55734 q -17.53444,0 -27.41749,-9.72364 -9.88304,-9.883049 -9.88304,-27.417489 h 21.67894 q 0,8.289008 4.14451,13.071128 4.3039,4.622716 11.79589,4.622716 h 17.69385 q 7.01377,0 11.31768,-2.869272 4.46331,-3.028676 4.46331,-7.9702 v -5.419736 q 0,-7.810797 -11.47708,-9.723645 l -29.33034,-4.941524 q -14.34636,-2.39106 -21.83835,-9.086028 -7.33259,-6.854373 -7.33259,-17.375037 v -8.926625 q 0,-8.448412 4.46332,-14.824572 4.62271,-6.5355645 12.91172,-10.0424527 8.44841,-3.5068881 19.44729,-3.5068881 h 18.01265 q 10.36126,0 18.33146,4.3039082 7.9702,4.3039086 12.27411,12.1147046 4.46331,7.651392 4.46331,17.853249 h -21.67894 q 0,-6.694969 -3.66629,-10.680069 -3.66629,-4.144504 -9.72365,-4.144504 h -18.01265 q -6.69497,0 -10.83947,2.869272 -3.9851,2.869272 -3.9851,7.651393 v 4.303908 q 0,7.9702 10.99887,9.883048 l 29.17094,5.100928 q 14.50576,2.550464 22.15715,9.086029 7.6514,6.37616 7.6514,16.578016 v 10.520665 q 0,8.448412 -4.78212,14.983977 -4.62272,6.53556 -13.07113,10.20186 -8.44841,3.50688 -19.6067,3.50688 z"
         style="font-style:normal;font-variant:normal;font-weight:bold;font-stretch:normal;font-size:159.404px;font-family:'Bai Jamjuree';-inkscape-font-specification:'Bai Jamjuree, Bold';font-variant-ligatures:normal;font-variant-caps:normal;font-variant-numeric:normal;font-variant-east-asian:normal;fill:#5f9ea0;fill-opacity:1;stroke-width:1.49411"
         id="path844" />
      <path
         d="m 398.60999,3.6993073 h 21.99775 V 115.28211 h -21.99775 z"
         style="font-style:normal;font-variant:normal;font-weight:bold;font-stretch:normal;font-size:159.404px;font-family:'Bai Jamjuree';-inkscape-font-specification:'Bai Jamjuree, Bold';font-variant-ligatures:normal;font-variant-caps:normal;font-variant-numeric:normal;font-variant-east-asian:normal;fill:#5f9ea0;fill-opacity:1;stroke-width:1.49411"
         id="path846" />
      <path
         d="m 507.32347,89.299259 h -41.76385 l -9.88305,25.982851 H 432.72239 L 476.39909,3.6993073 h 9.88305 q 10.36126,0 14.02755,9.5642407 l 39.6916,102.018562 H 517.04711 Z M 471.45756,70.808394 h 29.96796 l -14.82458,-40.16981 h -0.1594 z"
         style="font-style:normal;font-variant:normal;font-weight:bold;font-stretch:normal;font-size:159.404px;font-family:'Bai Jamjuree';-inkscape-font-specification:'Bai Jamjuree, Bold';font-variant-ligatures:normal;font-variant-caps:normal;font-variant-numeric:normal;font-variant-east-asian:normal;fill:#5f9ea0;fill-opacity:1;stroke-width:1.49411"
         id="path848" />
      <path
         d="m 559.76736,116.87615 q -5.89795,0 -9.56424,-3.50689 -3.50689,-3.66629 -3.50689,-9.56424 0,-5.897945 3.50689,-9.404833 3.66629,-3.666292 9.56424,-3.666292 5.89795,0 9.40484,3.666292 3.66629,3.506888 3.66629,9.404833 0,5.89795 -3.66629,9.56424 -3.50689,3.50689 -9.40484,3.50689 z"
         style="font-style:normal;font-variant:normal;font-weight:bold;font-stretch:normal;font-size:159.404px;font-family:'Bai Jamjuree';-inkscape-font-specification:'Bai Jamjuree, Bold';font-variant-ligatures:normal;font-variant-caps:normal;font-variant-numeric:normal;font-variant-east-asian:normal;fill:#5f9ea0;fill-opacity:1;stroke-width:1.49411"
         id="path850" />
      <path
         d="m 609.23535,3.6993073 h 21.99776 V 115.28211 h -21.99776 z"
         style="font-style:normal;font-variant:normal;font-weight:bold;font-stretch:normal;font-size:159.404px;font-family:'Bai Jamjuree';-inkscape-font-specification:'Bai Jamjuree, Bold';font-variant-ligatures:normal;font-variant-caps:normal;font-variant-numeric:normal;font-variant-east-asian:normal;fill:#5f9ea0;fill-opacity:1;stroke-width:1.49411"
         id="path852" />
      <path
         d="m 691.96595,116.55734 q -12.59292,0 -22.31656,-5.26033 -9.56424,-5.41973 -14.98398,-14.983975 -5.26033,-9.723644 -5.26033,-22.475965 V 45.144349 q 0,-12.75232 5.26033,-22.316561 5.41974,-9.723644 14.98398,-14.9839766 9.72364,-5.4197362 22.31656,-5.4197362 h 16.89682 q 12.59292,0 22.15716,5.4197362 9.72364,5.2603326 14.98398,14.9839766 5.41973,9.564241 5.41973,22.316561 V 73.83707 q 0,12.752321 -5.41973,22.475965 -5.26034,9.564245 -14.98398,14.983975 -9.56424,5.26033 -22.15716,5.26033 z m 16.89682,-19.447285 q 9.24544,0 14.82458,-6.694968 5.73854,-6.694968 5.73854,-17.534441 V 46.100773 q 0,-10.839472 -5.73854,-17.534441 -5.57914,-6.694968 -14.82458,-6.694968 h -16.89682 q -9.24543,0 -14.98398,6.694968 -5.57914,6.694969 -5.57914,17.534441 v 26.779873 q 0,10.839473 5.57914,17.534441 5.73855,6.694968 14.98398,6.694968 z"
         style="font-style:normal;font-variant:normal;font-weight:bold;font-stretch:normal;font-size:159.404px;font-family:'Bai Jamjuree';-inkscape-font-specification:'Bai Jamjuree, Bold';font-variant-ligatures:normal;font-variant-caps:normal;font-variant-numeric:normal;font-variant-east-asian:normal;fill:#5f9ea0;fill-opacity:1;stroke-width:1.49411"
         id="path854" />
      <path
         d="m 816.77896,0.1924191 h 21.99775 L 778.84081,119.26721 h -21.99776 z"
         style="font-style:normal;font-variant:normal;font-weight:bold;font-stretch:normal;font-size:159.404px;font-family:'Bai Jamjuree';-inkscape-font-specification:'Bai Jamjuree, Bold';font-variant-ligatures:normal;font-variant-caps:normal;font-variant-numeric:normal;font-variant-east-asian:normal;fill:#5f9ea0;fill-opacity:1;stroke-width:1.49411"
         id="path856" />
      <path
         d="m 866.99114,115.28211 q -6.85437,0 -11.15828,-4.1445 -4.30391,-4.14451 -4.30391,-10.83947 V 3.6993073 h 53.24094 q 12.75232,0 22.31656,4.7821202 9.72364,4.7821205 14.98398,13.5493405 5.41973,8.76722 5.41973,20.244309 v 31.243185 q 0,20.563117 -10.68007,31.243188 -10.68007,10.52066 -31.40259,10.52066 z m 37.77875,-19.447287 q 10.20185,0 15.46219,-5.897948 5.26033,-5.897948 5.26033,-17.375037 V 43.231501 q 0,-9.086028 -5.89795,-14.505765 -5.89795,-5.57914 -15.46219,-5.57914 H 873.5267 v 72.688227 z"
         style="fill:#80b1b3;fill-opacity:1;stroke-width:1.49411"
         id="path858" />
      <path
         d="M 987.34099,58.374882 950.04046,3.6993073 h 25.02643 L 999.93391,40.362229 1024.8009,3.6993073 h 24.8671 l -37.3006,54.6755747 38.8946,56.907228 h -25.0264 L 999.93391,76.387534 973.47285,115.28211 h -25.02643 z"
         style="fill:#80b1b3;fill-opacity:1;stroke-width:1.49411"
         id="path860" />
    </g>
  </g>
</svg>
