<?xml version="1.0" encoding="UTF-8" standalone="no"?>
<svg
   xmlns:dc="http://purl.org/dc/elements/1.1/"
   xmlns:cc="http://creativecommons.org/ns#"
   xmlns:rdf="http://www.w3.org/1999/02/22-rdf-syntax-ns#"
   xmlns:svg="http://www.w3.org/2000/svg"
   xmlns="http://www.w3.org/2000/svg"
   xmlns:sodipodi="http://sodipodi.sourceforge.net/DTD/sodipodi-0.dtd"
   xmlns:inkscape="http://www.inkscape.org/namespaces/inkscape"
   width="753mm"
   height="118mm"
   viewBox="0 0 753 118"
   version="1.1"
   id="svg8"
   inkscape:version="1.0.1 (3bc2e813f5, 2020-09-07)"
   sodipodi:docname="black_main_01.svg">
  <defs
     id="defs2">
    <pattern
       id="EMFhbasepattern"
       patternUnits="userSpaceOnUse"
       width="6"
       height="6"
       x="0"
       y="0" />
  </defs>
  <sodipodi:namedview
     id="base"
     pagecolor="#ffffff"
     bordercolor="#666666"
     borderopacity="1.0"
     inkscape:pageopacity="0.0"
     inkscape:pageshadow="2"
     inkscape:zoom="0.35"
     inkscape:cx="1646.9615"
     inkscape:cy="434.30704"
     inkscape:document-units="mm"
     inkscape:current-layer="layer1"
     inkscape:document-rotation="0"
     showgrid="false"
     inkscape:window-width="1920"
     inkscape:window-height="1027"
     inkscape:window-x="-8"
     inkscape:window-y="-8"
     inkscape:window-maximized="1"
     inkscape:snap-text-baseline="true" />
  <metadata
     id="metadata5">
    <rdf:RDF>
      <cc:Work
         rdf:about="">
        <dc:format>image/svg+xml</dc:format>
        <dc:type
           rdf:resource="http://purl.org/dc/dcmitype/StillImage" />
        <dc:title />
      </cc:Work>
    </rdf:RDF>
  </metadata>
  <g
     inkscape:label="Warstwa 1"
     inkscape:groupmode="layer"
     id="layer1">
    <g
       aria-label="STASIA.IO"
       id="text21-8-0"
       style="font-style:normal;font-variant:normal;font-weight:700;font-size:159.402px;line-height:125%;font-family:'Gill Sans MT';text-align:start;letter-spacing:0px;word-spacing:0px;text-anchor:start;fill:#cccccc;fill-opacity:1;stroke:none;stroke-width:1.49411">
      <path
         d="m 38.230905,114.94934 q -17.53444,0 -27.417489,-9.72364 Q 0.93036767,95.34265 0.93036767,77.808209 H 22.609313 q 0,8.289008 4.144504,13.071128 4.303908,4.622717 11.795896,4.622717 h 17.693845 q 7.013776,0 11.317685,-2.869273 4.463312,-3.028676 4.463312,-7.9702 v -5.419736 q 0,-7.810796 -11.477089,-9.723645 L 31.217129,64.577676 Q 16.870768,62.186616 9.37878,55.491648 2.0461957,48.637276 2.0461957,38.116611 v -8.926624 q 0,-8.448413 4.4633122,-14.824573 Q 11.132224,7.8298498 19.421232,4.3229616 27.869645,0.81607349 38.868521,0.81607349 h 18.012653 q 10.361261,0 18.331461,4.30390821 7.9702,4.3039082 12.274108,12.1147043 4.463313,7.651393 4.463313,17.853249 H 70.271111 q 0,-6.694968 -3.666292,-10.680068 -3.666293,-4.144505 -9.723645,-4.144505 H 38.868521 q -6.694968,0 -10.839472,2.869272 -3.9851,2.869273 -3.9851,7.651393 v 4.303908 q 0,7.9702 10.998876,9.883048 l 29.170933,5.100929 q 14.505765,2.550464 22.157157,9.086028 7.651393,6.37616 7.651393,16.578017 v 10.520664 q 0,8.448413 -4.78212,14.983979 -4.622717,6.53556 -13.071129,10.20185 -8.448412,3.50689 -19.606693,3.50689 z"
         style="font-style:normal;font-variant:normal;font-weight:bold;font-stretch:normal;font-size:159.404px;font-family:'Bai Jamjuree';-inkscape-font-specification:'Bai Jamjuree, Bold';font-variant-ligatures:normal;font-variant-caps:normal;font-variant-numeric:normal;font-variant-east-asian:normal;fill:#e6e6e6;fill-opacity:1;stroke:none;stroke-width:1.49411"
         id="path835" />
      <path
         d="M 134.19172,21.219786 H 98.804029 V 2.0913055 H 191.57716 V 21.219786 h -35.38769 v 92.454324 h -21.99775 z"
         style="font-style:normal;font-variant:normal;font-weight:bold;font-stretch:normal;font-size:159.404px;font-family:'Bai Jamjuree';-inkscape-font-specification:'Bai Jamjuree, Bold';font-variant-ligatures:normal;font-variant-caps:normal;font-variant-numeric:normal;font-variant-east-asian:normal;fill:#e6e6e6;fill-opacity:1;stroke:none;stroke-width:1.49411"
         id="path837" />
      <path
         d="m 252.78807,87.691257 h -41.76385 l -9.88305,25.982853 H 178.18699 L 221.86369,2.0913055 h 9.88305 q 10.36126,0 14.02755,9.5642405 l 39.6916,102.018564 h -22.95418 z m -35.8659,-18.490865 h 29.96795 L 232.06555,29.030583 h -0.15941 z"
         style="font-style:normal;font-variant:normal;font-weight:bold;font-stretch:normal;font-size:159.404px;font-family:'Bai Jamjuree';-inkscape-font-specification:'Bai Jamjuree, Bold';font-variant-ligatures:normal;font-variant-caps:normal;font-variant-numeric:normal;font-variant-east-asian:normal;fill:#e6e6e6;fill-opacity:1;stroke:none;stroke-width:1.49411"
         id="path839" />
      <path
         d="m 326.59184,114.94934 q -17.53444,0 -27.41749,-9.72364 -9.88305,-9.88305 -9.88305,-27.417491 h 21.67894 q 0,8.289008 4.14451,13.071128 4.30391,4.622717 11.79589,4.622717 h 17.69385 q 7.01378,0 11.31768,-2.869273 4.46332,-3.028676 4.46332,-7.9702 v -5.419736 q 0,-7.810796 -11.47709,-9.723645 l -29.33034,-4.941524 q -14.34636,-2.39106 -21.83835,-9.086028 -7.33258,-6.854372 -7.33258,-17.375037 v -8.926624 q 0,-8.448413 4.46331,-14.824573 4.62272,-6.5355642 12.91172,-10.0424524 8.44842,-3.50688811 19.44729,-3.50688811 h 18.01266 q 10.36126,0 18.33146,4.30390821 7.9702,4.3039082 12.2741,12.1147043 4.46332,7.651393 4.46332,17.853249 h -21.67895 q 0,-6.694968 -3.66629,-10.680068 -3.66629,-4.144505 -9.72364,-4.144505 h -18.01266 q -6.69497,0 -10.83947,2.869272 -3.9851,2.869273 -3.9851,7.651393 v 4.303908 q 0,7.9702 10.99888,9.883048 l 29.17093,5.100929 q 14.50576,2.550464 22.15716,9.086028 7.65139,6.37616 7.65139,16.578017 v 10.520664 q 0,8.448413 -4.78212,14.983979 -4.62272,6.53556 -13.07113,10.20185 -8.44841,3.50689 -19.60669,3.50689 z"
         style="font-style:normal;font-variant:normal;font-weight:bold;font-stretch:normal;font-size:159.404px;font-family:'Bai Jamjuree';-inkscape-font-specification:'Bai Jamjuree, Bold';font-variant-ligatures:normal;font-variant-caps:normal;font-variant-numeric:normal;font-variant-east-asian:normal;fill:#e6e6e6;fill-opacity:1;stroke:none;stroke-width:1.49411"
         id="path841" />
      <path
         d="m 399.27979,2.0913055 h 21.99775 V 113.67411 h -21.99775 z"
         style="font-style:normal;font-variant:normal;font-weight:bold;font-stretch:normal;font-size:159.404px;font-family:'Bai Jamjuree';-inkscape-font-specification:'Bai Jamjuree, Bold';font-variant-ligatures:normal;font-variant-caps:normal;font-variant-numeric:normal;font-variant-east-asian:normal;fill:#e6e6e6;fill-opacity:1;stroke:none;stroke-width:1.49411"
         id="path843" />
      <path
         d="m 507.99327,87.691257 h -41.76385 l -9.88305,25.982853 H 433.39219 L 477.06889,2.0913055 h 9.88305 q 10.36126,0 14.02755,9.5642405 l 39.6916,102.018564 h -22.95418 z m -35.8659,-18.490865 h 29.96795 L 487.27075,29.030583 h -0.15941 z"
         style="font-style:normal;font-variant:normal;font-weight:bold;font-stretch:normal;font-size:159.404px;font-family:'Bai Jamjuree';-inkscape-font-specification:'Bai Jamjuree, Bold';font-variant-ligatures:normal;font-variant-caps:normal;font-variant-numeric:normal;font-variant-east-asian:normal;fill:#e6e6e6;fill-opacity:1;stroke:none;stroke-width:1.49411"
         id="path845" />
      <path
         d="m 560.43717,115.26815 q -5.89795,0 -9.56425,-3.50689 -3.50688,-3.66629 -3.50688,-9.56424 0,-5.897946 3.50688,-9.404834 3.6663,-3.666293 9.56425,-3.666293 5.89794,0 9.40483,3.666293 3.66629,3.506888 3.66629,9.404834 0,5.89795 -3.66629,9.56424 -3.50689,3.50689 -9.40483,3.50689 z"
         style="font-style:normal;font-variant:normal;font-weight:bold;font-stretch:normal;font-size:159.404px;font-family:'Bai Jamjuree';-inkscape-font-specification:'Bai Jamjuree, Bold';font-variant-ligatures:normal;font-variant-caps:normal;font-variant-numeric:normal;font-variant-east-asian:normal;fill:#e6e6e6;fill-opacity:1;stroke:none;stroke-width:1.49411"
         id="path847" />
      <path
         d="m 609.90516,2.0913055 h 21.99775 V 113.67411 h -21.99775 z"
         style="font-style:normal;font-variant:normal;font-weight:bold;font-stretch:normal;font-size:159.404px;font-family:'Bai Jamjuree';-inkscape-font-specification:'Bai Jamjuree, Bold';font-variant-ligatures:normal;font-variant-caps:normal;font-variant-numeric:normal;font-variant-east-asian:normal;fill:#cccccc;fill-opacity:1;stroke-width:1.49411"
         id="path849" />
      <path
         d="m 692.63575,114.94934 q -12.59292,0 -22.31656,-5.26033 -9.56424,-5.41974 -14.98398,-14.983976 -5.26033,-9.723645 -5.26033,-22.475965 V 43.536347 q 0,-12.75232 5.26033,-22.316561 5.41974,-9.723644 14.98398,-14.9839763 9.72364,-5.41973621 22.31656,-5.41973621 h 16.89683 q 12.59291,0 22.15715,5.41973621 9.72365,5.2603323 14.98398,14.9839763 5.41974,9.564241 5.41974,22.316561 v 28.692722 q 0,12.75232 -5.41974,22.475965 -5.26033,9.564236 -14.98398,14.983976 -9.56424,5.26033 -22.15715,5.26033 z m 16.89683,-19.447286 q 9.24543,0 14.82457,-6.694969 5.73854,-6.694968 5.73854,-17.53444 V 44.492771 q 0,-10.839472 -5.73854,-17.53444 -5.57914,-6.694969 -14.82457,-6.694969 h -16.89683 q -9.24543,0 -14.98398,6.694969 -5.57914,6.694968 -5.57914,17.53444 v 26.779874 q 0,10.839472 5.57914,17.53444 5.73855,6.694969 14.98398,6.694969 z"
         style="font-style:normal;font-variant:normal;font-weight:bold;font-stretch:normal;font-size:159.404px;font-family:'Bai Jamjuree';-inkscape-font-specification:'Bai Jamjuree, Bold';font-variant-ligatures:normal;font-variant-caps:normal;font-variant-numeric:normal;font-variant-east-asian:normal;fill:#cccccc;fill-opacity:1;stroke-width:1.49411"
         id="path851" />
    </g>
  </g>
</svg>
