<?xml version="1.0" encoding="UTF-8" standalone="no"?>
<svg
   xmlns:dc="http://purl.org/dc/elements/1.1/"
   xmlns:cc="http://creativecommons.org/ns#"
   xmlns:rdf="http://www.w3.org/1999/02/22-rdf-syntax-ns#"
   xmlns:svg="http://www.w3.org/2000/svg"
   xmlns="http://www.w3.org/2000/svg"
   xmlns:sodipodi="http://sodipodi.sourceforge.net/DTD/sodipodi-0.dtd"
   xmlns:inkscape="http://www.inkscape.org/namespaces/inkscape"
   width="753mm"
   height="138mm"
   viewBox="0 0 753 138"
   version="1.1"
   id="svg8"
   inkscape:version="1.0.1 (3bc2e813f5, 2020-09-07)"
   sodipodi:docname="black_main_00.svg">
  <defs
     id="defs2">
    <pattern
       id="EMFhbasepattern"
       patternUnits="userSpaceOnUse"
       width="6"
       height="6"
       x="0"
       y="0" />
  </defs>
  <sodipodi:namedview
     id="base"
     pagecolor="#ffffff"
     bordercolor="#666666"
     borderopacity="1.0"
     inkscape:pageopacity="0.0"
     inkscape:pageshadow="2"
     inkscape:zoom="0.35"
     inkscape:cx="1646.9615"
     inkscape:cy="434.30704"
     inkscape:document-units="mm"
     inkscape:current-layer="layer1"
     inkscape:document-rotation="0"
     showgrid="false"
     inkscape:window-width="1920"
     inkscape:window-height="1027"
     inkscape:window-x="-8"
     inkscape:window-y="-8"
     inkscape:window-maximized="1"
     inkscape:snap-text-baseline="true" />
  <metadata
     id="metadata5">
    <rdf:RDF>
      <cc:Work
         rdf:about="">
        <dc:format>image/svg+xml</dc:format>
        <dc:type
           rdf:resource="http://purl.org/dc/dcmitype/StillImage" />
        <dc:title />
      </cc:Work>
    </rdf:RDF>
  </metadata>
  <g
     inkscape:label="Warstwa 1"
     inkscape:groupmode="layer"
     id="layer1">
    <g
       aria-label="STASIA.IO"
       id="text21-8-0"
       style="font-style:normal;font-variant:normal;font-weight:700;font-size:159.402px;line-height:125%;font-family:'Gill Sans MT';text-align:start;letter-spacing:0px;word-spacing:0px;text-anchor:start;fill:#cccccc;fill-opacity:1;stroke:none;stroke-width:1.49411">
      <path
         d="m 38.230905,114.94934 q -17.53444,0 -27.417489,-9.72364 Q 0.93036767,95.34265 0.93036767,77.808209 H 22.609313 q 0,8.289008 4.144504,13.071128 4.303908,4.622717 11.795896,4.622717 h 17.693845 q 7.013776,0 11.317685,-2.869273 4.463312,-3.028676 4.463312,-7.9702 v -5.419736 q 0,-7.810796 -11.477089,-9.723645 L 31.217129,64.577676 Q 16.870768,62.186616 9.37878,55.491648 2.0461957,48.637276 2.0461957,38.116611 v -8.926624 q 0,-8.448413 4.4633122,-14.824573 Q 11.132224,7.8298498 19.421232,4.3229616 27.869645,0.81607349 38.868521,0.81607349 h 18.012653 q 10.361261,0 18.331461,4.30390821 7.9702,4.3039082 12.274108,12.1147043 4.463313,7.651393 4.463313,17.853249 H 70.271111 q 0,-6.694968 -3.666292,-10.680068 -3.666293,-4.144505 -9.723645,-4.144505 H 38.868521 q -6.694968,0 -10.839472,2.869272 -3.9851,2.869273 -3.9851,7.651393 v 4.303908 q 0,7.9702 10.998876,9.883048 l 29.170933,5.100929 q 14.505765,2.550464 22.157157,9.086028 7.651393,6.37616 7.651393,16.578017 v 10.520664 q 0,8.448413 -4.78212,14.983979 -4.622717,6.53556 -13.071129,10.20185 -8.448412,3.50689 -19.606693,3.50689 z"
         style="font-style:normal;font-variant:normal;font-weight:bold;font-stretch:normal;font-size:159.404px;font-family:'Bai Jamjuree';-inkscape-font-specification:'Bai Jamjuree, Bold';font-variant-ligatures:normal;font-variant-caps:normal;font-variant-numeric:normal;font-variant-east-asian:normal;fill:#ffffff;fill-opacity:1;stroke:none;stroke-width:1.49411"
         id="path855" />
      <path
         d="M 134.19172,21.219786 H 98.804029 V 2.0913055 H 191.57716 V 21.219786 h -35.38769 v 92.454324 h -21.99775 z"
         style="font-style:normal;font-variant:normal;font-weight:bold;font-stretch:normal;font-size:159.404px;font-family:'Bai Jamjuree';-inkscape-font-specification:'Bai Jamjuree, Bold';font-variant-ligatures:normal;font-variant-caps:normal;font-variant-numeric:normal;font-variant-east-asian:normal;fill:#ffffff;fill-opacity:1;stroke:none;stroke-width:1.49411"
         id="path857" />
      <path
         d="m 252.78807,87.691257 h -41.76385 l -9.88305,25.982853 H 178.18699 L 221.86369,2.0913055 h 9.88305 q 10.36126,0 14.02755,9.5642405 l 39.6916,102.018564 h -22.95418 z m -35.8659,-18.490865 h 29.96795 L 232.06555,29.030583 h -0.15941 z"
         style="font-style:normal;font-variant:normal;font-weight:bold;font-stretch:normal;font-size:159.404px;font-family:'Bai Jamjuree';-inkscape-font-specification:'Bai Jamjuree, Bold';font-variant-ligatures:normal;font-variant-caps:normal;font-variant-numeric:normal;font-variant-east-asian:normal;fill:#ffffff;fill-opacity:1;stroke:none;stroke-width:1.49411"
         id="path859" />
      <path
         d="m 326.59184,114.94934 q -17.53444,0 -27.41749,-9.72364 -9.88305,-9.88305 -9.88305,-27.417491 h 21.67894 q 0,8.289008 4.14451,13.071128 4.30391,4.622717 11.79589,4.622717 h 17.69385 q 7.01378,0 11.31768,-2.869273 4.46332,-3.028676 4.46332,-7.9702 v -5.419736 q 0,-7.810796 -11.47709,-9.723645 l -29.33034,-4.941524 q -14.34636,-2.39106 -21.83835,-9.086028 -7.33258,-6.854372 -7.33258,-17.375037 v -8.926624 q 0,-8.448413 4.46331,-14.824573 4.62272,-6.5355642 12.91172,-10.0424524 8.44842,-3.50688811 19.44729,-3.50688811 h 18.01266 q 10.36126,0 18.33146,4.30390821 7.9702,4.3039082 12.2741,12.1147043 4.46332,7.651393 4.46332,17.853249 h -21.67895 q 0,-6.694968 -3.66629,-10.680068 -3.66629,-4.144505 -9.72364,-4.144505 h -18.01266 q -6.69497,0 -10.83947,2.869272 -3.9851,2.869273 -3.9851,7.651393 v 4.303908 q 0,7.9702 10.99888,9.883048 l 29.17093,5.100929 q 14.50576,2.550464 22.15716,9.086028 7.65139,6.37616 7.65139,16.578017 v 10.520664 q 0,8.448413 -4.78212,14.983979 -4.62272,6.53556 -13.07113,10.20185 -8.44841,3.50689 -19.60669,3.50689 z"
         style="font-style:normal;font-variant:normal;font-weight:bold;font-stretch:normal;font-size:159.404px;font-family:'Bai Jamjuree';-inkscape-font-specification:'Bai Jamjuree, Bold';font-variant-ligatures:normal;font-variant-caps:normal;font-variant-numeric:normal;font-variant-east-asian:normal;fill:#ffffff;fill-opacity:1;stroke:none;stroke-width:1.49411"
         id="path861" />
      <path
         d="m 399.27979,2.0913055 h 21.99775 V 113.67411 h -21.99775 z"
         style="font-style:normal;font-variant:normal;font-weight:bold;font-stretch:normal;font-size:159.404px;font-family:'Bai Jamjuree';-inkscape-font-specification:'Bai Jamjuree, Bold';font-variant-ligatures:normal;font-variant-caps:normal;font-variant-numeric:normal;font-variant-east-asian:normal;fill:#ffffff;fill-opacity:1;stroke:none;stroke-width:1.49411"
         id="path863" />
      <path
         d="m 507.99327,87.691257 h -41.76385 l -9.88305,25.982853 H 433.39219 L 477.06889,2.0913055 h 9.88305 q 10.36126,0 14.02755,9.5642405 l 39.6916,102.018564 h -22.95418 z m -35.8659,-18.490865 h 29.96795 L 487.27075,29.030583 h -0.15941 z"
         style="font-style:normal;font-variant:normal;font-weight:bold;font-stretch:normal;font-size:159.404px;font-family:'Bai Jamjuree';-inkscape-font-specification:'Bai Jamjuree, Bold';font-variant-ligatures:normal;font-variant-caps:normal;font-variant-numeric:normal;font-variant-east-asian:normal;fill:#ffffff;fill-opacity:1;stroke:none;stroke-width:1.49411"
         id="path865" />
      <path
         d="m 560.43717,115.26815 q -5.89795,0 -9.56425,-3.50689 -3.50688,-3.66629 -3.50688,-9.56424 0,-5.897946 3.50688,-9.404834 3.6663,-3.666293 9.56425,-3.666293 5.89794,0 9.40483,3.666293 3.66629,3.506888 3.66629,9.404834 0,5.89795 -3.66629,9.56424 -3.50689,3.50689 -9.40483,3.50689 z"
         style="font-style:normal;font-variant:normal;font-weight:bold;font-stretch:normal;font-size:159.404px;font-family:'Bai Jamjuree';-inkscape-font-specification:'Bai Jamjuree, Bold';font-variant-ligatures:normal;font-variant-caps:normal;font-variant-numeric:normal;font-variant-east-asian:normal;fill:#ffffff;fill-opacity:1;stroke:none;stroke-width:1.49411"
         id="path867" />
      <path
         d="m 609.90516,2.0913055 h 21.99775 V 113.67411 h -21.99775 z"
         style="font-style:normal;font-variant:normal;font-weight:bold;font-stretch:normal;font-size:159.404px;font-family:'Bai Jamjuree';-inkscape-font-specification:'Bai Jamjuree, Bold';font-variant-ligatures:normal;font-variant-caps:normal;font-variant-numeric:normal;font-variant-east-asian:normal;fill:#cccccc;fill-opacity:1;stroke-width:1.49411"
         id="path869" />
      <path
         d="m 692.63575,114.94934 q -12.59292,0 -22.31656,-5.26033 -9.56424,-5.41974 -14.98398,-14.983976 -5.26033,-9.723645 -5.26033,-22.475965 V 43.536347 q 0,-12.75232 5.26033,-22.316561 5.41974,-9.723644 14.98398,-14.9839763 9.72364,-5.41973621 22.31656,-5.41973621 h 16.89683 q 12.59291,0 22.15715,5.41973621 9.72365,5.2603323 14.98398,14.9839763 5.41974,9.564241 5.41974,22.316561 v 28.692722 q 0,12.75232 -5.41974,22.475965 -5.26033,9.564236 -14.98398,14.983976 -9.56424,5.26033 -22.15715,5.26033 z m 16.89683,-19.447286 q 9.24543,0 14.82457,-6.694969 5.73854,-6.694968 5.73854,-17.53444 V 44.492771 q 0,-10.839472 -5.73854,-17.53444 -5.57914,-6.694969 -14.82457,-6.694969 h -16.89683 q -9.24543,0 -14.98398,6.694969 -5.57914,6.694968 -5.57914,17.53444 v 26.779874 q 0,10.839472 5.57914,17.53444 5.73855,6.694969 14.98398,6.694969 z"
         style="font-style:normal;font-variant:normal;font-weight:bold;font-stretch:normal;font-size:159.404px;font-family:'Bai Jamjuree';-inkscape-font-specification:'Bai Jamjuree, Bold';font-variant-ligatures:normal;font-variant-caps:normal;font-variant-numeric:normal;font-variant-east-asian:normal;fill:#cccccc;fill-opacity:1;stroke-width:1.49411"
         id="path871" />
    </g>
    <g
       aria-label="STREAM AUTONOMOUS SYSTEM FOR INFORMATION AUTHORITY
"
       id="text39-1"
       style="font-weight:bold;font-size:198.014px;line-height:1.25;font-family:'Bai Jamjuree';-inkscape-font-specification:'Bai Jamjuree, Bold';stroke-width:1.85601">
      <path
         d="m 6.4736357,136.22437 q -2.5736671,0 -4.0584751,-1.48481 -1.48480795,-1.4848 -1.48480795,-4.05847 H 3.7762346 q 0,1.38582 0.7176572,2.20246 0.742404,0.7919 2.0292375,0.7919 h 2.7468948 q 1.2125929,0 1.9549969,-0.51968 0.742404,-0.54443 0.742404,-1.41057 v -1.08886 q 0,-0.66816 -0.519683,-1.1136 -0.519682,-0.44545 -1.4848075,-0.61867 L 5.459017,128.15692 q -2.103478,-0.34646 -3.2418308,-1.38583 -1.113606,-1.03936 -1.113606,-2.6479 v -1.36108 q 0,-1.26208 0.6681636,-2.22721 0.6929104,-0.96512 1.9302504,-1.48481 1.23734,-0.54443 2.8706287,-0.54443 h 2.7963884 q 1.5343017,0 2.6974007,0.64342 1.187847,0.61867 1.831264,1.78177 0.643416,1.1631 0.643416,2.67265 h -2.821135 q 0,-1.13835 -0.668163,-1.83126 -0.643417,-0.71766 -1.6827827,-0.71766 H 6.5726229 q -1.1630995,0 -1.8807567,0.51969 -0.6929104,0.49493 -0.6929104,1.36107 v 0.89089 q 0,0.69291 0.494936,1.1631 0.494936,0.44544 1.4353143,0.59392 l 4.5039179,0.7919 q 2.128224,0.3712 3.266577,1.38582 1.1631,0.98987 1.1631,2.54892 v 1.60854 q 0,1.26209 -0.692911,2.25196 -0.69291,0.96512 -1.954997,1.50955 -1.262087,0.54443 -2.8953753,0.54443 z"
         style="font-style:normal;font-variant:normal;font-weight:600;font-stretch:normal;font-size:24.7468px;font-family:'Bai Jamjuree';-inkscape-font-specification:'Bai Jamjuree, Semi-Bold';font-variant-ligatures:normal;font-variant-caps:normal;font-variant-numeric:normal;font-variant-east-asian:normal;fill:#ffffff;fill-opacity:1;stroke-width:1.85601"
         id="path874" />
      <path
         d="m 21.371188,121.20306 h -5.493789 v -2.49942 h 13.882954 v 2.49942 h -5.493789 v 14.82334 h -2.895376 z"
         style="font-style:normal;font-variant:normal;font-weight:600;font-stretch:normal;font-size:24.7468px;font-family:'Bai Jamjuree';-inkscape-font-specification:'Bai Jamjuree, Semi-Bold';font-variant-ligatures:normal;font-variant-caps:normal;font-variant-numeric:normal;font-variant-east-asian:normal;fill:#ffffff;fill-opacity:1;stroke-width:1.85601"
         id="path876" />
      <path
         d="m 31.888534,118.70364 h 8.933594 q 2.128225,0 3.439805,1.1631 1.311581,1.1631 1.311581,3.0686 v 1.75702 q 0,1.28684 -0.791898,2.27671 -0.767151,0.96512 -2.152971,1.43531 v 0.0495 q 0.791897,0.47019 1.262086,1.21259 0.494936,0.71766 0.841392,1.88076 l 1.38582,4.47917 h -2.994362 l -1.336328,-4.2812 q -0.321708,-1.1136 -0.989872,-1.70753 -0.668163,-0.59392 -1.559048,-0.59392 h -4.454424 v 6.58265 h -2.895375 z m 8.290177,8.24068 q 1.138353,0 1.806517,-0.61867 0.69291,-0.61867 0.69291,-1.60854 v -1.70753 q 0,-0.7919 -0.519683,-1.28683 -0.519682,-0.49494 -1.38582,-0.49494 h -5.988726 v 5.71651 z"
         style="font-style:normal;font-variant:normal;font-weight:600;font-stretch:normal;font-size:24.7468px;font-family:'Bai Jamjuree';-inkscape-font-specification:'Bai Jamjuree, Semi-Bold';font-variant-ligatures:normal;font-variant-caps:normal;font-variant-numeric:normal;font-variant-east-asian:normal;fill:#ffffff;fill-opacity:1;stroke-width:1.85601"
         id="path878" />
      <path
         d="m 50.572335,136.0264 q -0.965125,0 -1.559049,-0.56918 -0.569176,-0.59392 -0.569176,-1.5343 v -15.21928 h 12.695108 v 2.49942 h -9.799732 v 4.7019 h 9.057328 v 2.52417 h -9.057328 v 5.09784 h 9.799732 v 2.49943 z"
         style="font-style:normal;font-variant:normal;font-weight:600;font-stretch:normal;font-size:24.7468px;font-family:'Bai Jamjuree';-inkscape-font-specification:'Bai Jamjuree, Semi-Bold';font-variant-ligatures:normal;font-variant-caps:normal;font-variant-numeric:normal;font-variant-east-asian:normal;fill:#ffffff;fill-opacity:1;stroke-width:1.85601"
         id="path880" />
      <path
         d="m 73.809567,131.7452 h -6.87961 l -1.608542,4.2812 h -2.994363 l 6.731129,-17.32276 h 1.311581 q 1.336327,0 1.85601,1.31158 l 6.1867,16.01118 h -3.01911 z m -6.062966,-2.42518 h 5.246322 l -2.598414,-7.0281 h -0.02475 z"
         style="font-style:normal;font-variant:normal;font-weight:600;font-stretch:normal;font-size:24.7468px;font-family:'Bai Jamjuree';-inkscape-font-specification:'Bai Jamjuree, Semi-Bold';font-variant-ligatures:normal;font-variant-caps:normal;font-variant-numeric:normal;font-variant-east-asian:normal;fill:#ffffff;fill-opacity:1;stroke-width:1.85601"
         id="path882" />
      <path
         d="m 80.342681,118.70364 h 2.623161 l 5.840244,10.69062 5.691764,-10.69062 h 2.623161 v 17.32276 h -2.845882 v -11.95271 l -4.083222,7.57252 q -0.346455,0.59393 -0.668163,0.86614 -0.321709,0.24747 -0.717658,0.24747 h -0.816644 l -4.825626,-8.68613 v 11.95271 h -2.821135 z"
         style="font-style:normal;font-variant:normal;font-weight:600;font-stretch:normal;font-size:24.7468px;font-family:'Bai Jamjuree';-inkscape-font-specification:'Bai Jamjuree, Semi-Bold';font-variant-ligatures:normal;font-variant-caps:normal;font-variant-numeric:normal;font-variant-east-asian:normal;fill:#ffffff;fill-opacity:1;stroke-width:1.85601"
         id="path884" />
      <path
         d="m 117.43809,131.7452 h -6.87961 l -1.60854,4.2812 h -2.99436 l 6.73113,-17.32276 h 1.31158 q 1.33632,0 1.85601,1.31158 l 6.1867,16.01118 h -3.01911 z m -6.06296,-2.42518 h 5.24632 l -2.59842,-7.0281 h -0.0247 z"
         style="font-style:normal;font-variant:normal;font-weight:600;font-stretch:normal;font-size:24.7468px;font-family:'Bai Jamjuree';-inkscape-font-specification:'Bai Jamjuree, Semi-Bold';font-variant-ligatures:normal;font-variant-caps:normal;font-variant-numeric:normal;font-variant-east-asian:normal;fill:#ffffff;fill-opacity:1;stroke-width:1.85601"
         id="path886" />
      <path
         d="m 129.09377,136.22437 q -1.73228,0 -3.0686,-0.7424 -1.33633,-0.76715 -2.07873,-2.12823 -0.71766,-1.38582 -0.71766,-3.19233 v -11.45777 h 2.89537 v 11.40827 q 0,1.60854 0.81665,2.59842 0.81664,0.96512 2.15297,0.96512 h 2.64791 q 1.36107,0 2.17772,-0.96512 0.84139,-0.98988 0.84139,-2.59842 v -11.40827 h 2.89537 v 11.45777 q 0,1.80651 -0.7424,3.19233 -0.74241,1.36108 -2.07873,2.12823 -1.33633,0.7424 -3.09335,0.7424 z"
         style="font-style:normal;font-variant:normal;font-weight:600;font-stretch:normal;font-size:24.7468px;font-family:'Bai Jamjuree';-inkscape-font-specification:'Bai Jamjuree, Semi-Bold';font-variant-ligatures:normal;font-variant-caps:normal;font-variant-numeric:normal;font-variant-east-asian:normal;fill:#ffffff;fill-opacity:1;stroke-width:1.85601"
         id="path888" />
      <path
         d="m 145.17915,121.20306 h -5.49379 v -2.49942 h 13.88295 v 2.49942 h -5.49379 v 14.82334 h -2.89537 z"
         style="font-style:normal;font-variant:normal;font-weight:600;font-stretch:normal;font-size:24.7468px;font-family:'Bai Jamjuree';-inkscape-font-specification:'Bai Jamjuree, Semi-Bold';font-variant-ligatures:normal;font-variant-caps:normal;font-variant-numeric:normal;font-variant-east-asian:normal;fill:#ffffff;fill-opacity:1;stroke-width:1.85601"
         id="path890" />
      <path
         d="m 160.7448,136.22437 q -1.88076,0 -3.31607,-0.7919 -1.43532,-0.81664 -2.22721,-2.2767 -0.7919,-1.48481 -0.7919,-3.41506 v -4.75138 q 0,-1.93026 0.7919,-3.39032 0.79189,-1.4848 2.22721,-2.2767 1.43531,-0.81665 3.31607,-0.81665 h 2.62316 q 1.88076,0 3.31607,0.81665 1.46006,0.7919 2.25196,2.2767 0.7919,1.46006 0.7919,3.39032 v 4.75138 q 0,1.93025 -0.7919,3.41506 -0.7919,1.46006 -2.25196,2.2767 -1.43531,0.7919 -3.31607,0.7919 z m 2.62316,-2.54892 q 1.5343,0 2.49943,-1.1136 0.96512,-1.11361 0.96512,-2.92013 v -4.55341 q 0,-1.80651 -0.96512,-2.92012 -0.94038,-1.11361 -2.49943,-1.11361 h -2.59841 q -1.55905,0 -2.52418,1.11361 -0.94038,1.11361 -0.94038,2.92012 v 4.55341 q 0,1.80652 0.94038,2.92013 0.96513,1.1136 2.52418,1.1136 z"
         style="font-style:normal;font-variant:normal;font-weight:600;font-stretch:normal;font-size:24.7468px;font-family:'Bai Jamjuree';-inkscape-font-specification:'Bai Jamjuree, Semi-Bold';font-variant-ligatures:normal;font-variant-caps:normal;font-variant-numeric:normal;font-variant-east-asian:normal;fill:#ffffff;fill-opacity:1;stroke-width:1.85601"
         id="path892" />
      <path
         d="m 172.59848,118.70364 h 2.59841 l 8.76037,12.67036 v -12.67036 h 2.82114 v 17.32276 h -2.62317 l -8.73562,-12.62087 v 12.62087 h -2.82113 z"
         style="font-style:normal;font-variant:normal;font-weight:600;font-stretch:normal;font-size:24.7468px;font-family:'Bai Jamjuree';-inkscape-font-specification:'Bai Jamjuree, Semi-Bold';font-variant-ligatures:normal;font-variant-caps:normal;font-variant-numeric:normal;font-variant-east-asian:normal;fill:#ffffff;fill-opacity:1;stroke-width:1.85601"
         id="path894" />
      <path
         d="m 195.9842,136.22437 q -1.88076,0 -3.31608,-0.7919 -1.43531,-0.81664 -2.22721,-2.2767 -0.7919,-1.48481 -0.7919,-3.41506 v -4.75138 q 0,-1.93026 0.7919,-3.39032 0.7919,-1.4848 2.22721,-2.2767 1.43532,-0.81665 3.31608,-0.81665 h 2.62316 q 1.88075,0 3.31607,0.81665 1.46006,0.7919 2.25196,2.2767 0.79189,1.46006 0.79189,3.39032 v 4.75138 q 0,1.93025 -0.79189,3.41506 -0.7919,1.46006 -2.25196,2.2767 -1.43532,0.7919 -3.31607,0.7919 z m 2.62316,-2.54892 q 1.5343,0 2.49942,-1.1136 0.96513,-1.11361 0.96513,-2.92013 v -4.55341 q 0,-1.80651 -0.96513,-2.92012 -0.94038,-1.11361 -2.49942,-1.11361 h -2.59842 q -1.55905,0 -2.52417,1.11361 -0.94038,1.11361 -0.94038,2.92012 v 4.55341 q 0,1.80652 0.94038,2.92013 0.96512,1.1136 2.52417,1.1136 z"
         style="font-style:normal;font-variant:normal;font-weight:600;font-stretch:normal;font-size:24.7468px;font-family:'Bai Jamjuree';-inkscape-font-specification:'Bai Jamjuree, Semi-Bold';font-variant-ligatures:normal;font-variant-caps:normal;font-variant-numeric:normal;font-variant-east-asian:normal;fill:#ffffff;fill-opacity:1;stroke-width:1.85601"
         id="path896" />
      <path
         d="m 207.83787,118.70364 h 2.62317 l 5.84024,10.69062 5.69176,-10.69062 h 2.62316 v 17.32276 h -2.84588 v -11.95271 l -4.08322,7.57252 q -0.34645,0.59393 -0.66816,0.86614 -0.32171,0.24747 -0.71766,0.24747 h -0.81664 l -4.82563,-8.68613 v 11.95271 h -2.82114 z"
         style="font-style:normal;font-variant:normal;font-weight:600;font-stretch:normal;font-size:24.7468px;font-family:'Bai Jamjuree';-inkscape-font-specification:'Bai Jamjuree, Semi-Bold';font-variant-ligatures:normal;font-variant-caps:normal;font-variant-numeric:normal;font-variant-east-asian:normal;fill:#ffffff;fill-opacity:1;stroke-width:1.85601"
         id="path898" />
      <path
         d="m 233.82199,136.22437 q -1.88075,0 -3.31607,-0.7919 -1.43531,-0.81664 -2.22721,-2.2767 -0.7919,-1.48481 -0.7919,-3.41506 v -4.75138 q 0,-1.93026 0.7919,-3.39032 0.7919,-1.4848 2.22721,-2.2767 1.43532,-0.81665 3.31607,-0.81665 h 2.62317 q 1.88075,0 3.31607,0.81665 1.46006,0.7919 2.25195,2.2767 0.7919,1.46006 0.7919,3.39032 v 4.75138 q 0,1.93025 -0.7919,3.41506 -0.79189,1.46006 -2.25195,2.2767 -1.43532,0.7919 -3.31607,0.7919 z m 2.62317,-2.54892 q 1.5343,0 2.49942,-1.1136 0.96513,-1.11361 0.96513,-2.92013 v -4.55341 q 0,-1.80651 -0.96513,-2.92012 -0.94038,-1.11361 -2.49942,-1.11361 h -2.59842 q -1.55905,0 -2.52417,1.11361 -0.94038,1.11361 -0.94038,2.92012 v 4.55341 q 0,1.80652 0.94038,2.92013 0.96512,1.1136 2.52417,1.1136 z"
         style="font-style:normal;font-variant:normal;font-weight:600;font-stretch:normal;font-size:24.7468px;font-family:'Bai Jamjuree';-inkscape-font-specification:'Bai Jamjuree, Semi-Bold';font-variant-ligatures:normal;font-variant-caps:normal;font-variant-numeric:normal;font-variant-east-asian:normal;fill:#ffffff;fill-opacity:1;stroke-width:1.85601"
         id="path900" />
      <path
         d="m 251.44166,136.22437 q -1.73227,0 -3.0686,-0.7424 -1.33633,-0.76715 -2.07873,-2.12823 -0.71766,-1.38582 -0.71766,-3.19233 v -11.45777 h 2.89538 v 11.40827 q 0,1.60854 0.81664,2.59842 0.81665,0.96512 2.15297,0.96512 h 2.64791 q 1.36107,0 2.17772,-0.96512 0.84139,-0.98988 0.84139,-2.59842 v -11.40827 h 2.89538 v 11.45777 q 0,1.80651 -0.74241,3.19233 -0.7424,1.36108 -2.07873,2.12823 -1.33633,0.7424 -3.09335,0.7424 z"
         style="font-style:normal;font-variant:normal;font-weight:600;font-stretch:normal;font-size:24.7468px;font-family:'Bai Jamjuree';-inkscape-font-specification:'Bai Jamjuree, Semi-Bold';font-variant-ligatures:normal;font-variant-caps:normal;font-variant-numeric:normal;font-variant-east-asian:normal;fill:#ffffff;fill-opacity:1;stroke-width:1.85601"
         id="path902" />
      <path
         d="m 268.21997,136.22437 q -2.57366,0 -4.05847,-1.48481 -1.48481,-1.4848 -1.48481,-4.05847 h 2.84588 q 0,1.38582 0.71766,2.20246 0.7424,0.7919 2.02924,0.7919 h 2.74689 q 1.2126,0 1.955,-0.51968 0.7424,-0.54443 0.7424,-1.41057 v -1.08886 q 0,-0.66816 -0.51968,-1.1136 -0.51968,-0.44545 -1.48481,-0.61867 l -4.50392,-0.76715 q -2.10347,-0.34646 -3.24183,-1.38583 -1.1136,-1.03936 -1.1136,-2.6479 v -1.36108 q 0,-1.26208 0.66816,-2.22721 0.69291,-0.96512 1.93025,-1.48481 1.23734,-0.54443 2.87063,-0.54443 h 2.79639 q 1.5343,0 2.6974,0.64342 1.18785,0.61867 1.83126,1.78177 0.64342,1.1631 0.64342,2.67265 h -2.82113 q 0,-1.13835 -0.66817,-1.83126 -0.64342,-0.71766 -1.68278,-0.71766 h -2.79639 q -1.1631,0 -1.88076,0.51969 -0.69291,0.49493 -0.69291,1.36107 v 0.89089 q 0,0.69291 0.49494,1.1631 0.49494,0.44544 1.43531,0.59392 l 4.50392,0.7919 q 2.12823,0.3712 3.26658,1.38582 1.1631,0.98987 1.1631,2.54892 v 1.60854 q 0,1.26209 -0.69291,2.25196 -0.69291,0.96512 -1.955,1.50955 -1.26209,0.54443 -2.89537,0.54443 z"
         style="font-style:normal;font-variant:normal;font-weight:600;font-stretch:normal;font-size:24.7468px;font-family:'Bai Jamjuree';-inkscape-font-specification:'Bai Jamjuree, Semi-Bold';font-variant-ligatures:normal;font-variant-caps:normal;font-variant-numeric:normal;font-variant-east-asian:normal;fill:#ffffff;fill-opacity:1;stroke-width:1.85601"
         id="path904" />
      <path
         d="m 291.11072,136.22437 q -2.57367,0 -4.05847,-1.48481 -1.48481,-1.4848 -1.48481,-4.05847 h 2.84588 q 0,1.38582 0.71766,2.20246 0.7424,0.7919 2.02923,0.7919 h 2.7469 q 1.21259,0 1.955,-0.51968 0.7424,-0.54443 0.7424,-1.41057 v -1.08886 q 0,-0.66816 -0.51968,-1.1136 -0.51969,-0.44545 -1.48481,-0.61867 l -4.50392,-0.76715 q -2.10348,-0.34646 -3.24183,-1.38583 -1.1136,-1.03936 -1.1136,-2.6479 v -1.36108 q 0,-1.26208 0.66816,-2.22721 0.69291,-0.96512 1.93025,-1.48481 1.23734,-0.54443 2.87063,-0.54443 h 2.79639 q 1.5343,0 2.6974,0.64342 1.18784,0.61867 1.83126,1.78177 0.64342,1.1631 0.64342,2.67265 h -2.82114 q 0,-1.13835 -0.66816,-1.83126 -0.64342,-0.71766 -1.68278,-0.71766 h -2.79639 q -1.1631,0 -1.88076,0.51969 -0.69291,0.49493 -0.69291,1.36107 v 0.89089 q 0,0.69291 0.49494,1.1631 0.49493,0.44544 1.43531,0.59392 l 4.50392,0.7919 q 2.12822,0.3712 3.26658,1.38582 1.1631,0.98987 1.1631,2.54892 v 1.60854 q 0,1.26209 -0.69291,2.25196 -0.69292,0.96512 -1.955,1.50955 -1.26209,0.54443 -2.89538,0.54443 z"
         style="font-style:normal;font-variant:normal;font-weight:600;font-stretch:normal;font-size:24.7468px;font-family:'Bai Jamjuree';-inkscape-font-specification:'Bai Jamjuree, Semi-Bold';font-variant-ligatures:normal;font-variant-caps:normal;font-variant-numeric:normal;font-variant-east-asian:normal;fill:#ffffff;fill-opacity:1;stroke-width:1.85601"
         id="path906" />
      <path
         d="m 306.47847,129.32002 -6.40942,-10.61638 h 3.14284 l 4.7019,7.96847 4.70189,-7.96847 h 3.14284 l -6.40942,10.61638 v 6.70638 h -2.87063 z"
         style="font-style:normal;font-variant:normal;font-weight:600;font-stretch:normal;font-size:24.7468px;font-family:'Bai Jamjuree';-inkscape-font-specification:'Bai Jamjuree, Semi-Bold';font-variant-ligatures:normal;font-variant-caps:normal;font-variant-numeric:normal;font-variant-east-asian:normal;fill:#ffffff;fill-opacity:1;stroke-width:1.85601"
         id="path908" />
      <path
         d="m 321.99466,136.22437 q -2.57366,0 -4.05847,-1.48481 -1.48481,-1.4848 -1.48481,-4.05847 h 2.84588 q 0,1.38582 0.71766,2.20246 0.7424,0.7919 2.02924,0.7919 h 2.74689 q 1.21259,0 1.955,-0.51968 0.7424,-0.54443 0.7424,-1.41057 v -1.08886 q 0,-0.66816 -0.51968,-1.1136 -0.51968,-0.44545 -1.48481,-0.61867 l -4.50392,-0.76715 q -2.10347,-0.34646 -3.24183,-1.38583 -1.1136,-1.03936 -1.1136,-2.6479 v -1.36108 q 0,-1.26208 0.66816,-2.22721 0.69291,-0.96512 1.93025,-1.48481 1.23734,-0.54443 2.87063,-0.54443 h 2.79639 q 1.5343,0 2.6974,0.64342 1.18785,0.61867 1.83126,1.78177 0.64342,1.1631 0.64342,2.67265 h -2.82114 q 0,-1.13835 -0.66816,-1.83126 -0.64342,-0.71766 -1.68278,-0.71766 h -2.79639 q -1.1631,0 -1.88076,0.51969 -0.69291,0.49493 -0.69291,1.36107 v 0.89089 q 0,0.69291 0.49494,1.1631 0.49493,0.44544 1.43531,0.59392 l 4.50392,0.7919 q 2.12823,0.3712 3.26658,1.38582 1.1631,0.98987 1.1631,2.54892 v 1.60854 q 0,1.26209 -0.69291,2.25196 -0.69291,0.96512 -1.955,1.50955 -1.26209,0.54443 -2.89538,0.54443 z"
         style="font-style:normal;font-variant:normal;font-weight:600;font-stretch:normal;font-size:24.7468px;font-family:'Bai Jamjuree';-inkscape-font-specification:'Bai Jamjuree, Semi-Bold';font-variant-ligatures:normal;font-variant-caps:normal;font-variant-numeric:normal;font-variant-east-asian:normal;fill:#ffffff;fill-opacity:1;stroke-width:1.85601"
         id="path910" />
      <path
         d="m 336.89224,121.20306 h -5.49379 v -2.49942 h 13.88295 v 2.49942 h -5.49379 v 14.82334 h -2.89537 z"
         style="font-style:normal;font-variant:normal;font-weight:600;font-stretch:normal;font-size:24.7468px;font-family:'Bai Jamjuree';-inkscape-font-specification:'Bai Jamjuree, Semi-Bold';font-variant-ligatures:normal;font-variant-caps:normal;font-variant-numeric:normal;font-variant-east-asian:normal;fill:#ffffff;fill-opacity:1;stroke-width:1.85601"
         id="path912" />
      <path
         d="m 349.53779,136.0264 q -0.96513,0 -1.55905,-0.56918 -0.56918,-0.59392 -0.56918,-1.5343 v -15.21928 h 12.69511 v 2.49942 h -9.79973 v 4.7019 h 9.05732 v 2.52417 h -9.05732 v 5.09784 h 9.79973 v 2.49943 z"
         style="font-style:normal;font-variant:normal;font-weight:600;font-stretch:normal;font-size:24.7468px;font-family:'Bai Jamjuree';-inkscape-font-specification:'Bai Jamjuree, Semi-Bold';font-variant-ligatures:normal;font-variant-caps:normal;font-variant-numeric:normal;font-variant-east-asian:normal;fill:#ffffff;fill-opacity:1;stroke-width:1.85601"
         id="path914" />
      <path
         d="m 362.72783,118.70364 h 2.62316 l 5.84024,10.69062 5.69177,-10.69062 h 2.62316 v 17.32276 h -2.84588 v -11.95271 l -4.08323,7.57252 q -0.34645,0.59393 -0.66816,0.86614 -0.32171,0.24747 -0.71766,0.24747 h -0.81664 l -4.82563,-8.68613 v 11.95271 h -2.82113 z"
         style="font-style:normal;font-variant:normal;font-weight:600;font-stretch:normal;font-size:24.7468px;font-family:'Bai Jamjuree';-inkscape-font-specification:'Bai Jamjuree, Semi-Bold';font-variant-ligatures:normal;font-variant-caps:normal;font-variant-numeric:normal;font-variant-east-asian:normal;fill:#ffffff;fill-opacity:1;stroke-width:1.85601"
         id="path916" />
      <path
         d="m 389.77605,118.70364 h 12.44764 v 2.52417 h -9.55227 v 5.22158 h 8.63663 v 2.52417 h -8.63663 v 7.05284 h -2.89537 z"
         style="font-style:normal;font-variant:normal;font-weight:600;font-stretch:normal;font-size:24.7468px;font-family:'Bai Jamjuree';-inkscape-font-specification:'Bai Jamjuree, Semi-Bold';font-variant-ligatures:normal;font-variant-caps:normal;font-variant-numeric:normal;font-variant-east-asian:normal;fill:#ffffff;fill-opacity:1;stroke-width:1.85601"
         id="path918" />
      <path
         d="m 409.84566,136.22437 q -1.88076,0 -3.31607,-0.7919 -1.43531,-0.81664 -2.22721,-2.2767 -0.7919,-1.48481 -0.7919,-3.41506 v -4.75138 q 0,-1.93026 0.7919,-3.39032 0.7919,-1.4848 2.22721,-2.2767 1.43531,-0.81665 3.31607,-0.81665 h 2.62316 q 1.88076,0 3.31607,0.81665 1.46006,0.7919 2.25196,2.2767 0.7919,1.46006 0.7919,3.39032 v 4.75138 q 0,1.93025 -0.7919,3.41506 -0.7919,1.46006 -2.25196,2.2767 -1.43531,0.7919 -3.31607,0.7919 z m 2.62316,-2.54892 q 1.5343,0 2.49943,-1.1136 0.96512,-1.11361 0.96512,-2.92013 v -4.55341 q 0,-1.80651 -0.96512,-2.92012 -0.94038,-1.11361 -2.49943,-1.11361 h -2.59841 q -1.55905,0 -2.52418,1.11361 -0.94037,1.11361 -0.94037,2.92012 v 4.55341 q 0,1.80652 0.94037,2.92013 0.96513,1.1136 2.52418,1.1136 z"
         style="font-style:normal;font-variant:normal;font-weight:600;font-stretch:normal;font-size:24.7468px;font-family:'Bai Jamjuree';-inkscape-font-specification:'Bai Jamjuree, Semi-Bold';font-variant-ligatures:normal;font-variant-caps:normal;font-variant-numeric:normal;font-variant-east-asian:normal;fill:#ffffff;fill-opacity:1;stroke-width:1.85601"
         id="path920" />
      <path
         d="m 421.69932,118.70364 h 8.9336 q 2.12822,0 3.4398,1.1631 1.31158,1.1631 1.31158,3.0686 v 1.75702 q 0,1.28684 -0.79189,2.27671 -0.76715,0.96512 -2.15297,1.43531 v 0.0495 q 0.79189,0.47019 1.26208,1.21259 0.49494,0.71766 0.84139,1.88076 l 1.38582,4.47917 h -2.99436 l -1.33633,-4.2812 q -0.3217,-1.1136 -0.98987,-1.70753 -0.66816,-0.59392 -1.55905,-0.59392 h -4.45442 v 6.58265 h -2.89538 z m 8.29018,8.24068 q 1.13836,0 1.80652,-0.61867 0.69291,-0.61867 0.69291,-1.60854 v -1.70753 q 0,-0.7919 -0.51968,-1.28683 -0.51969,-0.49494 -1.38582,-0.49494 h -5.98873 v 5.71651 z"
         style="font-style:normal;font-variant:normal;font-weight:600;font-stretch:normal;font-size:24.7468px;font-family:'Bai Jamjuree';-inkscape-font-specification:'Bai Jamjuree, Semi-Bold';font-variant-ligatures:normal;font-variant-caps:normal;font-variant-numeric:normal;font-variant-east-asian:normal;fill:#ffffff;fill-opacity:1;stroke-width:1.85601"
         id="path922" />
      <path
         d="m 445.40672,118.70364 h 2.89538 v 17.32276 h -2.89538 z"
         style="font-style:normal;font-variant:normal;font-weight:600;font-stretch:normal;font-size:24.7468px;font-family:'Bai Jamjuree';-inkscape-font-specification:'Bai Jamjuree, Semi-Bold';font-variant-ligatures:normal;font-variant-caps:normal;font-variant-numeric:normal;font-variant-east-asian:normal;fill:#ffffff;fill-opacity:1;stroke-width:1.85601"
         id="path924" />
      <path
         d="m 451.91511,118.70364 h 2.59842 l 8.76037,12.67036 v -12.67036 h 2.82113 v 17.32276 h -2.62316 l -8.73562,-12.62087 v 12.62087 h -2.82114 z"
         style="font-style:normal;font-variant:normal;font-weight:600;font-stretch:normal;font-size:24.7468px;font-family:'Bai Jamjuree';-inkscape-font-specification:'Bai Jamjuree, Semi-Bold';font-variant-ligatures:normal;font-variant-caps:normal;font-variant-numeric:normal;font-variant-east-asian:normal;fill:#ffffff;fill-opacity:1;stroke-width:1.85601"
         id="path926" />
      <path
         d="m 469.46059,118.70364 h 12.44764 v 2.52417 h -9.55227 v 5.22158 h 8.63663 v 2.52417 h -8.63663 v 7.05284 h -2.89537 z"
         style="font-style:normal;font-variant:normal;font-weight:600;font-stretch:normal;font-size:24.7468px;font-family:'Bai Jamjuree';-inkscape-font-specification:'Bai Jamjuree, Semi-Bold';font-variant-ligatures:normal;font-variant-caps:normal;font-variant-numeric:normal;font-variant-east-asian:normal;fill:#ffffff;fill-opacity:1;stroke-width:1.85601"
         id="path928" />
      <path
         d="m 489.5302,136.22437 q -1.88076,0 -3.31607,-0.7919 -1.43532,-0.81664 -2.22721,-2.2767 -0.7919,-1.48481 -0.7919,-3.41506 v -4.75138 q 0,-1.93026 0.7919,-3.39032 0.79189,-1.4848 2.22721,-2.2767 1.43531,-0.81665 3.31607,-0.81665 h 2.62316 q 1.88076,0 3.31607,0.81665 1.46006,0.7919 2.25196,2.2767 0.7919,1.46006 0.7919,3.39032 v 4.75138 q 0,1.93025 -0.7919,3.41506 -0.7919,1.46006 -2.25196,2.2767 -1.43531,0.7919 -3.31607,0.7919 z m 2.62316,-2.54892 q 1.5343,0 2.49943,-1.1136 0.96512,-1.11361 0.96512,-2.92013 v -4.55341 q 0,-1.80651 -0.96512,-2.92012 -0.94038,-1.11361 -2.49943,-1.11361 h -2.59841 q -1.55905,0 -2.52418,1.11361 -0.94037,1.11361 -0.94037,2.92012 v 4.55341 q 0,1.80652 0.94037,2.92013 0.96513,1.1136 2.52418,1.1136 z"
         style="font-style:normal;font-variant:normal;font-weight:600;font-stretch:normal;font-size:24.7468px;font-family:'Bai Jamjuree';-inkscape-font-specification:'Bai Jamjuree, Semi-Bold';font-variant-ligatures:normal;font-variant-caps:normal;font-variant-numeric:normal;font-variant-east-asian:normal;fill:#ffffff;fill-opacity:1;stroke-width:1.85601"
         id="path930" />
      <path
         d="m 501.38386,118.70364 h 8.9336 q 2.12822,0 3.4398,1.1631 1.31158,1.1631 1.31158,3.0686 v 1.75702 q 0,1.28684 -0.79189,2.27671 -0.76715,0.96512 -2.15297,1.43531 v 0.0495 q 0.79189,0.47019 1.26208,1.21259 0.49494,0.71766 0.84139,1.88076 l 1.38582,4.47917 h -2.99436 l -1.33633,-4.2812 q -0.3217,-1.1136 -0.98987,-1.70753 -0.66816,-0.59392 -1.55905,-0.59392 h -4.45442 v 6.58265 h -2.89538 z m 8.29018,8.24068 q 1.13836,0 1.80652,-0.61867 0.69291,-0.61867 0.69291,-1.60854 v -1.70753 q 0,-0.7919 -0.51968,-1.28683 -0.51969,-0.49494 -1.38582,-0.49494 h -5.98873 v 5.71651 z"
         style="font-style:normal;font-variant:normal;font-weight:600;font-stretch:normal;font-size:24.7468px;font-family:'Bai Jamjuree';-inkscape-font-specification:'Bai Jamjuree, Semi-Bold';font-variant-ligatures:normal;font-variant-caps:normal;font-variant-numeric:normal;font-variant-east-asian:normal;fill:#ffffff;fill-opacity:1;stroke-width:1.85601"
         id="path932" />
      <path
         d="m 517.93944,118.70364 h 2.62316 l 5.84024,10.69062 5.69177,-10.69062 h 2.62316 v 17.32276 h -2.84588 v -11.95271 l -4.08323,7.57252 q -0.34645,0.59393 -0.66816,0.86614 -0.32171,0.24747 -0.71766,0.24747 h -0.81664 l -4.82563,-8.68613 v 11.95271 h -2.82113 z"
         style="font-style:normal;font-variant:normal;font-weight:600;font-stretch:normal;font-size:24.7468px;font-family:'Bai Jamjuree';-inkscape-font-specification:'Bai Jamjuree, Semi-Bold';font-variant-ligatures:normal;font-variant-caps:normal;font-variant-numeric:normal;font-variant-east-asian:normal;fill:#ffffff;fill-opacity:1;stroke-width:1.85601"
         id="path934" />
      <path
         d="m 548.1305,131.7452 h -6.87961 l -1.60854,4.2812 h -2.99437 l 6.73113,-17.32276 h 1.31158 q 1.33633,0 1.85601,1.31158 l 6.1867,16.01118 h -3.01911 z m -6.06297,-2.42518 h 5.24632 l -2.59841,-7.0281 h -0.0247 z"
         style="font-style:normal;font-variant:normal;font-weight:600;font-stretch:normal;font-size:24.7468px;font-family:'Bai Jamjuree';-inkscape-font-specification:'Bai Jamjuree, Semi-Bold';font-variant-ligatures:normal;font-variant-caps:normal;font-variant-numeric:normal;font-variant-east-asian:normal;fill:#ffffff;fill-opacity:1;stroke-width:1.85601"
         id="path936" />
      <path
         d="m 556.4454,121.20306 h -5.49379 v -2.49942 h 13.88295 v 2.49942 h -5.49379 v 14.82334 h -2.89537 z"
         style="font-style:normal;font-variant:normal;font-weight:600;font-stretch:normal;font-size:24.7468px;font-family:'Bai Jamjuree';-inkscape-font-specification:'Bai Jamjuree, Semi-Bold';font-variant-ligatures:normal;font-variant-caps:normal;font-variant-numeric:normal;font-variant-east-asian:normal;fill:#ffffff;fill-opacity:1;stroke-width:1.85601"
         id="path938" />
      <path
         d="m 567.21022,118.70364 h 2.89538 v 17.32276 h -2.89538 z"
         style="font-style:normal;font-variant:normal;font-weight:600;font-stretch:normal;font-size:24.7468px;font-family:'Bai Jamjuree';-inkscape-font-specification:'Bai Jamjuree, Semi-Bold';font-variant-ligatures:normal;font-variant-caps:normal;font-variant-numeric:normal;font-variant-east-asian:normal;fill:#ffffff;fill-opacity:1;stroke-width:1.85601"
         id="path940" />
      <path
         d="m 579.55886,136.22437 q -1.88076,0 -3.31607,-0.7919 -1.43532,-0.81664 -2.22722,-2.2767 -0.79189,-1.48481 -0.79189,-3.41506 v -4.75138 q 0,-1.93026 0.79189,-3.39032 0.7919,-1.4848 2.22722,-2.2767 1.43531,-0.81665 3.31607,-0.81665 h 2.62316 q 1.88075,0 3.31607,0.81665 1.46006,0.7919 2.25196,2.2767 0.79189,1.46006 0.79189,3.39032 v 4.75138 q 0,1.93025 -0.79189,3.41506 -0.7919,1.46006 -2.25196,2.2767 -1.43532,0.7919 -3.31607,0.7919 z m 2.62316,-2.54892 q 1.5343,0 2.49942,-1.1136 0.96513,-1.11361 0.96513,-2.92013 v -4.55341 q 0,-1.80651 -0.96513,-2.92012 -0.94037,-1.11361 -2.49942,-1.11361 h -2.59842 q -1.55905,0 -2.52417,1.11361 -0.94038,1.11361 -0.94038,2.92012 v 4.55341 q 0,1.80652 0.94038,2.92013 0.96512,1.1136 2.52417,1.1136 z"
         style="font-style:normal;font-variant:normal;font-weight:600;font-stretch:normal;font-size:24.7468px;font-family:'Bai Jamjuree';-inkscape-font-specification:'Bai Jamjuree, Semi-Bold';font-variant-ligatures:normal;font-variant-caps:normal;font-variant-numeric:normal;font-variant-east-asian:normal;fill:#ffffff;fill-opacity:1;stroke-width:1.85601"
         id="path942" />
      <path
         d="m 591.41252,118.70364 h 2.59841 l 8.76037,12.67036 v -12.67036 h 2.82114 v 17.32276 h -2.62316 l -8.73562,-12.62087 v 12.62087 h -2.82114 z"
         style="font-style:normal;font-variant:normal;font-weight:600;font-stretch:normal;font-size:24.7468px;font-family:'Bai Jamjuree';-inkscape-font-specification:'Bai Jamjuree, Semi-Bold';font-variant-ligatures:normal;font-variant-caps:normal;font-variant-numeric:normal;font-variant-east-asian:normal;fill:#ffffff;fill-opacity:1;stroke-width:1.85601"
         id="path944" />
      <path
         d="m 625.90949,131.7452 h -6.87961 l -1.60854,4.2812 h -2.99437 l 6.73113,-17.32276 h 1.31158 q 1.33633,0 1.85601,1.31158 l 6.1867,16.01118 h -3.01911 z m -6.06297,-2.42518 h 5.24632 l -2.59841,-7.0281 h -0.0247 z"
         style="font-style:normal;font-variant:normal;font-weight:600;font-stretch:normal;font-size:24.7468px;font-family:'Bai Jamjuree';-inkscape-font-specification:'Bai Jamjuree, Semi-Bold';font-variant-ligatures:normal;font-variant-caps:normal;font-variant-numeric:normal;font-variant-east-asian:normal;fill:#ffffff;fill-opacity:1;stroke-width:1.85601"
         id="path946" />
      <path
         d="m 637.56518,136.22437 q -1.73227,0 -3.0686,-0.7424 -1.33633,-0.76715 -2.07873,-2.12823 -0.71766,-1.38582 -0.71766,-3.19233 v -11.45777 h 2.89538 v 11.40827 q 0,1.60854 0.81664,2.59842 0.81665,0.96512 2.15297,0.96512 h 2.64791 q 1.36107,0 2.17772,-0.96512 0.84139,-0.98988 0.84139,-2.59842 v -11.40827 h 2.89538 v 11.45777 q 0,1.80651 -0.74241,3.19233 -0.7424,1.36108 -2.07873,2.12823 -1.33633,0.7424 -3.09335,0.7424 z"
         style="font-style:normal;font-variant:normal;font-weight:600;font-stretch:normal;font-size:24.7468px;font-family:'Bai Jamjuree';-inkscape-font-specification:'Bai Jamjuree, Semi-Bold';font-variant-ligatures:normal;font-variant-caps:normal;font-variant-numeric:normal;font-variant-east-asian:normal;fill:#ffffff;fill-opacity:1;stroke-width:1.85601"
         id="path948" />
      <path
         d="m 653.6506,121.20306 h -5.49379 v -2.49942 h 13.88295 v 2.49942 h -5.49379 v 14.82334 h -2.89537 z"
         style="font-style:normal;font-variant:normal;font-weight:600;font-stretch:normal;font-size:24.7468px;font-family:'Bai Jamjuree';-inkscape-font-specification:'Bai Jamjuree, Semi-Bold';font-variant-ligatures:normal;font-variant-caps:normal;font-variant-numeric:normal;font-variant-east-asian:normal;fill:#ffffff;fill-opacity:1;stroke-width:1.85601"
         id="path950" />
      <path
         d="m 664.16789,118.70364 h 2.89538 v 7.3498 h 8.56239 v -7.3498 h 2.87063 v 17.32276 h -2.87063 v -7.44879 h -8.56239 v 7.44879 h -2.89538 z"
         style="font-style:normal;font-variant:normal;font-weight:600;font-stretch:normal;font-size:24.7468px;font-family:'Bai Jamjuree';-inkscape-font-specification:'Bai Jamjuree, Semi-Bold';font-variant-ligatures:normal;font-variant-caps:normal;font-variant-numeric:normal;font-variant-east-asian:normal;fill:#ffffff;fill-opacity:1;stroke-width:1.85601"
         id="path952" />
      <path
         d="m 687.70211,136.22437 q -1.88076,0 -3.31608,-0.7919 -1.43531,-0.81664 -2.22721,-2.2767 -0.79189,-1.48481 -0.79189,-3.41506 v -4.75138 q 0,-1.93026 0.79189,-3.39032 0.7919,-1.4848 2.22721,-2.2767 1.43532,-0.81665 3.31608,-0.81665 h 2.62316 q 1.88075,0 3.31607,0.81665 1.46006,0.7919 2.25196,2.2767 0.79189,1.46006 0.79189,3.39032 v 4.75138 q 0,1.93025 -0.79189,3.41506 -0.7919,1.46006 -2.25196,2.2767 -1.43532,0.7919 -3.31607,0.7919 z m 2.62316,-2.54892 q 1.5343,0 2.49942,-1.1136 0.96513,-1.11361 0.96513,-2.92013 v -4.55341 q 0,-1.80651 -0.96513,-2.92012 -0.94037,-1.11361 -2.49942,-1.11361 h -2.59842 q -1.55905,0 -2.52417,1.11361 -0.94038,1.11361 -0.94038,2.92012 v 4.55341 q 0,1.80652 0.94038,2.92013 0.96512,1.1136 2.52417,1.1136 z"
         style="font-style:normal;font-variant:normal;font-weight:600;font-stretch:normal;font-size:24.7468px;font-family:'Bai Jamjuree';-inkscape-font-specification:'Bai Jamjuree, Semi-Bold';font-variant-ligatures:normal;font-variant-caps:normal;font-variant-numeric:normal;font-variant-east-asian:normal;fill:#ffffff;fill-opacity:1;stroke-width:1.85601"
         id="path954" />
      <path
         d="m 699.55577,118.70364 h 8.93359 q 2.12823,0 3.43981,1.1631 1.31158,1.1631 1.31158,3.0686 v 1.75702 q 0,1.28684 -0.7919,2.27671 -0.76715,0.96512 -2.15297,1.43531 v 0.0495 q 0.7919,0.47019 1.26209,1.21259 0.49493,0.71766 0.84139,1.88076 l 1.38582,4.47917 h -2.99436 l -1.33633,-4.2812 q -0.32171,-1.1136 -0.98987,-1.70753 -0.66817,-0.59392 -1.55905,-0.59392 h -4.45442 v 6.58265 h -2.89538 z m 8.29018,8.24068 q 1.13835,0 1.80651,-0.61867 0.69291,-0.61867 0.69291,-1.60854 v -1.70753 q 0,-0.7919 -0.51968,-1.28683 -0.51968,-0.49494 -1.38582,-0.49494 h -5.98872 v 5.71651 z"
         style="font-style:normal;font-variant:normal;font-weight:600;font-stretch:normal;font-size:24.7468px;font-family:'Bai Jamjuree';-inkscape-font-specification:'Bai Jamjuree, Semi-Bold';font-variant-ligatures:normal;font-variant-caps:normal;font-variant-numeric:normal;font-variant-east-asian:normal;fill:#ffffff;fill-opacity:1;stroke-width:1.85601"
         id="path956" />
      <path
         d="m 716.35878,118.70364 h 2.89538 v 17.32276 h -2.89538 z"
         style="font-style:normal;font-variant:normal;font-weight:600;font-stretch:normal;font-size:24.7468px;font-family:'Bai Jamjuree';-inkscape-font-specification:'Bai Jamjuree, Semi-Bold';font-variant-ligatures:normal;font-variant-caps:normal;font-variant-numeric:normal;font-variant-east-asian:normal;fill:#ffffff;fill-opacity:1;stroke-width:1.85601"
         id="path958" />
      <path
         d="m 727.12362,121.20306 h -5.49379 v -2.49942 h 13.88296 v 2.49942 H 730.019 v 14.82334 h -2.89538 z"
         style="font-style:normal;font-variant:normal;font-weight:600;font-stretch:normal;font-size:24.7468px;font-family:'Bai Jamjuree';-inkscape-font-specification:'Bai Jamjuree, Semi-Bold';font-variant-ligatures:normal;font-variant-caps:normal;font-variant-numeric:normal;font-variant-east-asian:normal;fill:#ffffff;fill-opacity:1;stroke-width:1.85601"
         id="path960" />
      <path
         d="m 742.4666,129.32002 -6.40942,-10.61638 h 3.14284 l 4.7019,7.96847 4.70189,-7.96847 h 3.14284 l -6.40942,10.61638 v 6.70638 h -2.87063 z"
         style="font-style:normal;font-variant:normal;font-weight:600;font-stretch:normal;font-size:24.7468px;font-family:'Bai Jamjuree';-inkscape-font-specification:'Bai Jamjuree, Semi-Bold';font-variant-ligatures:normal;font-variant-caps:normal;font-variant-numeric:normal;font-variant-east-asian:normal;fill:#ffffff;fill-opacity:1;stroke-width:1.85601"
         id="path962" />
    </g>
  </g>
</svg>
