<?xml version="1.0" encoding="UTF-8" standalone="no"?>
<svg
   xmlns:dc="http://purl.org/dc/elements/1.1/"
   xmlns:cc="http://creativecommons.org/ns#"
   xmlns:rdf="http://www.w3.org/1999/02/22-rdf-syntax-ns#"
   xmlns:svg="http://www.w3.org/2000/svg"
   xmlns="http://www.w3.org/2000/svg"
   xmlns:sodipodi="http://sodipodi.sourceforge.net/DTD/sodipodi-0.dtd"
   xmlns:inkscape="http://www.inkscape.org/namespaces/inkscape"
   width="1052mm"
   height="138mm"
   viewBox="0 0 1052 138"
   version="1.1"
   id="svg8"
   inkscape:version="1.0.1 (3bc2e813f5, 2020-09-07)"
   sodipodi:docname="white_dx_00.svg">
  <defs
     id="defs2">
    <pattern
       id="EMFhbasepattern"
       patternUnits="userSpaceOnUse"
       width="6"
       height="6"
       x="0"
       y="0" />
  </defs>
  <sodipodi:namedview
     id="base"
     pagecolor="#ffffff"
     bordercolor="#666666"
     borderopacity="1.0"
     inkscape:pageopacity="0.0"
     inkscape:pageshadow="2"
     inkscape:zoom="0.98994949"
     inkscape:cx="231.23944"
     inkscape:cy="499.75642"
     inkscape:document-units="mm"
     inkscape:current-layer="layer1"
     inkscape:document-rotation="0"
     showgrid="false"
     inkscape:window-width="1920"
     inkscape:window-height="1027"
     inkscape:window-x="-8"
     inkscape:window-y="-8"
     inkscape:window-maximized="1"
     inkscape:snap-text-baseline="true" />
  <metadata
     id="metadata5">
    <rdf:RDF>
      <cc:Work
         rdf:about="">
        <dc:format>image/svg+xml</dc:format>
        <dc:type
           rdf:resource="http://purl.org/dc/dcmitype/StillImage" />
        <dc:title />
      </cc:Work>
    </rdf:RDF>
  </metadata>
  <g
     inkscape:label="Warstwa 1"
     inkscape:groupmode="layer"
     id="layer1">
    <text
       xml:space="preserve"
       style="font-style:normal;font-variant:normal;font-weight:400;font-size:16.0617px;line-height:125%;font-family:Calibri;text-align:start;letter-spacing:0px;word-spacing:0px;text-anchor:start;fill:#000000;fill-opacity:1;stroke:none;stroke-width:1.49411"
       x="18.370987"
       y="-137.70193"
       id="text27"><tspan
         sodipodi:role="line"
         x="18.370987"
         y="-137.70193"
         id="tspan25"
         style="stroke-width:1.49411"><tspan
           dx="0"
           dy="0"
           style="font-style:normal;font-variant:normal;font-weight:400;font-size:16.0617px;font-family:Calibri;fill:#000000;stroke-width:1.49411"
           id="tspan23"> </tspan></tspan></text>
    <g
       id="g1035"
       transform="matrix(5.6470219,0,0,5.6470219,-15.861713,-592.53011)">
      <g
         id="g159"
         transform="translate(1.0583333)">
        <g
           aria-label="STASIA.IO/DX"
           id="text21-8-4"
           style="font-style:normal;font-variant:normal;font-weight:700;font-size:28.2276px;line-height:125%;font-family:'Gill Sans MT';text-align:start;letter-spacing:0px;word-spacing:0px;text-anchor:start;fill:#5f9ea0;fill-opacity:1;stroke:none;stroke-width:0.264583">
          <path
             d="m 8.3699884,125.55049 q -3.105069,0 -4.8551988,-1.7219 -1.7501297,-1.75013 -1.7501297,-4.8552 h 3.8389943 q 0,1.46785 0.7339254,2.31469 0.7621533,0.81861 2.0888646,0.81861 h 3.1332968 q 1.242028,0 2.004181,-0.5081 0.790381,-0.53633 0.790381,-1.4114 v -0.95975 q 0,-1.38316 -2.032409,-1.7219 l -5.1939332,-0.87506 q -2.540511,-0.42342 -3.8672223,-1.60899 -1.2984833,-1.2138 -1.2984833,-3.07685 v -1.58076 q 0,-1.49608 0.7903811,-2.62519 0.8186091,-1.15735 2.2864599,-1.77836 1.4960787,-0.62101 3.4438038,-0.62101 h 3.189753 q 1.834813,0 3.246208,0.76215 1.411395,0.76215 2.173548,2.14532 0.790382,1.35494 0.790382,3.16152 h -3.838995 q 0,-1.18557 -0.649242,-1.89126 -0.649241,-0.73393 -1.721901,-0.73393 H 8.4829 q -1.1855718,0 -1.9194972,0.5081 -0.7056975,0.5081 -0.7056975,1.35494 v 0.76215 q 0,1.4114 1.9477251,1.75013 l 5.1657056,0.9033 q 2.568739,0.45164 3.923678,1.60899 1.354939,1.12911 1.354939,2.9357 v 1.86304 q 0,1.49608 -0.846837,2.65342 -0.818609,1.15735 -2.314688,1.80659 -1.496078,0.62101 -3.472031,0.62101 z"
             style="font-style:normal;font-variant:normal;font-weight:bold;font-stretch:normal;font-size:28.2279px;font-family:'Bai Jamjuree';-inkscape-font-specification:'Bai Jamjuree, Bold';font-variant-ligatures:normal;font-variant-caps:normal;font-variant-numeric:normal;font-variant-east-asian:normal;fill:#5f9ea0;fill-opacity:1;stroke-width:0.264583"
             id="path843" />
          <path
             d="m 25.363113,108.95249 h -6.266594 v -3.38735 h 16.428637 v 3.38735 h -6.266593 v 16.37218 h -3.89545 z"
             style="font-style:normal;font-variant:normal;font-weight:bold;font-stretch:normal;font-size:28.2279px;font-family:'Bai Jamjuree';-inkscape-font-specification:'Bai Jamjuree, Bold';font-variant-ligatures:normal;font-variant-caps:normal;font-variant-numeric:normal;font-variant-east-asian:normal;fill:#5f9ea0;fill-opacity:1;stroke-width:0.264583"
             id="path845" />
          <path
             d="m 46.364628,120.72352 h -7.395709 l -1.75013,4.60115 h -4.064818 l 7.734445,-19.75953 h 1.75013 q 1.834813,0 2.484055,1.69367 l 7.028747,18.06586 H 48.08653 Z m -6.351277,-3.27444 h 5.306845 l -2.625195,-7.11343 h -0.02823 z"
             style="font-style:normal;font-variant:normal;font-weight:bold;font-stretch:normal;font-size:28.2279px;font-family:'Bai Jamjuree';-inkscape-font-specification:'Bai Jamjuree, Bold';font-variant-ligatures:normal;font-variant-caps:normal;font-variant-numeric:normal;font-variant-east-asian:normal;fill:#5f9ea0;fill-opacity:1;stroke-width:0.264583"
             id="path847" />
          <path
             d="m 59.434098,125.55049 q -3.105069,0 -4.855199,-1.7219 -1.750129,-1.75013 -1.750129,-4.8552 h 3.838994 q 0,1.46785 0.733925,2.31469 0.762154,0.81861 2.088865,0.81861 h 3.133297 q 1.242027,0 2.004181,-0.5081 0.790381,-0.53633 0.790381,-1.4114 v -0.95975 q 0,-1.38316 -2.032409,-1.7219 l -5.193933,-0.87506 q -2.540511,-0.42342 -3.867223,-1.60899 -1.298483,-1.2138 -1.298483,-3.07685 v -1.58076 q 0,-1.49608 0.790381,-2.62519 0.818609,-1.15735 2.28646,-1.77836 1.496079,-0.62101 3.443804,-0.62101 h 3.189752 q 1.834814,0 3.246209,0.76215 1.411395,0.76215 2.173548,2.14532 0.790381,1.35494 0.790381,3.16152 h -3.838994 q 0,-1.18557 -0.649242,-1.89126 -0.649241,-0.73393 -1.721902,-0.73393 H 59.54701 q -1.185572,0 -1.919497,0.5081 -0.705698,0.5081 -0.705698,1.35494 v 0.76215 q 0,1.4114 1.947725,1.75013 l 5.165706,0.9033 q 2.568739,0.45164 3.923678,1.60899 1.354939,1.12911 1.354939,2.9357 v 1.86304 q 0,1.49608 -0.846837,2.65342 -0.818609,1.15735 -2.314688,1.80659 -1.496078,0.62101 -3.472031,0.62101 z"
             style="font-style:normal;font-variant:normal;font-weight:bold;font-stretch:normal;font-size:28.2279px;font-family:'Bai Jamjuree';-inkscape-font-specification:'Bai Jamjuree, Bold';font-variant-ligatures:normal;font-variant-caps:normal;font-variant-numeric:normal;font-variant-east-asian:normal;fill:#5f9ea0;fill-opacity:1;stroke-width:0.264583"
             id="path849" />
          <path
             d="m 72.305967,105.56514 h 3.89545 v 19.75953 h -3.89545 z"
             style="font-style:normal;font-variant:normal;font-weight:bold;font-stretch:normal;font-size:28.2279px;font-family:'Bai Jamjuree';-inkscape-font-specification:'Bai Jamjuree, Bold';font-variant-ligatures:normal;font-variant-caps:normal;font-variant-numeric:normal;font-variant-east-asian:normal;fill:#5f9ea0;fill-opacity:1;stroke-width:0.264583"
             id="path851" />
          <path
             d="m 91.557385,120.72352 h -7.39571 l -1.750129,4.60115 h -4.064818 l 7.734444,-19.75953 h 1.75013 q 1.834814,0 2.484055,1.69367 l 7.028747,18.06586 h -4.064817 z m -6.351277,-3.27444 h 5.306845 l -2.625195,-7.11343 h -0.02823 z"
             style="font-style:normal;font-variant:normal;font-weight:bold;font-stretch:normal;font-size:28.2279px;font-family:'Bai Jamjuree';-inkscape-font-specification:'Bai Jamjuree, Bold';font-variant-ligatures:normal;font-variant-caps:normal;font-variant-numeric:normal;font-variant-east-asian:normal;fill:#5f9ea0;fill-opacity:1;stroke-width:0.264583"
             id="path853" />
          <path
             d="m 100.84435,125.60695 q -1.044428,0 -1.693669,-0.62102 -0.621014,-0.64924 -0.621014,-1.69367 0,-1.04443 0.621014,-1.66545 0.649241,-0.64924 1.693669,-0.64924 1.04444,0 1.66545,0.64924 0.64924,0.62102 0.64924,1.66545 0,1.04443 -0.64924,1.69367 -0.62101,0.62102 -1.66545,0.62102 z"
             style="font-style:normal;font-variant:normal;font-weight:bold;font-stretch:normal;font-size:28.2279px;font-family:'Bai Jamjuree';-inkscape-font-specification:'Bai Jamjuree, Bold';font-variant-ligatures:normal;font-variant-caps:normal;font-variant-numeric:normal;font-variant-east-asian:normal;fill:#5f9ea0;fill-opacity:1;stroke-width:0.264583"
             id="path855" />
          <path
             d="m 109.60435,105.56514 h 3.89545 v 19.75953 h -3.89545 z"
             style="font-style:normal;font-variant:normal;font-weight:bold;font-stretch:normal;font-size:28.2279px;font-family:'Bai Jamjuree';-inkscape-font-specification:'Bai Jamjuree, Bold';font-variant-ligatures:normal;font-variant-caps:normal;font-variant-numeric:normal;font-variant-east-asian:normal;fill:#5f9ea0;fill-opacity:1;stroke-width:0.264583"
             id="path857" />
          <path
             d="m 124.25462,125.55049 q -2.23,0 -3.9519,-0.93152 -1.69368,-0.95975 -2.65343,-2.65342 -0.93152,-1.7219 -0.93152,-3.98013 v -5.08103 q 0,-2.25823 0.93152,-3.9519 0.95975,-1.7219 2.65343,-2.65343 1.7219,-0.95974 3.9519,-0.95974 h 2.99216 q 2.23,0 3.92368,0.95974 1.7219,0.93153 2.65342,2.65343 0.95975,1.69367 0.95975,3.9519 v 5.08103 q 0,2.25823 -0.95975,3.98013 -0.93152,1.69367 -2.65342,2.65342 -1.69368,0.93152 -3.92368,0.93152 z m 2.99216,-3.4438 q 1.63722,0 2.62519,-1.18557 1.01621,-1.18558 1.01621,-3.10507 v -4.74229 q 0,-1.9195 -1.01621,-3.10507 -0.98797,-1.18557 -2.62519,-1.18557 h -2.99216 q -1.63722,0 -2.65342,1.18557 -0.98798,1.18557 -0.98798,3.10507 v 4.74229 q 0,1.91949 0.98798,3.10507 1.0162,1.18557 2.65342,1.18557 z"
             style="font-style:normal;font-variant:normal;font-weight:bold;font-stretch:normal;font-size:28.2279px;font-family:'Bai Jamjuree';-inkscape-font-specification:'Bai Jamjuree, Bold';font-variant-ligatures:normal;font-variant-caps:normal;font-variant-numeric:normal;font-variant-east-asian:normal;fill:#5f9ea0;fill-opacity:1;stroke-width:0.264583"
             id="path859" />
          <path
             d="m 146.35702,104.94413 h 3.89545 l -10.61369,21.08624 h -3.89545 z"
             style="font-style:normal;font-variant:normal;font-weight:bold;font-stretch:normal;font-size:28.2279px;font-family:'Bai Jamjuree';-inkscape-font-specification:'Bai Jamjuree, Bold';font-variant-ligatures:normal;font-variant-caps:normal;font-variant-numeric:normal;font-variant-east-asian:normal;fill:#5f9ea0;fill-opacity:1;stroke-width:0.264583"
             id="path861" />
          <path
             d="m 155.24878,125.32467 q -1.2138,0 -1.97595,-0.73393 -0.76216,-0.73392 -0.76216,-1.91949 v -17.10611 h 9.42812 q 2.25823,0 3.95191,0.84684 1.7219,0.84683 2.65342,2.39937 0.95975,1.55253 0.95975,3.58494 v 5.53267 q 0,3.6414 -1.89127,5.53267 -1.89127,1.86304 -5.5609,1.86304 z m 6.69001,-3.4438 q 1.80659,0 2.73811,-1.04444 0.93152,-1.04443 0.93152,-3.07684 v -5.19393 q 0,-1.60899 -1.04443,-2.56874 -1.04444,-0.98798 -2.73811,-0.98798 h -5.41976 v 12.87193 z"
             style="fill:#80b1b3;fill-opacity:1"
             id="path863" />
          <path
             d="m 176.56081,115.24731 -6.60533,-9.68217 h 4.43178 l 4.40355,6.49242 4.40356,-6.49242 h 4.40355 l -6.60533,9.68217 6.88761,10.07736 h -4.43178 l -4.65761,-6.88761 -4.68583,6.88761 h -4.43178 z"
             style="fill:#80b1b3;fill-opacity:1"
             id="path865" />
        </g>
        <g
           aria-label="STREAM AUTONOMOUS SYSTEM FOR INFORMATION AUTHORITY
"
           id="text39-6"
           style="font-weight:bold;font-size:35.0652px;line-height:1.25;font-family:'Bai Jamjuree';-inkscape-font-specification:'Bai Jamjuree, Bold';stroke-width:0.328671">
          <path
             d="m 2.7462884,129.31796 q -0.4557561,0 -0.7186923,-0.26294 -0.2629362,-0.26294 -0.2629362,-0.71869 H 2.268621 q 0,0.2454 0.1270858,0.39002 0.1314681,0.14023 0.3593461,0.14023 h 0.486432 q 0.2147312,0 0.3461993,-0.092 0.1314681,-0.0964 0.1314681,-0.24978 v -0.19282 q 0,-0.11833 -0.092028,-0.19721 -0.092028,-0.0789 -0.2629362,-0.10955 l -0.7975731,-0.13585 q -0.3724929,-0.0614 -0.5740773,-0.24541 -0.1972022,-0.18406 -0.1972022,-0.4689 V 126.934 q 0,-0.22349 0.1183213,-0.3944 0.1227036,-0.17091 0.341817,-0.26294 0.2191135,-0.0964 0.5083433,-0.0964 h 0.4951965 q 0.2717008,0 0.4776675,0.11394 0.2103489,0.10956 0.3242879,0.31552 0.113939,0.20597 0.113939,0.47329 H 3.6753296 q 0,-0.20159 -0.1183213,-0.32429 -0.113939,-0.12709 -0.2979944,-0.12709 H 2.7638174 q -0.2059666,0 -0.3330525,0.092 -0.1227035,0.0876 -0.1227035,0.24103 v 0.15776 q 0,0.1227 0.087645,0.20597 0.087645,0.0789 0.2541716,0.10517 l 0.7975731,0.14023 q 0.3768753,0.0657 0.5784597,0.24541 0.2059667,0.17529 0.2059667,0.45137 v 0.28485 q 0,0.2235 -0.1227036,0.39879 -0.1227036,0.17091 -0.3461993,0.26732 -0.2234958,0.0964 -0.5127256,0.0964 z"
             style="font-style:normal;font-variant:normal;font-weight:600;font-stretch:normal;font-size:4.38227px;font-family:'Bai Jamjuree';-inkscape-font-specification:'Bai Jamjuree, Semi-Bold';font-variant-ligatures:normal;font-variant-caps:normal;font-variant-numeric:normal;font-variant-east-asian:normal;stroke-width:0.328671"
             id="path868" />
          <path
             d="M 5.3844112,126.65792 H 4.4115473 v -0.44261 h 2.4584533 v 0.44261 H 5.8971367 v 2.62498 H 5.3844112 Z"
             style="font-style:normal;font-variant:normal;font-weight:600;font-stretch:normal;font-size:4.38227px;font-family:'Bai Jamjuree';-inkscape-font-specification:'Bai Jamjuree, Semi-Bold';font-variant-ligatures:normal;font-variant-caps:normal;font-variant-numeric:normal;font-variant-east-asian:normal;stroke-width:0.328671"
             id="path870" />
          <path
             d="m 7.2468681,126.21531 h 1.5819994 q 0.3768752,0 0.6091355,0.20597 0.2322603,0.20596 0.2322603,0.5434 v 0.31114 q 0,0.22788 -0.1402326,0.40317 -0.1358504,0.17091 -0.3812575,0.25417 v 0.009 q 0.1402327,0.0833 0.2234958,0.21473 0.087645,0.12709 0.1489972,0.33306 l 0.2454071,0.79319 H 9.2364186 l -0.2366425,-0.75813 q -0.05697,-0.19721 -0.1752908,-0.30238 -0.1183213,-0.10518 -0.276083,-0.10518 H 7.7595937 v 1.16569 H 7.2468681 Z m 1.4680604,1.45929 q 0.2015844,0 0.3199057,-0.10955 0.1227036,-0.10956 0.1227036,-0.28485 v -0.30238 q 0,-0.14023 -0.092028,-0.22787 -0.092028,-0.0876 -0.2454071,-0.0876 H 7.7595937 v 1.0123 z"
             style="font-style:normal;font-variant:normal;font-weight:600;font-stretch:normal;font-size:4.38227px;font-family:'Bai Jamjuree';-inkscape-font-specification:'Bai Jamjuree, Semi-Bold';font-variant-ligatures:normal;font-variant-caps:normal;font-variant-numeric:normal;font-variant-east-asian:normal;stroke-width:0.328671"
             id="path872" />
          <path
             d="m 10.555476,129.2829 q -0.170909,0 -0.276083,-0.10079 -0.100792,-0.10518 -0.100792,-0.2717 v -2.6951 h 2.248104 v 0.44261 h -1.735379 v 0.83263 h 1.603911 v 0.44699 h -1.603911 v 0.90275 h 1.735379 v 0.44261 z"
             style="font-style:normal;font-variant:normal;font-weight:600;font-stretch:normal;font-size:4.38227px;font-family:'Bai Jamjuree';-inkscape-font-specification:'Bai Jamjuree, Semi-Bold';font-variant-ligatures:normal;font-variant-caps:normal;font-variant-numeric:normal;font-variant-east-asian:normal;stroke-width:0.328671"
             id="path874" />
          <path
             d="m 14.670425,128.52477 h -1.218271 l -0.284848,0.75813 h -0.530254 l 1.191977,-3.06759 h 0.23226 q 0.236643,0 0.328671,0.23226 l 1.095567,2.83533 H 14.95089 Z m -1.073656,-0.42947 h 0.929041 l -0.460138,-1.24456 h -0.0044 z"
             style="font-style:normal;font-variant:normal;font-weight:600;font-stretch:normal;font-size:4.38227px;font-family:'Bai Jamjuree';-inkscape-font-specification:'Bai Jamjuree, Semi-Bold';font-variant-ligatures:normal;font-variant-caps:normal;font-variant-numeric:normal;font-variant-east-asian:normal;stroke-width:0.328671"
             id="path876" />
          <path
             d="m 15.827337,126.21531 h 0.46452 l 1.034216,1.89314 1.007922,-1.89314 h 0.464521 v 3.06759 h -0.503961 v -2.11664 l -0.723075,1.34098 q -0.06135,0.10517 -0.118321,0.15338 -0.05697,0.0438 -0.127086,0.0438 h -0.144615 l -0.854542,-1.53818 v 2.11664 h -0.499579 z"
             style="font-style:normal;font-variant:normal;font-weight:600;font-stretch:normal;font-size:4.38227px;font-family:'Bai Jamjuree';-inkscape-font-specification:'Bai Jamjuree, Semi-Bold';font-variant-ligatures:normal;font-variant-caps:normal;font-variant-numeric:normal;font-variant-east-asian:normal;stroke-width:0.328671"
             id="path878" />
          <path
             d="m 22.396352,128.52477 h -1.218271 l -0.284847,0.75813 h -0.530255 l 1.191978,-3.06759 h 0.23226 q 0.236642,0 0.32867,0.23226 l 1.095568,2.83533 h -0.534637 z m -1.073656,-0.42947 h 0.929041 l -0.460138,-1.24456 h -0.0044 z"
             style="font-style:normal;font-variant:normal;font-weight:600;font-stretch:normal;font-size:4.38227px;font-family:'Bai Jamjuree';-inkscape-font-specification:'Bai Jamjuree, Semi-Bold';font-variant-ligatures:normal;font-variant-caps:normal;font-variant-numeric:normal;font-variant-east-asian:normal;stroke-width:0.328671"
             id="path880" />
          <path
             d="m 24.46039,129.31796 q -0.306759,0 -0.543402,-0.13147 -0.236642,-0.13585 -0.36811,-0.37688 -0.127086,-0.2454 -0.127086,-0.56531 v -2.02899 h 0.512726 v 2.02023 q 0,0.28484 0.144614,0.46013 0.144615,0.17091 0.381258,0.17091 h 0.468903 q 0.241025,0 0.38564,-0.17091 0.148997,-0.17529 0.148997,-0.46013 v -2.02023 h 0.512725 v 2.02899 q 0,0.31991 -0.131468,0.56531 -0.131468,0.24103 -0.36811,0.37688 -0.236643,0.13147 -0.547784,0.13147 z"
             style="font-style:normal;font-variant:normal;font-weight:600;font-stretch:normal;font-size:4.38227px;font-family:'Bai Jamjuree';-inkscape-font-specification:'Bai Jamjuree, Semi-Bold';font-variant-ligatures:normal;font-variant-caps:normal;font-variant-numeric:normal;font-variant-east-asian:normal;stroke-width:0.328671"
             id="path882" />
          <path
             d="m 27.308859,126.65792 h -0.972864 v -0.44261 h 2.458453 v 0.44261 h -0.972863 v 2.62498 h -0.512726 z"
             style="font-style:normal;font-variant:normal;font-weight:600;font-stretch:normal;font-size:4.38227px;font-family:'Bai Jamjuree';-inkscape-font-specification:'Bai Jamjuree, Semi-Bold';font-variant-ligatures:normal;font-variant-caps:normal;font-variant-numeric:normal;font-variant-east-asian:normal;stroke-width:0.328671"
             id="path884" />
          <path
             d="m 30.065292,129.31796 q -0.333053,0 -0.587225,-0.14024 -0.254171,-0.14461 -0.394404,-0.40317 -0.140232,-0.26293 -0.140232,-0.60475 v -0.84139 q 0,-0.34182 0.140232,-0.60038 0.140233,-0.26293 0.394404,-0.40316 0.254172,-0.14462 0.587225,-0.14462 h 0.46452 q 0.333053,0 0.587224,0.14462 0.258554,0.14023 0.398787,0.40316 0.140233,0.25856 0.140233,0.60038 v 0.84139 q 0,0.34182 -0.140233,0.60475 -0.140233,0.25856 -0.398787,0.40317 -0.254171,0.14024 -0.587224,0.14024 z m 0.46452,-0.45138 q 0.271701,0 0.442609,-0.1972 0.170909,-0.1972 0.170909,-0.51711 v -0.80634 q 0,-0.3199 -0.170909,-0.5171 -0.166526,-0.19721 -0.442609,-0.19721 h -0.460138 q -0.276083,0 -0.446992,0.19721 -0.166526,0.1972 -0.166526,0.5171 v 0.80634 q 0,0.31991 0.166526,0.51711 0.170909,0.1972 0.446992,0.1972 z"
             style="font-style:normal;font-variant:normal;font-weight:600;font-stretch:normal;font-size:4.38227px;font-family:'Bai Jamjuree';-inkscape-font-specification:'Bai Jamjuree, Semi-Bold';font-variant-ligatures:normal;font-variant-caps:normal;font-variant-numeric:normal;font-variant-east-asian:normal;stroke-width:0.328671"
             id="path886" />
          <path
             d="m 32.164392,126.21531 h 0.460138 l 1.551324,2.24372 v -2.24372 h 0.499579 v 3.06759 h -0.464521 l -1.546941,-2.23496 v 2.23496 h -0.499579 z"
             style="font-style:normal;font-variant:normal;font-weight:600;font-stretch:normal;font-size:4.38227px;font-family:'Bai Jamjuree';-inkscape-font-specification:'Bai Jamjuree, Semi-Bold';font-variant-ligatures:normal;font-variant-caps:normal;font-variant-numeric:normal;font-variant-east-asian:normal;stroke-width:0.328671"
             id="path888" />
          <path
             d="m 36.305635,129.31796 q -0.333053,0 -0.587224,-0.14024 -0.254172,-0.14461 -0.394405,-0.40317 -0.140232,-0.26293 -0.140232,-0.60475 v -0.84139 q 0,-0.34182 0.140232,-0.60038 0.140233,-0.26293 0.394405,-0.40316 0.254171,-0.14462 0.587224,-0.14462 h 0.46452 q 0.333053,0 0.587224,0.14462 0.258554,0.14023 0.398787,0.40316 0.140233,0.25856 0.140233,0.60038 v 0.84139 q 0,0.34182 -0.140233,0.60475 -0.140233,0.25856 -0.398787,0.40317 -0.254171,0.14024 -0.587224,0.14024 z m 0.46452,-0.45138 q 0.271701,0 0.44261,-0.1972 0.170908,-0.1972 0.170908,-0.51711 v -0.80634 q 0,-0.3199 -0.170908,-0.5171 -0.166527,-0.19721 -0.44261,-0.19721 h -0.460138 q -0.276083,0 -0.446992,0.19721 -0.166526,0.1972 -0.166526,0.5171 v 0.80634 q 0,0.31991 0.166526,0.51711 0.170909,0.1972 0.446992,0.1972 z"
             style="font-style:normal;font-variant:normal;font-weight:600;font-stretch:normal;font-size:4.38227px;font-family:'Bai Jamjuree';-inkscape-font-specification:'Bai Jamjuree, Semi-Bold';font-variant-ligatures:normal;font-variant-caps:normal;font-variant-numeric:normal;font-variant-east-asian:normal;stroke-width:0.328671"
             id="path890" />
          <path
             d="m 38.404735,126.21531 h 0.464521 l 1.034215,1.89314 1.007922,-1.89314 h 0.464521 v 3.06759 h -0.503961 v -2.11664 l -0.723075,1.34098 q -0.06135,0.10517 -0.118321,0.15338 -0.05697,0.0438 -0.127086,0.0438 h -0.144615 l -0.854542,-1.53818 v 2.11664 h -0.499579 z"
             style="font-style:normal;font-variant:normal;font-weight:600;font-stretch:normal;font-size:4.38227px;font-family:'Bai Jamjuree';-inkscape-font-specification:'Bai Jamjuree, Semi-Bold';font-variant-ligatures:normal;font-variant-caps:normal;font-variant-numeric:normal;font-variant-east-asian:normal;stroke-width:0.328671"
             id="path892" />
          <path
             d="m 43.006116,129.31796 q -0.333052,0 -0.587224,-0.14024 -0.254172,-0.14461 -0.394404,-0.40317 -0.140233,-0.26293 -0.140233,-0.60475 v -0.84139 q 0,-0.34182 0.140233,-0.60038 0.140232,-0.26293 0.394404,-0.40316 0.254172,-0.14462 0.587224,-0.14462 h 0.464521 q 0.333052,0 0.587224,0.14462 0.258554,0.14023 0.398786,0.40316 0.140233,0.25856 0.140233,0.60038 v 0.84139 q 0,0.34182 -0.140233,0.60475 -0.140232,0.25856 -0.398786,0.40317 -0.254172,0.14024 -0.587224,0.14024 z m 0.464521,-0.45138 q 0.2717,0 0.442609,-0.1972 0.170909,-0.1972 0.170909,-0.51711 v -0.80634 q 0,-0.3199 -0.170909,-0.5171 -0.166526,-0.19721 -0.442609,-0.19721 h -0.460139 q -0.276083,0 -0.446991,0.19721 -0.166526,0.1972 -0.166526,0.5171 v 0.80634 q 0,0.31991 0.166526,0.51711 0.170908,0.1972 0.446991,0.1972 z"
             style="font-style:normal;font-variant:normal;font-weight:600;font-stretch:normal;font-size:4.38227px;font-family:'Bai Jamjuree';-inkscape-font-specification:'Bai Jamjuree, Semi-Bold';font-variant-ligatures:normal;font-variant-caps:normal;font-variant-numeric:normal;font-variant-east-asian:normal;stroke-width:0.328671"
             id="path894" />
          <path
             d="m 46.126282,129.31796 q -0.306759,0 -0.543402,-0.13147 -0.236642,-0.13585 -0.368111,-0.37688 -0.127085,-0.2454 -0.127085,-0.56531 v -2.02899 h 0.512725 v 2.02023 q 0,0.28484 0.144615,0.46013 0.144615,0.17091 0.381258,0.17091 h 0.468902 q 0.241025,0 0.38564,-0.17091 0.148997,-0.17529 0.148997,-0.46013 v -2.02023 h 0.512726 v 2.02899 q 0,0.31991 -0.131468,0.56531 -0.131468,0.24103 -0.368111,0.37688 -0.236642,0.13147 -0.547784,0.13147 z"
             style="font-style:normal;font-variant:normal;font-weight:600;font-stretch:normal;font-size:4.38227px;font-family:'Bai Jamjuree';-inkscape-font-specification:'Bai Jamjuree, Semi-Bold';font-variant-ligatures:normal;font-variant-caps:normal;font-variant-numeric:normal;font-variant-east-asian:normal;stroke-width:0.328671"
             id="path896" />
          <path
             d="m 49.097454,129.31796 q -0.455756,0 -0.718692,-0.26294 -0.262936,-0.26294 -0.262936,-0.71869 h 0.503961 q 0,0.2454 0.127086,0.39002 0.131468,0.14023 0.359346,0.14023 h 0.486432 q 0.214731,0 0.346199,-0.092 0.131468,-0.0964 0.131468,-0.24978 v -0.19282 q 0,-0.11833 -0.09203,-0.19721 -0.09203,-0.0789 -0.262936,-0.10955 l -0.797573,-0.13585 q -0.372493,-0.0614 -0.574077,-0.24541 -0.197202,-0.18406 -0.197202,-0.4689 V 126.934 q 0,-0.22349 0.118321,-0.3944 0.122703,-0.17091 0.341817,-0.26294 0.219113,-0.0964 0.508343,-0.0964 h 0.495197 q 0.2717,0 0.477667,0.11394 0.210349,0.10956 0.324288,0.31552 0.113939,0.20597 0.113939,0.47329 h -0.499579 q 0,-0.20159 -0.118321,-0.32429 -0.113939,-0.12709 -0.297994,-0.12709 h -0.495197 q -0.205966,0 -0.333052,0.092 -0.122704,0.0876 -0.122704,0.24103 v 0.15776 q 0,0.1227 0.08765,0.20597 0.08765,0.0789 0.254171,0.10517 l 0.797573,0.14023 q 0.376876,0.0657 0.57846,0.24541 0.205967,0.17529 0.205967,0.45137 v 0.28485 q 0,0.2235 -0.122704,0.39879 -0.122703,0.17091 -0.346199,0.26732 -0.223496,0.0964 -0.512726,0.0964 z"
             style="font-style:normal;font-variant:normal;font-weight:600;font-stretch:normal;font-size:4.38227px;font-family:'Bai Jamjuree';-inkscape-font-specification:'Bai Jamjuree, Semi-Bold';font-variant-ligatures:normal;font-variant-caps:normal;font-variant-numeric:normal;font-variant-east-asian:normal;stroke-width:0.328671"
             id="path898" />
          <path
             d="m 53.151051,129.31796 q -0.455756,0 -0.718693,-0.26294 -0.262936,-0.26294 -0.262936,-0.71869 h 0.503961 q 0,0.2454 0.127086,0.39002 0.131468,0.14023 0.359346,0.14023 h 0.486432 q 0.214731,0 0.346199,-0.092 0.131469,-0.0964 0.131469,-0.24978 v -0.19282 q 0,-0.11833 -0.09203,-0.19721 -0.09203,-0.0789 -0.262936,-0.10955 l -0.797573,-0.13585 q -0.372493,-0.0614 -0.574078,-0.24541 -0.197202,-0.18406 -0.197202,-0.4689 V 126.934 q 0,-0.22349 0.118321,-0.3944 0.122704,-0.17091 0.341817,-0.26294 0.219114,-0.0964 0.508344,-0.0964 h 0.495196 q 0.271701,0 0.477668,0.11394 0.210349,0.10956 0.324288,0.31552 0.113939,0.20597 0.113939,0.47329 h -0.499579 q 0,-0.20159 -0.118321,-0.32429 -0.113939,-0.12709 -0.297995,-0.12709 H 53.16858 q -0.205967,0 -0.333053,0.092 -0.122703,0.0876 -0.122703,0.24103 v 0.15776 q 0,0.1227 0.08765,0.20597 0.08765,0.0789 0.254172,0.10517 l 0.797573,0.14023 q 0.376875,0.0657 0.578459,0.24541 0.205967,0.17529 0.205967,0.45137 v 0.28485 q 0,0.2235 -0.122703,0.39879 -0.122704,0.17091 -0.3462,0.26732 -0.223496,0.0964 -0.512725,0.0964 z"
             style="font-style:normal;font-variant:normal;font-weight:600;font-stretch:normal;font-size:4.38227px;font-family:'Bai Jamjuree';-inkscape-font-specification:'Bai Jamjuree, Semi-Bold';font-variant-ligatures:normal;font-variant-caps:normal;font-variant-numeric:normal;font-variant-east-asian:normal;stroke-width:0.328671"
             id="path900" />
          <path
             d="m 55.872441,128.0953 -1.135008,-1.87999 h 0.556548 l 0.832631,1.41109 0.832632,-1.41109 h 0.556548 l -1.135008,1.87999 v 1.1876 h -0.508343 z"
             style="font-style:normal;font-variant:normal;font-weight:600;font-stretch:normal;font-size:4.38227px;font-family:'Bai Jamjuree';-inkscape-font-specification:'Bai Jamjuree, Semi-Bold';font-variant-ligatures:normal;font-variant-caps:normal;font-variant-numeric:normal;font-variant-east-asian:normal;stroke-width:0.328671"
             id="path902" />
          <path
             d="m 58.620113,129.31796 q -0.455756,0 -0.718692,-0.26294 -0.262936,-0.26294 -0.262936,-0.71869 h 0.503961 q 0,0.2454 0.127086,0.39002 0.131468,0.14023 0.359346,0.14023 h 0.486432 q 0.214731,0 0.346199,-0.092 0.131468,-0.0964 0.131468,-0.24978 v -0.19282 q 0,-0.11833 -0.09203,-0.19721 -0.09203,-0.0789 -0.262937,-0.10955 l -0.797573,-0.13585 q -0.372493,-0.0614 -0.574077,-0.24541 -0.197202,-0.18406 -0.197202,-0.4689 V 126.934 q 0,-0.22349 0.118321,-0.3944 0.122704,-0.17091 0.341817,-0.26294 0.219114,-0.0964 0.508344,-0.0964 h 0.495196 q 0.271701,0 0.477667,0.11394 0.210349,0.10956 0.324288,0.31552 0.113939,0.20597 0.113939,0.47329 h -0.499578 q 0,-0.20159 -0.118322,-0.32429 -0.113939,-0.12709 -0.297994,-0.12709 h -0.495196 q -0.205967,0 -0.333053,0.092 -0.122704,0.0876 -0.122704,0.24103 v 0.15776 q 0,0.1227 0.08765,0.20597 0.08765,0.0789 0.254172,0.10517 l 0.797573,0.14023 q 0.376875,0.0657 0.578459,0.24541 0.205967,0.17529 0.205967,0.45137 v 0.28485 q 0,0.2235 -0.122704,0.39879 -0.122703,0.17091 -0.346199,0.26732 -0.223496,0.0964 -0.512726,0.0964 z"
             style="font-style:normal;font-variant:normal;font-weight:600;font-stretch:normal;font-size:4.38227px;font-family:'Bai Jamjuree';-inkscape-font-specification:'Bai Jamjuree, Semi-Bold';font-variant-ligatures:normal;font-variant-caps:normal;font-variant-numeric:normal;font-variant-east-asian:normal;stroke-width:0.328671"
             id="path904" />
          <path
             d="m 61.258236,126.65792 h -0.972864 v -0.44261 h 2.458453 v 0.44261 h -0.972863 v 2.62498 h -0.512726 z"
             style="font-style:normal;font-variant:normal;font-weight:600;font-stretch:normal;font-size:4.38227px;font-family:'Bai Jamjuree';-inkscape-font-specification:'Bai Jamjuree, Semi-Bold';font-variant-ligatures:normal;font-variant-caps:normal;font-variant-numeric:normal;font-variant-east-asian:normal;stroke-width:0.328671"
             id="path906" />
          <path
             d="m 63.497568,129.2829 q -0.170909,0 -0.276083,-0.10079 -0.100792,-0.10518 -0.100792,-0.2717 v -2.6951 h 2.248104 v 0.44261 h -1.735379 v 0.83263 h 1.603911 v 0.44699 h -1.603911 v 0.90275 h 1.735379 v 0.44261 z"
             style="font-style:normal;font-variant:normal;font-weight:600;font-stretch:normal;font-size:4.38227px;font-family:'Bai Jamjuree';-inkscape-font-specification:'Bai Jamjuree, Semi-Bold';font-variant-ligatures:normal;font-variant-caps:normal;font-variant-numeric:normal;font-variant-east-asian:normal;stroke-width:0.328671"
             id="path908" />
          <path
             d="m 65.833316,126.21531 h 0.464521 l 1.034216,1.89314 1.007922,-1.89314 h 0.46452 v 3.06759 h -0.503961 v -2.11664 l -0.723074,1.34098 q -0.06135,0.10517 -0.118322,0.15338 -0.05697,0.0438 -0.127085,0.0438 h -0.144615 l -0.854543,-1.53818 v 2.11664 h -0.499579 z"
             style="font-style:normal;font-variant:normal;font-weight:600;font-stretch:normal;font-size:4.38227px;font-family:'Bai Jamjuree';-inkscape-font-specification:'Bai Jamjuree, Semi-Bold';font-variant-ligatures:normal;font-variant-caps:normal;font-variant-numeric:normal;font-variant-east-asian:normal;stroke-width:0.328671"
             id="path910" />
          <path
             d="m 70.62313,126.21531 h 2.204282 v 0.44699 h -1.691556 v 0.92466 h 1.529412 v 0.44699 h -1.529412 v 1.24895 H 70.62313 Z"
             style="font-style:normal;font-variant:normal;font-weight:600;font-stretch:normal;font-size:4.38227px;font-family:'Bai Jamjuree';-inkscape-font-specification:'Bai Jamjuree, Semi-Bold';font-variant-ligatures:normal;font-variant-caps:normal;font-variant-numeric:normal;font-variant-east-asian:normal;stroke-width:0.328671"
             id="path912" />
          <path
             d="m 74.177144,129.31796 q -0.333052,0 -0.587224,-0.14024 -0.254172,-0.14461 -0.394404,-0.40317 -0.140233,-0.26293 -0.140233,-0.60475 v -0.84139 q 0,-0.34182 0.140233,-0.60038 0.140232,-0.26293 0.394404,-0.40316 0.254172,-0.14462 0.587224,-0.14462 h 0.464521 q 0.333052,0 0.587224,0.14462 0.258554,0.14023 0.398787,0.40316 0.140232,0.25856 0.140232,0.60038 v 0.84139 q 0,0.34182 -0.140232,0.60475 -0.140233,0.25856 -0.398787,0.40317 -0.254172,0.14024 -0.587224,0.14024 z m 0.464521,-0.45138 q 0.271701,0 0.442609,-0.1972 0.170909,-0.1972 0.170909,-0.51711 v -0.80634 q 0,-0.3199 -0.170909,-0.5171 -0.166526,-0.19721 -0.442609,-0.19721 h -0.460138 q -0.276083,0 -0.446992,0.19721 -0.166526,0.1972 -0.166526,0.5171 v 0.80634 q 0,0.31991 0.166526,0.51711 0.170909,0.1972 0.446992,0.1972 z"
             style="font-style:normal;font-variant:normal;font-weight:600;font-stretch:normal;font-size:4.38227px;font-family:'Bai Jamjuree';-inkscape-font-specification:'Bai Jamjuree, Semi-Bold';font-variant-ligatures:normal;font-variant-caps:normal;font-variant-numeric:normal;font-variant-east-asian:normal;stroke-width:0.328671"
             id="path914" />
          <path
             d="m 76.276245,126.21531 h 1.581999 q 0.376875,0 0.609136,0.20597 0.23226,0.20596 0.23226,0.5434 v 0.31114 q 0,0.22788 -0.140233,0.40317 -0.13585,0.17091 -0.381257,0.25417 v 0.009 q 0.140232,0.0833 0.223495,0.21473 0.08765,0.12709 0.148998,0.33306 l 0.245407,0.79319 h -0.530255 l -0.236642,-0.75813 q -0.05697,-0.19721 -0.175291,-0.30238 -0.118322,-0.10518 -0.276083,-0.10518 H 76.78897 v 1.16569 h -0.512725 z m 1.46806,1.45929 q 0.201584,0 0.319906,-0.10955 0.122703,-0.10956 0.122703,-0.28485 v -0.30238 q 0,-0.14023 -0.09203,-0.22787 -0.09203,-0.0876 -0.245408,-0.0876 H 76.78897 v 1.0123 z"
             style="font-style:normal;font-variant:normal;font-weight:600;font-stretch:normal;font-size:4.38227px;font-family:'Bai Jamjuree';-inkscape-font-specification:'Bai Jamjuree, Semi-Bold';font-variant-ligatures:normal;font-variant-caps:normal;font-variant-numeric:normal;font-variant-east-asian:normal;stroke-width:0.328671"
             id="path916" />
          <path
             d="m 80.474448,126.21531 h 0.512726 v 3.06759 h -0.512726 z"
             style="font-style:normal;font-variant:normal;font-weight:600;font-stretch:normal;font-size:4.38227px;font-family:'Bai Jamjuree';-inkscape-font-specification:'Bai Jamjuree, Semi-Bold';font-variant-ligatures:normal;font-variant-caps:normal;font-variant-numeric:normal;font-variant-east-asian:normal;stroke-width:0.328671"
             id="path918" />
          <path
             d="m 81.626983,126.21531 h 0.460138 l 1.551324,2.24372 v -2.24372 h 0.499579 v 3.06759 h -0.464521 l -1.546941,-2.23496 v 2.23496 h -0.499579 z"
             style="font-style:normal;font-variant:normal;font-weight:600;font-stretch:normal;font-size:4.38227px;font-family:'Bai Jamjuree';-inkscape-font-specification:'Bai Jamjuree, Semi-Bold';font-variant-ligatures:normal;font-variant-caps:normal;font-variant-numeric:normal;font-variant-east-asian:normal;stroke-width:0.328671"
             id="path920" />
          <path
             d="m 84.734008,126.21531 h 2.204282 v 0.44699 h -1.691556 v 0.92466 h 1.529412 v 0.44699 h -1.529412 v 1.24895 h -0.512726 z"
             style="font-style:normal;font-variant:normal;font-weight:600;font-stretch:normal;font-size:4.38227px;font-family:'Bai Jamjuree';-inkscape-font-specification:'Bai Jamjuree, Semi-Bold';font-variant-ligatures:normal;font-variant-caps:normal;font-variant-numeric:normal;font-variant-east-asian:normal;stroke-width:0.328671"
             id="path922" />
          <path
             d="m 88.28803,129.31796 q -0.333053,0 -0.587224,-0.14024 -0.254172,-0.14461 -0.394405,-0.40317 -0.140232,-0.26293 -0.140232,-0.60475 v -0.84139 q 0,-0.34182 0.140232,-0.60038 0.140233,-0.26293 0.394405,-0.40316 0.254171,-0.14462 0.587224,-0.14462 h 0.46452 q 0.333053,0 0.587225,0.14462 0.258554,0.14023 0.398786,0.40316 0.140233,0.25856 0.140233,0.60038 v 0.84139 q 0,0.34182 -0.140233,0.60475 -0.140232,0.25856 -0.398786,0.40317 -0.254172,0.14024 -0.587225,0.14024 z m 0.46452,-0.45138 q 0.271701,0 0.44261,-0.1972 0.170908,-0.1972 0.170908,-0.51711 v -0.80634 q 0,-0.3199 -0.170908,-0.5171 -0.166527,-0.19721 -0.44261,-0.19721 h -0.460138 q -0.276083,0 -0.446991,0.19721 -0.166527,0.1972 -0.166527,0.5171 v 0.80634 q 0,0.31991 0.166527,0.51711 0.170908,0.1972 0.446991,0.1972 z"
             style="font-style:normal;font-variant:normal;font-weight:600;font-stretch:normal;font-size:4.38227px;font-family:'Bai Jamjuree';-inkscape-font-specification:'Bai Jamjuree, Semi-Bold';font-variant-ligatures:normal;font-variant-caps:normal;font-variant-numeric:normal;font-variant-east-asian:normal;stroke-width:0.328671"
             id="path924" />
          <path
             d="m 90.387123,126.21531 h 1.581999 q 0.376875,0 0.609136,0.20597 0.23226,0.20596 0.23226,0.5434 v 0.31114 q 0,0.22788 -0.140233,0.40317 -0.13585,0.17091 -0.381257,0.25417 v 0.009 q 0.140232,0.0833 0.223495,0.21473 0.08765,0.12709 0.148998,0.33306 l 0.245407,0.79319 h -0.530255 l -0.236642,-0.75813 q -0.05697,-0.19721 -0.175291,-0.30238 -0.118322,-0.10518 -0.276083,-0.10518 h -0.788809 v 1.16569 h -0.512725 z m 1.46806,1.45929 q 0.201584,0 0.319906,-0.10955 0.122703,-0.10956 0.122703,-0.28485 v -0.30238 q 0,-0.14023 -0.09203,-0.22787 -0.09203,-0.0876 -0.245408,-0.0876 h -1.060509 v 1.0123 z"
             style="font-style:normal;font-variant:normal;font-weight:600;font-stretch:normal;font-size:4.38227px;font-family:'Bai Jamjuree';-inkscape-font-specification:'Bai Jamjuree, Semi-Bold';font-variant-ligatures:normal;font-variant-caps:normal;font-variant-numeric:normal;font-variant-east-asian:normal;stroke-width:0.328671"
             id="path926" />
          <path
             d="m 93.318862,126.21531 h 0.464521 l 1.034216,1.89314 1.007922,-1.89314 h 0.46452 v 3.06759 H 95.78608 v -2.11664 l -0.723074,1.34098 q -0.06135,0.10517 -0.118321,0.15338 -0.05697,0.0438 -0.127086,0.0438 h -0.144615 l -0.854543,-1.53818 v 2.11664 h -0.499579 z"
             style="font-style:normal;font-variant:normal;font-weight:600;font-stretch:normal;font-size:4.38227px;font-family:'Bai Jamjuree';-inkscape-font-specification:'Bai Jamjuree, Semi-Bold';font-variant-ligatures:normal;font-variant-caps:normal;font-variant-numeric:normal;font-variant-east-asian:normal;stroke-width:0.328671"
             id="path928" />
          <path
             d="m 98.665226,128.52477 h -1.218271 l -0.284848,0.75813 h -0.530255 l 1.191978,-3.06759 h 0.23226 q 0.236643,0 0.32867,0.23226 l 1.095568,2.83533 h -0.534637 z m -1.073657,-0.42947 h 0.929042 l -0.460139,-1.24456 h -0.0044 z"
             style="font-style:normal;font-variant:normal;font-weight:600;font-stretch:normal;font-size:4.38227px;font-family:'Bai Jamjuree';-inkscape-font-specification:'Bai Jamjuree, Semi-Bold';font-variant-ligatures:normal;font-variant-caps:normal;font-variant-numeric:normal;font-variant-east-asian:normal;stroke-width:0.328671"
             id="path930" />
          <path
             d="m 100.13765,126.65792 h -0.97286 v -0.44261 h 2.45845 v 0.44261 h -0.97286 v 2.62498 h -0.51273 z"
             style="font-style:normal;font-variant:normal;font-weight:600;font-stretch:normal;font-size:4.38227px;font-family:'Bai Jamjuree';-inkscape-font-specification:'Bai Jamjuree, Semi-Bold';font-variant-ligatures:normal;font-variant-caps:normal;font-variant-numeric:normal;font-variant-east-asian:normal;stroke-width:0.328671"
             id="path932" />
          <path
             d="m 102.04394,126.21531 h 0.51272 v 3.06759 h -0.51272 z"
             style="font-style:normal;font-variant:normal;font-weight:600;font-stretch:normal;font-size:4.38227px;font-family:'Bai Jamjuree';-inkscape-font-specification:'Bai Jamjuree, Semi-Bold';font-variant-ligatures:normal;font-variant-caps:normal;font-variant-numeric:normal;font-variant-east-asian:normal;stroke-width:0.328671"
             id="path934" />
          <path
             d="m 104.23069,129.31796 q -0.33306,0 -0.58723,-0.14024 -0.25417,-0.14461 -0.3944,-0.40317 -0.14023,-0.26293 -0.14023,-0.60475 v -0.84139 q 0,-0.34182 0.14023,-0.60038 0.14023,-0.26293 0.3944,-0.40316 0.25417,-0.14462 0.58723,-0.14462 h 0.46452 q 0.33305,0 0.58722,0.14462 0.25856,0.14023 0.39879,0.40316 0.14023,0.25856 0.14023,0.60038 v 0.84139 q 0,0.34182 -0.14023,0.60475 -0.14023,0.25856 -0.39879,0.40317 -0.25417,0.14024 -0.58722,0.14024 z m 0.46452,-0.45138 q 0.2717,0 0.44261,-0.1972 0.17091,-0.1972 0.17091,-0.51711 v -0.80634 q 0,-0.3199 -0.17091,-0.5171 -0.16653,-0.19721 -0.44261,-0.19721 h -0.46014 q -0.27608,0 -0.44699,0.19721 -0.16653,0.1972 -0.16653,0.5171 v 0.80634 q 0,0.31991 0.16653,0.51711 0.17091,0.1972 0.44699,0.1972 z"
             style="font-style:normal;font-variant:normal;font-weight:600;font-stretch:normal;font-size:4.38227px;font-family:'Bai Jamjuree';-inkscape-font-specification:'Bai Jamjuree, Semi-Bold';font-variant-ligatures:normal;font-variant-caps:normal;font-variant-numeric:normal;font-variant-east-asian:normal;stroke-width:0.328671"
             id="path936" />
          <path
             d="m 106.32978,126.21531 h 0.46014 l 1.55132,2.24372 v -2.24372 h 0.49958 v 3.06759 h -0.46452 l -1.54694,-2.23496 v 2.23496 h -0.49958 z"
             style="font-style:normal;font-variant:normal;font-weight:600;font-stretch:normal;font-size:4.38227px;font-family:'Bai Jamjuree';-inkscape-font-specification:'Bai Jamjuree, Semi-Bold';font-variant-ligatures:normal;font-variant-caps:normal;font-variant-numeric:normal;font-variant-east-asian:normal;stroke-width:0.328671"
             id="path938" />
          <path
             d="m 112.43866,128.52477 h -1.21827 l -0.28485,0.75813 h -0.53025 l 1.19198,-3.06759 h 0.23226 q 0.23664,0 0.32867,0.23226 l 1.09557,2.83533 h -0.53464 z m -1.07365,-0.42947 h 0.92904 l -0.46014,-1.24456 h -0.004 z"
             style="font-style:normal;font-variant:normal;font-weight:600;font-stretch:normal;font-size:4.38227px;font-family:'Bai Jamjuree';-inkscape-font-specification:'Bai Jamjuree, Semi-Bold';font-variant-ligatures:normal;font-variant-caps:normal;font-variant-numeric:normal;font-variant-east-asian:normal;stroke-width:0.328671"
             id="path940" />
          <path
             d="m 114.5027,129.31796 q -0.30676,0 -0.5434,-0.13147 -0.23665,-0.13585 -0.36812,-0.37688 -0.12708,-0.2454 -0.12708,-0.56531 v -2.02899 h 0.51272 v 2.02023 q 0,0.28484 0.14462,0.46013 0.14461,0.17091 0.38126,0.17091 h 0.4689 q 0.24102,0 0.38564,-0.17091 0.149,-0.17529 0.149,-0.46013 v -2.02023 h 0.51272 v 2.02899 q 0,0.31991 -0.13147,0.56531 -0.13146,0.24103 -0.36811,0.37688 -0.23664,0.13147 -0.54778,0.13147 z"
             style="font-style:normal;font-variant:normal;font-weight:600;font-stretch:normal;font-size:4.38227px;font-family:'Bai Jamjuree';-inkscape-font-specification:'Bai Jamjuree, Semi-Bold';font-variant-ligatures:normal;font-variant-caps:normal;font-variant-numeric:normal;font-variant-east-asian:normal;stroke-width:0.328671"
             id="path942" />
          <path
             d="m 117.35117,126.65792 h -0.97286 v -0.44261 h 2.45845 v 0.44261 h -0.97286 v 2.62498 h -0.51273 z"
             style="font-style:normal;font-variant:normal;font-weight:600;font-stretch:normal;font-size:4.38227px;font-family:'Bai Jamjuree';-inkscape-font-specification:'Bai Jamjuree, Semi-Bold';font-variant-ligatures:normal;font-variant-caps:normal;font-variant-numeric:normal;font-variant-east-asian:normal;stroke-width:0.328671"
             id="path944" />
          <path
             d="m 119.21363,126.21531 h 0.51273 v 1.30153 h 1.51626 v -1.30153 h 0.50834 v 3.06759 h -0.50834 v -1.31907 h -1.51626 v 1.31907 h -0.51273 z"
             style="font-style:normal;font-variant:normal;font-weight:600;font-stretch:normal;font-size:4.38227px;font-family:'Bai Jamjuree';-inkscape-font-specification:'Bai Jamjuree, Semi-Bold';font-variant-ligatures:normal;font-variant-caps:normal;font-variant-numeric:normal;font-variant-east-asian:normal;stroke-width:0.328671"
             id="path946" />
          <path
             d="m 123.38115,129.31796 q -0.33305,0 -0.58722,-0.14024 -0.25417,-0.14461 -0.3944,-0.40317 -0.14024,-0.26293 -0.14024,-0.60475 v -0.84139 q 0,-0.34182 0.14024,-0.60038 0.14023,-0.26293 0.3944,-0.40316 0.25417,-0.14462 0.58722,-0.14462 h 0.46452 q 0.33306,0 0.58723,0.14462 0.25855,0.14023 0.39879,0.40316 0.14023,0.25856 0.14023,0.60038 v 0.84139 q 0,0.34182 -0.14023,0.60475 -0.14024,0.25856 -0.39879,0.40317 -0.25417,0.14024 -0.58723,0.14024 z m 0.46452,-0.45138 q 0.27171,0 0.44261,-0.1972 0.17091,-0.1972 0.17091,-0.51711 v -0.80634 q 0,-0.3199 -0.17091,-0.5171 -0.16652,-0.19721 -0.44261,-0.19721 h -0.46013 q -0.27609,0 -0.44699,0.19721 -0.16653,0.1972 -0.16653,0.5171 v 0.80634 q 0,0.31991 0.16653,0.51711 0.1709,0.1972 0.44699,0.1972 z"
             style="font-style:normal;font-variant:normal;font-weight:600;font-stretch:normal;font-size:4.38227px;font-family:'Bai Jamjuree';-inkscape-font-specification:'Bai Jamjuree, Semi-Bold';font-variant-ligatures:normal;font-variant-caps:normal;font-variant-numeric:normal;font-variant-east-asian:normal;stroke-width:0.328671"
             id="path948" />
          <path
             d="m 125.48025,126.21531 h 1.582 q 0.37688,0 0.60914,0.20597 0.23226,0.20596 0.23226,0.5434 v 0.31114 q 0,0.22788 -0.14023,0.40317 -0.13585,0.17091 -0.38126,0.25417 v 0.009 q 0.14023,0.0833 0.2235,0.21473 0.0876,0.12709 0.14899,0.33306 l 0.24541,0.79319 h -0.53025 l -0.23665,-0.75813 q -0.057,-0.19721 -0.17529,-0.30238 -0.11832,-0.10518 -0.27608,-0.10518 h -0.78881 v 1.16569 h -0.51273 z m 1.46807,1.45929 q 0.20158,0 0.3199,-0.10955 0.1227,-0.10956 0.1227,-0.28485 v -0.30238 q 0,-0.14023 -0.092,-0.22787 -0.092,-0.0876 -0.24541,-0.0876 h -1.06051 v 1.0123 z"
             style="font-style:normal;font-variant:normal;font-weight:600;font-stretch:normal;font-size:4.38227px;font-family:'Bai Jamjuree';-inkscape-font-specification:'Bai Jamjuree, Semi-Bold';font-variant-ligatures:normal;font-variant-caps:normal;font-variant-numeric:normal;font-variant-east-asian:normal;stroke-width:0.328671"
             id="path950" />
          <path
             d="m 128.45581,126.21531 h 0.51273 v 3.06759 h -0.51273 z"
             style="font-style:normal;font-variant:normal;font-weight:600;font-stretch:normal;font-size:4.38227px;font-family:'Bai Jamjuree';-inkscape-font-specification:'Bai Jamjuree, Semi-Bold';font-variant-ligatures:normal;font-variant-caps:normal;font-variant-numeric:normal;font-variant-east-asian:normal;stroke-width:0.328671"
             id="path952" />
          <path
             d="m 130.36209,126.65792 h -0.97286 v -0.44261 h 2.45845 v 0.44261 h -0.97286 v 2.62498 h -0.51273 z"
             style="font-style:normal;font-variant:normal;font-weight:600;font-stretch:normal;font-size:4.38227px;font-family:'Bai Jamjuree';-inkscape-font-specification:'Bai Jamjuree, Semi-Bold';font-variant-ligatures:normal;font-variant-caps:normal;font-variant-numeric:normal;font-variant-east-asian:normal;stroke-width:0.328671"
             id="path954" />
          <path
             d="m 133.0791,128.0953 -1.13501,-1.87999 h 0.55655 l 0.83263,1.41109 0.83263,-1.41109 h 0.55655 l -1.13501,1.87999 v 1.1876 h -0.50834 z"
             style="font-style:normal;font-variant:normal;font-weight:600;font-stretch:normal;font-size:4.38227px;font-family:'Bai Jamjuree';-inkscape-font-specification:'Bai Jamjuree, Semi-Bold';font-variant-ligatures:normal;font-variant-caps:normal;font-variant-numeric:normal;font-variant-east-asian:normal;stroke-width:0.328671"
             id="path956" />
        </g>
      </g>
    </g>
  </g>
</svg>
