<?xml version="1.0" encoding="UTF-8" standalone="no"?>
<svg
   xmlns:dc="http://purl.org/dc/elements/1.1/"
   xmlns:cc="http://creativecommons.org/ns#"
   xmlns:rdf="http://www.w3.org/1999/02/22-rdf-syntax-ns#"
   xmlns:svg="http://www.w3.org/2000/svg"
   xmlns="http://www.w3.org/2000/svg"
   xmlns:sodipodi="http://sodipodi.sourceforge.net/DTD/sodipodi-0.dtd"
   xmlns:inkscape="http://www.inkscape.org/namespaces/inkscape"
   width="1156mm"
   height="138mm"
   viewBox="0 0 1156 138"
   version="1.1"
   id="svg8"
   inkscape:version="1.0.1 (3bc2e813f5, 2020-09-07)"
   sodipodi:docname="white_red_00.svg">
  <defs
     id="defs2">
    <pattern
       id="EMFhbasepattern"
       patternUnits="userSpaceOnUse"
       width="6"
       height="6"
       x="0"
       y="0" />
  </defs>
  <sodipodi:namedview
     id="base"
     pagecolor="#ffffff"
     bordercolor="#666666"
     borderopacity="1.0"
     inkscape:pageopacity="0.0"
     inkscape:pageshadow="2"
     inkscape:zoom="1.4"
     inkscape:cx="4171.5621"
     inkscape:cy="127.08006"
     inkscape:document-units="mm"
     inkscape:current-layer="layer1"
     inkscape:document-rotation="0"
     showgrid="false"
     inkscape:window-width="1920"
     inkscape:window-height="1027"
     inkscape:window-x="-8"
     inkscape:window-y="-8"
     inkscape:window-maximized="1"
     inkscape:snap-text-baseline="true" />
  <metadata
     id="metadata5">
    <rdf:RDF>
      <cc:Work
         rdf:about="">
        <dc:format>image/svg+xml</dc:format>
        <dc:type
           rdf:resource="http://purl.org/dc/dcmitype/StillImage" />
        <dc:title />
      </cc:Work>
    </rdf:RDF>
  </metadata>
  <g
     inkscape:label="Warstwa 1"
     inkscape:groupmode="layer"
     id="layer1">
    <g
       id="g1025"
       transform="matrix(5.6470219,0,0,5.6470219,-15.828691,-866.77632)">
      <g
         aria-label="STASIA.IO/RED"
         id="text21-8-4-1"
         style="font-style:normal;font-variant:normal;font-weight:700;font-size:28.2276px;line-height:125%;font-family:'Gill Sans MT';text-align:start;letter-spacing:0px;word-spacing:0px;text-anchor:start;fill:#000000;fill-opacity:1;stroke:none;stroke-width:0.264583">
        <path
           d="m 9.4283216,174.12386 q -3.1050689,0 -4.8551987,-1.7219 -1.7501298,-1.75013 -1.7501298,-4.8552 h 3.8389944 q 0,1.46785 0.7339254,2.31469 0.7621532,0.81861 2.0888645,0.81861 h 3.1332966 q 1.242028,0 2.004181,-0.5081 0.790381,-0.53633 0.790381,-1.4114 v -0.95975 q 0,-1.38316 -2.032408,-1.7219 l -5.193934,-0.87506 q -2.5405109,-0.42342 -3.8672222,-1.60899 -1.2984834,-1.2138 -1.2984834,-3.07684 v -1.58077 q 0,-1.49607 0.7903812,-2.62519 0.8186091,-1.15734 2.2864599,-1.77836 1.4960787,-0.62101 3.4438037,-0.62101 h 3.1897528 q 1.834813,0 3.246208,0.76215 1.411395,0.76215 2.173549,2.14532 0.790381,1.35494 0.790381,3.16153 h -3.838995 q 0,-1.18558 -0.649241,-1.89127 -0.649242,-0.73393 -1.721902,-0.73393 H 9.5412332 q -1.1855718,0 -1.9194971,0.5081 -0.7056975,0.50811 -0.7056975,1.35494 v 0.76216 q 0,1.41139 1.947725,1.75013 l 5.1657054,0.90329 q 2.568739,0.45165 3.923678,1.60899 1.354939,1.12912 1.354939,2.9357 v 1.86304 q 0,1.49608 -0.846837,2.65342 -0.818609,1.15735 -2.314687,1.80659 -1.496079,0.62101 -3.472032,0.62101 z"
           style="font-style:normal;font-variant:normal;font-weight:bold;font-stretch:normal;font-size:28.2279px;font-family:'Bai Jamjuree';-inkscape-font-specification:'Bai Jamjuree, Bold';font-variant-ligatures:normal;font-variant-caps:normal;font-variant-numeric:normal;font-variant-east-asian:normal;fill:#cccccc;stroke-width:0.264583"
           id="path841" />
        <path
           d="m 26.421446,157.52586 h -6.266594 v -3.38735 H 36.58349 v 3.38735 h -6.266594 v 16.37218 h -3.89545 z"
           style="font-style:normal;font-variant:normal;font-weight:bold;font-stretch:normal;font-size:28.2279px;font-family:'Bai Jamjuree';-inkscape-font-specification:'Bai Jamjuree, Bold';font-variant-ligatures:normal;font-variant-caps:normal;font-variant-numeric:normal;font-variant-east-asian:normal;fill:#cccccc;stroke-width:0.264583"
           id="path843" />
        <path
           d="m 47.422962,169.29689 h -7.39571 l -1.75013,4.60115 h -4.064817 l 7.734444,-19.75953 h 1.75013 q 1.834813,0 2.484055,1.69368 l 7.028747,18.06585 h -4.064818 z m -6.351278,-3.27443 h 5.306845 l -2.625194,-7.11343 h -0.02823 z"
           style="font-style:normal;font-variant:normal;font-weight:bold;font-stretch:normal;font-size:28.2279px;font-family:'Bai Jamjuree';-inkscape-font-specification:'Bai Jamjuree, Bold';font-variant-ligatures:normal;font-variant-caps:normal;font-variant-numeric:normal;font-variant-east-asian:normal;fill:#cccccc;stroke-width:0.264583"
           id="path845" />
        <path
           d="m 60.492431,174.12386 q -3.105069,0 -4.855198,-1.7219 -1.75013,-1.75013 -1.75013,-4.8552 h 3.838994 q 0,1.46785 0.733926,2.31469 0.762153,0.81861 2.088864,0.81861 h 3.133297 q 1.242028,0 2.004181,-0.5081 0.790381,-0.53633 0.790381,-1.4114 v -0.95975 q 0,-1.38316 -2.032409,-1.7219 l -5.193933,-0.87506 q -2.540511,-0.42342 -3.867222,-1.60899 -1.298484,-1.2138 -1.298484,-3.07684 v -1.58077 q 0,-1.49607 0.790381,-2.62519 0.81861,-1.15734 2.28646,-1.77836 1.496079,-0.62101 3.443804,-0.62101 h 3.189753 q 1.834813,0 3.246208,0.76215 1.411395,0.76215 2.173548,2.14532 0.790382,1.35494 0.790382,3.16153 h -3.838995 q 0,-1.18558 -0.649241,-1.89127 -0.649242,-0.73393 -1.721902,-0.73393 h -3.189753 q -1.185572,0 -1.919497,0.5081 -0.705698,0.50811 -0.705698,1.35494 v 0.76216 q 0,1.41139 1.947725,1.75013 l 5.165706,0.90329 q 2.568739,0.45165 3.923678,1.60899 1.354939,1.12912 1.354939,2.9357 v 1.86304 q 0,1.49608 -0.846837,2.65342 -0.818609,1.15735 -2.314687,1.80659 -1.496079,0.62101 -3.472032,0.62101 z"
           style="font-style:normal;font-variant:normal;font-weight:bold;font-stretch:normal;font-size:28.2279px;font-family:'Bai Jamjuree';-inkscape-font-specification:'Bai Jamjuree, Bold';font-variant-ligatures:normal;font-variant-caps:normal;font-variant-numeric:normal;font-variant-east-asian:normal;fill:#cccccc;stroke-width:0.264583"
           id="path847" />
        <path
           d="m 73.3643,154.13851 h 3.89545 v 19.75953 H 73.3643 Z"
           style="font-style:normal;font-variant:normal;font-weight:bold;font-stretch:normal;font-size:28.2279px;font-family:'Bai Jamjuree';-inkscape-font-specification:'Bai Jamjuree, Bold';font-variant-ligatures:normal;font-variant-caps:normal;font-variant-numeric:normal;font-variant-east-asian:normal;fill:#cccccc;stroke-width:0.264583"
           id="path849" />
        <path
           d="m 92.615718,169.29689 h -7.395709 l -1.75013,4.60115 h -4.064818 l 7.734445,-19.75953 h 1.75013 q 1.834813,0 2.484055,1.69368 l 7.028747,18.06585 H 94.33762 Z m -6.351277,-3.27443 h 5.306845 l -2.625195,-7.11343 h -0.02823 z"
           style="font-style:normal;font-variant:normal;font-weight:bold;font-stretch:normal;font-size:28.2279px;font-family:'Bai Jamjuree';-inkscape-font-specification:'Bai Jamjuree, Bold';font-variant-ligatures:normal;font-variant-caps:normal;font-variant-numeric:normal;font-variant-east-asian:normal;fill:#cccccc;stroke-width:0.264583"
           id="path851" />
        <path
           d="m 101.90269,174.18032 q -1.04443,0 -1.69368,-0.62101 -0.62101,-0.64925 -0.62101,-1.69368 0,-1.04443 0.62101,-1.66544 0.64925,-0.64925 1.69368,-0.64925 1.04443,0 1.66544,0.64925 0.64925,0.62101 0.64925,1.66544 0,1.04443 -0.64925,1.69368 -0.62101,0.62101 -1.66544,0.62101 z"
           style="font-style:normal;font-variant:normal;font-weight:bold;font-stretch:normal;font-size:28.2279px;font-family:'Bai Jamjuree';-inkscape-font-specification:'Bai Jamjuree, Bold';font-variant-ligatures:normal;font-variant-caps:normal;font-variant-numeric:normal;font-variant-east-asian:normal;fill:#cccccc;stroke-width:0.264583"
           id="path853" />
        <path
           d="m 110.66269,154.13851 h 3.89545 v 19.75953 h -3.89545 z"
           style="fill:#999999"
           id="path855" />
        <path
           d="m 125.31296,174.12386 q -2.23001,0 -3.95191,-0.93152 -1.69367,-0.95975 -2.65342,-2.65342 -0.93152,-1.7219 -0.93152,-3.98013 v -5.08103 q 0,-2.25823 0.93152,-3.9519 0.95975,-1.7219 2.65342,-2.65342 1.7219,-0.95975 3.95191,-0.95975 h 2.99215 q 2.23001,0 3.92368,0.95975 1.7219,0.93152 2.65342,2.65342 0.95975,1.69367 0.95975,3.9519 v 5.08103 q 0,2.25823 -0.95975,3.98013 -0.93152,1.69367 -2.65342,2.65342 -1.69367,0.93152 -3.92368,0.93152 z m 2.99215,-3.4438 q 1.63722,0 2.6252,-1.18557 1.0162,-1.18557 1.0162,-3.10507 v -4.74229 q 0,-1.91949 -1.0162,-3.10507 -0.98798,-1.18557 -2.6252,-1.18557 h -2.99215 q -1.63722,0 -2.65343,1.18557 -0.98797,1.18558 -0.98797,3.10507 v 4.74229 q 0,1.9195 0.98797,3.10507 1.01621,1.18557 2.65343,1.18557 z"
           style="fill:#999999"
           id="path857" />
        <path
           d="m 147.41535,153.5175 h 3.89545 l -10.61369,21.08624 h -3.89545 z"
           style="fill:#999999"
           id="path859" />
        <path
           d="m 153.56901,154.13851 h 10.50077 q 2.56874,0 4.12128,1.38317 1.58076,1.38317 1.58076,3.6414 v 1.97595 q 0,1.46785 -0.84684,2.56874 -0.81861,1.07266 -2.39937,1.63722 v 0.0565 q 0.90329,0.59279 1.35494,1.35494 0.47987,0.76216 0.93152,2.11709 l 1.58076,5.02457 h -4.03659 l -1.49607,-4.68583 q -0.36697,-1.2138 -1.01621,-1.80659 -0.64924,-0.59278 -1.60899,-0.59278 h -4.77051 v 7.0852 h -3.89545 z m 9.76685,9.31521 q 1.18557,0 1.86304,-0.62102 0.67747,-0.64924 0.67747,-1.66544 v -1.83482 q 0,-0.8186 -0.5081,-1.29848 -0.5081,-0.5081 -1.35494,-0.5081 h -6.54887 v 5.92786 z"
           style="fill:#d40000"
           id="path861" />
        <path
           d="m 175.44562,173.89804 q -1.2138,0 -1.97596,-0.73392 -0.76215,-0.73393 -0.76215,-1.9195 v -17.10611 h 15.0737 v 3.38735 h -11.17825 v 4.57292 h 10.33141 v 3.38735 h -10.33141 v 5.02456 h 11.17825 v 3.38735 z"
           style="fill:#d40000"
           id="path863" />
        <path
           d="m 193.1727,173.89804 q -1.2138,0 -1.97596,-0.73392 -0.76215,-0.73393 -0.76215,-1.9195 v -17.10611 h 9.42812 q 2.25823,0 3.9519,0.84684 1.72191,0.84684 2.65343,2.39937 0.95975,1.55253 0.95975,3.58494 v 5.53267 q 0,3.6414 -1.89127,5.53267 -1.89127,1.86304 -5.5609,1.86304 z m 6.69001,-3.4438 q 1.80658,0 2.73811,-1.04444 0.93152,-1.04443 0.93152,-3.07684 v -5.19393 q 0,-1.60899 -1.04444,-2.56874 -1.04443,-0.98798 -2.7381,-0.98798 h -5.41976 v 12.87193 z"
           style="fill:#d40000"
           id="path865" />
      </g>
      <g
         aria-label="STREAM AUTONOMOUS SYSTEM FOR INFORMATION AUTHORITY
"
         id="text39-6-9"
         style="font-weight:bold;font-size:35.0652px;line-height:1.25;font-family:'Bai Jamjuree';-inkscape-font-specification:'Bai Jamjuree, Bold';fill:#cccccc;stroke-width:0.328671">
        <path
           d="m 3.8046218,177.89134 q -0.4557561,0 -0.7186923,-0.26294 -0.2629362,-0.26294 -0.2629362,-0.71869 h 0.5039611 q 0,0.2454 0.1270858,0.39002 0.1314681,0.14023 0.3593461,0.14023 h 0.486432 q 0.2147312,0 0.3461993,-0.092 0.1314681,-0.0964 0.1314681,-0.24979 v -0.19282 q 0,-0.11832 -0.092028,-0.1972 -0.092028,-0.0789 -0.2629362,-0.10955 l -0.7975731,-0.13585 q -0.3724929,-0.0614 -0.5740773,-0.24541 -0.1972022,-0.18406 -0.1972022,-0.4689 v -0.24103 q 0,-0.22349 0.1183213,-0.3944 0.1227035,-0.17091 0.341817,-0.26294 0.2191135,-0.0964 0.5083433,-0.0964 h 0.4951965 q 0.2717008,0 0.4776675,0.11394 0.2103489,0.10956 0.3242879,0.31552 0.113939,0.20597 0.113939,0.47329 H 4.733663 q 0,-0.20159 -0.1183213,-0.32429 Q 4.5014027,175.205 4.3173473,175.205 H 3.8221508 q -0.2059666,0 -0.3330525,0.092 -0.1227035,0.0876 -0.1227035,0.24103 v 0.15776 q 0,0.1227 0.087645,0.20597 0.087645,0.0789 0.2541716,0.10517 l 0.7975731,0.14023 q 0.3768753,0.0657 0.5784597,0.24541 0.2059666,0.17529 0.2059666,0.45137 v 0.28485 q 0,0.2235 -0.1227035,0.39879 -0.1227036,0.17091 -0.3461993,0.26732 -0.2234958,0.0964 -0.5127256,0.0964 z"
           style="font-style:normal;font-variant:normal;font-weight:600;font-stretch:normal;font-size:4.38227px;font-family:'Bai Jamjuree';-inkscape-font-specification:'Bai Jamjuree, Semi-Bold';font-variant-ligatures:normal;font-variant-caps:normal;font-variant-numeric:normal;font-variant-east-asian:normal;fill:#000000;fill-opacity:1;stroke-width:0.328671"
           id="path868" />
        <path
           d="M 6.4427446,175.2313 H 5.4698807 v -0.44261 H 7.928334 v 0.44261 H 6.9554701 v 2.62498 H 6.4427446 Z"
           style="font-style:normal;font-variant:normal;font-weight:600;font-stretch:normal;font-size:4.38227px;font-family:'Bai Jamjuree';-inkscape-font-specification:'Bai Jamjuree, Semi-Bold';font-variant-ligatures:normal;font-variant-caps:normal;font-variant-numeric:normal;font-variant-east-asian:normal;fill:#000000;fill-opacity:1;stroke-width:0.328671"
           id="path870" />
        <path
           d="m 8.3052015,174.78869 h 1.5819994 q 0.3768751,0 0.6091351,0.20597 0.232261,0.20596 0.232261,0.5434 v 0.31114 q 0,0.22788 -0.140233,0.40317 -0.13585,0.17091 -0.381257,0.25417 v 0.009 q 0.140232,0.0833 0.223495,0.21473 0.08765,0.12709 0.148998,0.33306 l 0.245407,0.79319 h -0.530255 l -0.236643,-0.75814 q -0.05697,-0.1972 -0.1752903,-0.30237 -0.1183213,-0.10518 -0.276083,-0.10518 H 8.8179271 v 1.16569 H 8.3052015 Z m 1.4680604,1.45929 q 0.2015844,0 0.3199061,-0.10955 0.122703,-0.10956 0.122703,-0.28485 v -0.30238 q 0,-0.14023 -0.09203,-0.22787 -0.09203,-0.0876 -0.2454066,-0.0876 H 8.8179271 v 1.0123 z"
           style="font-style:normal;font-variant:normal;font-weight:600;font-stretch:normal;font-size:4.38227px;font-family:'Bai Jamjuree';-inkscape-font-specification:'Bai Jamjuree, Semi-Bold';font-variant-ligatures:normal;font-variant-caps:normal;font-variant-numeric:normal;font-variant-east-asian:normal;fill:#000000;fill-opacity:1;stroke-width:0.328671"
           id="path872" />
        <path
           d="m 11.613809,177.85628 q -0.170908,0 -0.276083,-0.10079 -0.100792,-0.10518 -0.100792,-0.27171 v -2.69509 h 2.248105 v 0.44261 H 11.74966 v 0.83263 h 1.603911 v 0.44699 H 11.74966 v 0.90275 h 1.735379 v 0.44261 z"
           style="font-style:normal;font-variant:normal;font-weight:600;font-stretch:normal;font-size:4.38227px;font-family:'Bai Jamjuree';-inkscape-font-specification:'Bai Jamjuree, Semi-Bold';font-variant-ligatures:normal;font-variant-caps:normal;font-variant-numeric:normal;font-variant-east-asian:normal;fill:#000000;fill-opacity:1;stroke-width:0.328671"
           id="path874" />
        <path
           d="m 15.728758,177.09814 h -1.218271 l -0.284847,0.75814 h -0.530255 l 1.191978,-3.06759 h 0.23226 q 0.236642,0 0.32867,0.23226 l 1.095568,2.83533 h -0.534637 z m -1.073656,-0.42946 h 0.929041 l -0.460138,-1.24456 h -0.0044 z"
           style="font-style:normal;font-variant:normal;font-weight:600;font-stretch:normal;font-size:4.38227px;font-family:'Bai Jamjuree';-inkscape-font-specification:'Bai Jamjuree, Semi-Bold';font-variant-ligatures:normal;font-variant-caps:normal;font-variant-numeric:normal;font-variant-east-asian:normal;fill:#000000;fill-opacity:1;stroke-width:0.328671"
           id="path876" />
        <path
           d="m 16.88567,174.78869 h 0.464521 l 1.034215,1.89314 1.007923,-1.89314 h 0.46452 v 3.06759 h -0.503961 v -2.11664 l -0.723074,1.34098 q -0.06135,0.10517 -0.118322,0.15338 -0.05697,0.0438 -0.127086,0.0438 h -0.144614 l -0.854543,-1.53818 v 2.11664 H 16.88567 Z"
           style="font-style:normal;font-variant:normal;font-weight:600;font-stretch:normal;font-size:4.38227px;font-family:'Bai Jamjuree';-inkscape-font-specification:'Bai Jamjuree, Semi-Bold';font-variant-ligatures:normal;font-variant-caps:normal;font-variant-numeric:normal;font-variant-east-asian:normal;fill:#000000;fill-opacity:1;stroke-width:0.328671"
           id="path878" />
        <path
           d="m 23.454686,177.09814 h -1.218271 l -0.284848,0.75814 h -0.530254 l 1.191977,-3.06759 h 0.23226 q 0.236643,0 0.32867,0.23226 l 1.095568,2.83533 h -0.534637 z m -1.073656,-0.42946 h 0.929041 l -0.460139,-1.24456 h -0.0044 z"
           style="font-style:normal;font-variant:normal;font-weight:600;font-stretch:normal;font-size:4.38227px;font-family:'Bai Jamjuree';-inkscape-font-specification:'Bai Jamjuree, Semi-Bold';font-variant-ligatures:normal;font-variant-caps:normal;font-variant-numeric:normal;font-variant-east-asian:normal;fill:#000000;fill-opacity:1;stroke-width:0.328671"
           id="path880" />
        <path
           d="m 25.518723,177.89134 q -0.306759,0 -0.543401,-0.13147 -0.236643,-0.13585 -0.368111,-0.37688 -0.127086,-0.2454 -0.127086,-0.56531 v -2.02899 h 0.512726 v 2.02022 q 0,0.28485 0.144615,0.46014 0.144615,0.17091 0.381257,0.17091 h 0.468903 q 0.241025,0 0.38564,-0.17091 0.148997,-0.17529 0.148997,-0.46014 v -2.02022 h 0.512726 v 2.02899 q 0,0.31991 -0.131468,0.56531 -0.131469,0.24103 -0.368111,0.37688 -0.236643,0.13147 -0.547784,0.13147 z"
           style="font-style:normal;font-variant:normal;font-weight:600;font-stretch:normal;font-size:4.38227px;font-family:'Bai Jamjuree';-inkscape-font-specification:'Bai Jamjuree, Semi-Bold';font-variant-ligatures:normal;font-variant-caps:normal;font-variant-numeric:normal;font-variant-east-asian:normal;fill:#000000;fill-opacity:1;stroke-width:0.328671"
           id="path882" />
        <path
           d="m 28.367192,175.2313 h -0.972864 v -0.44261 h 2.458454 v 0.44261 h -0.972864 v 2.62498 h -0.512726 z"
           style="font-style:normal;font-variant:normal;font-weight:600;font-stretch:normal;font-size:4.38227px;font-family:'Bai Jamjuree';-inkscape-font-specification:'Bai Jamjuree, Semi-Bold';font-variant-ligatures:normal;font-variant-caps:normal;font-variant-numeric:normal;font-variant-east-asian:normal;fill:#000000;fill-opacity:1;stroke-width:0.328671"
           id="path884" />
        <path
           d="m 31.123625,177.89134 q -0.333052,0 -0.587224,-0.14024 -0.254172,-0.14461 -0.394404,-0.40317 -0.140233,-0.26293 -0.140233,-0.60475 v -0.84139 q 0,-0.34182 0.140233,-0.60038 0.140232,-0.26293 0.394404,-0.40316 0.254172,-0.14462 0.587224,-0.14462 h 0.464521 q 0.333052,0 0.587224,0.14462 0.258554,0.14023 0.398786,0.40316 0.140233,0.25856 0.140233,0.60038 v 0.84139 q 0,0.34182 -0.140233,0.60475 -0.140232,0.25856 -0.398786,0.40317 -0.254172,0.14024 -0.587224,0.14024 z m 0.464521,-0.45138 q 0.2717,0 0.442609,-0.1972 0.170908,-0.1972 0.170908,-0.51711 v -0.80634 q 0,-0.3199 -0.170908,-0.5171 -0.166526,-0.19721 -0.442609,-0.19721 h -0.460139 q -0.276083,0 -0.446991,0.19721 -0.166526,0.1972 -0.166526,0.5171 v 0.80634 q 0,0.31991 0.166526,0.51711 0.170908,0.1972 0.446991,0.1972 z"
           style="font-style:normal;font-variant:normal;font-weight:600;font-stretch:normal;font-size:4.38227px;font-family:'Bai Jamjuree';-inkscape-font-specification:'Bai Jamjuree, Semi-Bold';font-variant-ligatures:normal;font-variant-caps:normal;font-variant-numeric:normal;font-variant-east-asian:normal;fill:#000000;fill-opacity:1;stroke-width:0.328671"
           id="path886" />
        <path
           d="m 33.222725,174.78869 h 0.460139 l 1.551323,2.24372 v -2.24372 h 0.499579 v 3.06759 h -0.464521 l -1.546941,-2.23496 v 2.23496 h -0.499579 z"
           style="font-style:normal;font-variant:normal;font-weight:600;font-stretch:normal;font-size:4.38227px;font-family:'Bai Jamjuree';-inkscape-font-specification:'Bai Jamjuree, Semi-Bold';font-variant-ligatures:normal;font-variant-caps:normal;font-variant-numeric:normal;font-variant-east-asian:normal;fill:#000000;fill-opacity:1;stroke-width:0.328671"
           id="path888" />
        <path
           d="m 37.363968,177.89134 q -0.333052,0 -0.587224,-0.14024 -0.254172,-0.14461 -0.394404,-0.40317 -0.140233,-0.26293 -0.140233,-0.60475 v -0.84139 q 0,-0.34182 0.140233,-0.60038 0.140232,-0.26293 0.394404,-0.40316 0.254172,-0.14462 0.587224,-0.14462 h 0.464521 q 0.333052,0 0.587224,0.14462 0.258554,0.14023 0.398786,0.40316 0.140233,0.25856 0.140233,0.60038 v 0.84139 q 0,0.34182 -0.140233,0.60475 -0.140232,0.25856 -0.398786,0.40317 -0.254172,0.14024 -0.587224,0.14024 z m 0.464521,-0.45138 q 0.2717,0 0.442609,-0.1972 0.170908,-0.1972 0.170908,-0.51711 v -0.80634 q 0,-0.3199 -0.170908,-0.5171 Q 38.104572,175.205 37.828489,175.205 H 37.36835 q -0.276083,0 -0.446991,0.19721 -0.166526,0.1972 -0.166526,0.5171 v 0.80634 q 0,0.31991 0.166526,0.51711 0.170908,0.1972 0.446991,0.1972 z"
           style="font-style:normal;font-variant:normal;font-weight:600;font-stretch:normal;font-size:4.38227px;font-family:'Bai Jamjuree';-inkscape-font-specification:'Bai Jamjuree, Semi-Bold';font-variant-ligatures:normal;font-variant-caps:normal;font-variant-numeric:normal;font-variant-east-asian:normal;fill:#000000;fill-opacity:1;stroke-width:0.328671"
           id="path890" />
        <path
           d="m 39.463068,174.78869 h 0.464521 l 1.034216,1.89314 1.007922,-1.89314 h 0.46452 v 3.06759 h -0.503961 v -2.11664 l -0.723074,1.34098 q -0.06135,0.10517 -0.118321,0.15338 -0.05697,0.0438 -0.127086,0.0438 H 40.81719 l -0.854543,-1.53818 v 2.11664 h -0.499579 z"
           style="font-style:normal;font-variant:normal;font-weight:600;font-stretch:normal;font-size:4.38227px;font-family:'Bai Jamjuree';-inkscape-font-specification:'Bai Jamjuree, Semi-Bold';font-variant-ligatures:normal;font-variant-caps:normal;font-variant-numeric:normal;font-variant-east-asian:normal;fill:#000000;fill-opacity:1;stroke-width:0.328671"
           id="path892" />
        <path
           d="m 44.06445,177.89134 q -0.333053,0 -0.587225,-0.14024 -0.254171,-0.14461 -0.394404,-0.40317 -0.140233,-0.26293 -0.140233,-0.60475 v -0.84139 q 0,-0.34182 0.140233,-0.60038 0.140233,-0.26293 0.394404,-0.40316 0.254172,-0.14462 0.587225,-0.14462 h 0.46452 q 0.333053,0 0.587224,0.14462 0.258554,0.14023 0.398787,0.40316 0.140232,0.25856 0.140232,0.60038 v 0.84139 q 0,0.34182 -0.140232,0.60475 -0.140233,0.25856 -0.398787,0.40317 -0.254171,0.14024 -0.587224,0.14024 z m 0.46452,-0.45138 q 0.271701,0 0.442609,-0.1972 0.170909,-0.1972 0.170909,-0.51711 v -0.80634 q 0,-0.3199 -0.170909,-0.5171 Q 44.805053,175.205 44.52897,175.205 h -0.460138 q -0.276083,0 -0.446992,0.19721 -0.166526,0.1972 -0.166526,0.5171 v 0.80634 q 0,0.31991 0.166526,0.51711 0.170909,0.1972 0.446992,0.1972 z"
           style="font-style:normal;font-variant:normal;font-weight:600;font-stretch:normal;font-size:4.38227px;font-family:'Bai Jamjuree';-inkscape-font-specification:'Bai Jamjuree, Semi-Bold';font-variant-ligatures:normal;font-variant-caps:normal;font-variant-numeric:normal;font-variant-east-asian:normal;fill:#000000;fill-opacity:1;stroke-width:0.328671"
           id="path894" />
        <path
           d="m 47.184615,177.89134 q -0.306759,0 -0.543402,-0.13147 -0.236642,-0.13585 -0.36811,-0.37688 -0.127086,-0.2454 -0.127086,-0.56531 v -2.02899 h 0.512726 v 2.02022 q 0,0.28485 0.144614,0.46014 0.144615,0.17091 0.381258,0.17091 h 0.468903 q 0.241025,0 0.38564,-0.17091 0.148997,-0.17529 0.148997,-0.46014 v -2.02022 h 0.512725 v 2.02899 q 0,0.31991 -0.131468,0.56531 -0.131468,0.24103 -0.36811,0.37688 -0.236643,0.13147 -0.547784,0.13147 z"
           style="font-style:normal;font-variant:normal;font-weight:600;font-stretch:normal;font-size:4.38227px;font-family:'Bai Jamjuree';-inkscape-font-specification:'Bai Jamjuree, Semi-Bold';font-variant-ligatures:normal;font-variant-caps:normal;font-variant-numeric:normal;font-variant-east-asian:normal;fill:#000000;fill-opacity:1;stroke-width:0.328671"
           id="path896" />
        <path
           d="m 50.155788,177.89134 q -0.455757,0 -0.718693,-0.26294 -0.262936,-0.26294 -0.262936,-0.71869 h 0.503961 q 0,0.2454 0.127086,0.39002 0.131468,0.14023 0.359346,0.14023 h 0.486432 q 0.214731,0 0.346199,-0.092 0.131468,-0.0964 0.131468,-0.24979 v -0.19282 q 0,-0.11832 -0.09203,-0.1972 -0.09203,-0.0789 -0.262936,-0.10955 l -0.797574,-0.13585 q -0.372492,-0.0614 -0.574077,-0.24541 -0.197202,-0.18406 -0.197202,-0.4689 v -0.24103 q 0,-0.22349 0.118321,-0.3944 0.122704,-0.17091 0.341817,-0.26294 0.219114,-0.0964 0.508344,-0.0964 h 0.495196 q 0.271701,0 0.477668,0.11394 0.210348,0.10956 0.324287,0.31552 0.11394,0.20597 0.11394,0.47329 h -0.499579 q 0,-0.20159 -0.118322,-0.32429 -0.113939,-0.12709 -0.297994,-0.12709 h -0.495196 q -0.205967,0 -0.333053,0.092 -0.122703,0.0876 -0.122703,0.24103 v 0.15776 q 0,0.1227 0.08764,0.20597 0.08765,0.0789 0.254172,0.10517 l 0.797573,0.14023 q 0.376875,0.0657 0.578459,0.24541 0.205967,0.17529 0.205967,0.45137 v 0.28485 q 0,0.2235 -0.122704,0.39879 -0.122703,0.17091 -0.346199,0.26732 -0.223496,0.0964 -0.512725,0.0964 z"
           style="font-style:normal;font-variant:normal;font-weight:600;font-stretch:normal;font-size:4.38227px;font-family:'Bai Jamjuree';-inkscape-font-specification:'Bai Jamjuree, Semi-Bold';font-variant-ligatures:normal;font-variant-caps:normal;font-variant-numeric:normal;font-variant-east-asian:normal;fill:#000000;fill-opacity:1;stroke-width:0.328671"
           id="path898" />
        <path
           d="m 54.209384,177.89134 q -0.455756,0 -0.718692,-0.26294 -0.262936,-0.26294 -0.262936,-0.71869 h 0.503961 q 0,0.2454 0.127085,0.39002 0.131469,0.14023 0.359347,0.14023 h 0.486432 q 0.214731,0 0.346199,-0.092 0.131468,-0.0964 0.131468,-0.24979 v -0.19282 q 0,-0.11832 -0.09203,-0.1972 -0.09203,-0.0789 -0.262936,-0.10955 l -0.797573,-0.13585 q -0.372493,-0.0614 -0.574077,-0.24541 -0.197203,-0.18406 -0.197203,-0.4689 v -0.24103 q 0,-0.22349 0.118322,-0.3944 0.122703,-0.17091 0.341817,-0.26294 0.219113,-0.0964 0.508343,-0.0964 h 0.495197 q 0.2717,0 0.477667,0.11394 0.210349,0.10956 0.324288,0.31552 0.113939,0.20597 0.113939,0.47329 h -0.499579 q 0,-0.20159 -0.118321,-0.32429 Q 54.906165,175.205 54.72211,175.205 h -0.495197 q -0.205967,0 -0.333052,0.092 -0.122704,0.0876 -0.122704,0.24103 v 0.15776 q 0,0.1227 0.08764,0.20597 0.08765,0.0789 0.254172,0.10517 l 0.797573,0.14023 q 0.376875,0.0657 0.57846,0.24541 0.205967,0.17529 0.205967,0.45137 v 0.28485 q 0,0.2235 -0.122704,0.39879 -0.122704,0.17091 -0.346199,0.26732 -0.223496,0.0964 -0.512726,0.0964 z"
           style="font-style:normal;font-variant:normal;font-weight:600;font-stretch:normal;font-size:4.38227px;font-family:'Bai Jamjuree';-inkscape-font-specification:'Bai Jamjuree, Semi-Bold';font-variant-ligatures:normal;font-variant-caps:normal;font-variant-numeric:normal;font-variant-east-asian:normal;fill:#000000;fill-opacity:1;stroke-width:0.328671"
           id="path900" />
        <path
           d="m 56.930774,176.66868 -1.135008,-1.87999 h 0.556548 l 0.832632,1.41109 0.832631,-1.41109 h 0.556548 l -1.135008,1.87999 v 1.1876 h -0.508343 z"
           style="font-style:normal;font-variant:normal;font-weight:600;font-stretch:normal;font-size:4.38227px;font-family:'Bai Jamjuree';-inkscape-font-specification:'Bai Jamjuree, Semi-Bold';font-variant-ligatures:normal;font-variant-caps:normal;font-variant-numeric:normal;font-variant-east-asian:normal;fill:#000000;fill-opacity:1;stroke-width:0.328671"
           id="path902" />
        <path
           d="m 59.678447,177.89134 q -0.455756,0 -0.718692,-0.26294 -0.262937,-0.26294 -0.262937,-0.71869 h 0.503961 q 0,0.2454 0.127086,0.39002 0.131468,0.14023 0.359346,0.14023 h 0.486432 q 0.214732,0 0.3462,-0.092 0.131468,-0.0964 0.131468,-0.24979 v -0.19282 q 0,-0.11832 -0.09203,-0.1972 -0.09203,-0.0789 -0.262936,-0.10955 l -0.797573,-0.13585 q -0.372493,-0.0614 -0.574078,-0.24541 -0.197202,-0.18406 -0.197202,-0.4689 v -0.24103 q 0,-0.22349 0.118322,-0.3944 0.122703,-0.17091 0.341817,-0.26294 0.219113,-0.0964 0.508343,-0.0964 h 0.495196 q 0.271701,0 0.477668,0.11394 0.210349,0.10956 0.324288,0.31552 0.113939,0.20597 0.113939,0.47329 h -0.499579 q 0,-0.20159 -0.118321,-0.32429 -0.113939,-0.12709 -0.297995,-0.12709 h -0.495196 q -0.205967,0 -0.333053,0.092 -0.122703,0.0876 -0.122703,0.24103 v 0.15776 q 0,0.1227 0.08765,0.20597 0.08765,0.0789 0.254172,0.10517 l 0.797573,0.14023 q 0.376875,0.0657 0.57846,0.24541 0.205966,0.17529 0.205966,0.45137 v 0.28485 q 0,0.2235 -0.122703,0.39879 -0.122704,0.17091 -0.3462,0.26732 -0.223495,0.0964 -0.512725,0.0964 z"
           style="font-style:normal;font-variant:normal;font-weight:600;font-stretch:normal;font-size:4.38227px;font-family:'Bai Jamjuree';-inkscape-font-specification:'Bai Jamjuree, Semi-Bold';font-variant-ligatures:normal;font-variant-caps:normal;font-variant-numeric:normal;font-variant-east-asian:normal;fill:#000000;fill-opacity:1;stroke-width:0.328671"
           id="path904" />
        <path
           d="m 62.316569,175.2313 h -0.972864 v -0.44261 h 2.458454 v 0.44261 h -0.972864 v 2.62498 h -0.512726 z"
           style="font-style:normal;font-variant:normal;font-weight:600;font-stretch:normal;font-size:4.38227px;font-family:'Bai Jamjuree';-inkscape-font-specification:'Bai Jamjuree, Semi-Bold';font-variant-ligatures:normal;font-variant-caps:normal;font-variant-numeric:normal;font-variant-east-asian:normal;fill:#000000;fill-opacity:1;stroke-width:0.328671"
           id="path906" />
        <path
           d="m 64.555901,177.85628 q -0.170908,0 -0.276083,-0.10079 -0.100792,-0.10518 -0.100792,-0.27171 v -2.69509 h 2.248105 v 0.44261 h -1.735379 v 0.83263 h 1.60391 v 0.44699 h -1.60391 v 0.90275 h 1.735379 v 0.44261 z"
           style="font-style:normal;font-variant:normal;font-weight:600;font-stretch:normal;font-size:4.38227px;font-family:'Bai Jamjuree';-inkscape-font-specification:'Bai Jamjuree, Semi-Bold';font-variant-ligatures:normal;font-variant-caps:normal;font-variant-numeric:normal;font-variant-east-asian:normal;fill:#000000;fill-opacity:1;stroke-width:0.328671"
           id="path908" />
        <path
           d="m 66.89165,174.78869 h 0.46452 l 1.034216,1.89314 1.007922,-1.89314 h 0.464521 v 3.06759 h -0.503961 v -2.11664 l -0.723075,1.34098 q -0.06135,0.10517 -0.118321,0.15338 -0.05697,0.0438 -0.127086,0.0438 h -0.144615 l -0.854543,-1.53818 v 2.11664 H 66.89165 Z"
           style="font-style:normal;font-variant:normal;font-weight:600;font-stretch:normal;font-size:4.38227px;font-family:'Bai Jamjuree';-inkscape-font-specification:'Bai Jamjuree, Semi-Bold';font-variant-ligatures:normal;font-variant-caps:normal;font-variant-numeric:normal;font-variant-east-asian:normal;fill:#000000;fill-opacity:1;stroke-width:0.328671"
           id="path910" />
        <path
           d="m 71.681464,174.78869 h 2.204281 v 0.44699 h -1.691556 v 0.92466 h 1.529412 v 0.44699 h -1.529412 v 1.24895 h -0.512725 z"
           style="font-style:normal;font-variant:normal;font-weight:600;font-stretch:normal;font-size:4.38227px;font-family:'Bai Jamjuree';-inkscape-font-specification:'Bai Jamjuree, Semi-Bold';font-variant-ligatures:normal;font-variant-caps:normal;font-variant-numeric:normal;font-variant-east-asian:normal;fill:#000000;fill-opacity:1;stroke-width:0.328671"
           id="path912" />
        <path
           d="m 75.235478,177.89134 q -0.333053,0 -0.587225,-0.14024 -0.254171,-0.14461 -0.394404,-0.40317 -0.140232,-0.26293 -0.140232,-0.60475 v -0.84139 q 0,-0.34182 0.140232,-0.60038 0.140233,-0.26293 0.394404,-0.40316 0.254172,-0.14462 0.587225,-0.14462 h 0.46452 q 0.333053,0 0.587224,0.14462 0.258554,0.14023 0.398787,0.40316 0.140233,0.25856 0.140233,0.60038 v 0.84139 q 0,0.34182 -0.140233,0.60475 -0.140233,0.25856 -0.398787,0.40317 -0.254171,0.14024 -0.587224,0.14024 z m 0.46452,-0.45138 q 0.271701,0 0.44261,-0.1972 0.170908,-0.1972 0.170908,-0.51711 v -0.80634 q 0,-0.3199 -0.170908,-0.5171 -0.166527,-0.19721 -0.44261,-0.19721 H 75.23986 q -0.276083,0 -0.446992,0.19721 -0.166526,0.1972 -0.166526,0.5171 v 0.80634 q 0,0.31991 0.166526,0.51711 0.170909,0.1972 0.446992,0.1972 z"
           style="font-style:normal;font-variant:normal;font-weight:600;font-stretch:normal;font-size:4.38227px;font-family:'Bai Jamjuree';-inkscape-font-specification:'Bai Jamjuree, Semi-Bold';font-variant-ligatures:normal;font-variant-caps:normal;font-variant-numeric:normal;font-variant-east-asian:normal;fill:#000000;fill-opacity:1;stroke-width:0.328671"
           id="path914" />
        <path
           d="m 77.334578,174.78869 h 1.581999 q 0.376876,0 0.609136,0.20597 0.23226,0.20596 0.23226,0.5434 v 0.31114 q 0,0.22788 -0.140232,0.40317 -0.135851,0.17091 -0.381258,0.25417 v 0.009 q 0.140233,0.0833 0.223496,0.21473 0.08764,0.12709 0.148997,0.33306 l 0.245407,0.79319 h -0.530254 l -0.236643,-0.75814 q -0.05697,-0.1972 -0.175291,-0.30237 -0.118321,-0.10518 -0.276083,-0.10518 h -0.788808 v 1.16569 h -0.512726 z m 1.46806,1.45929 q 0.201585,0 0.319906,-0.10955 0.122704,-0.10956 0.122704,-0.28485 v -0.30238 q 0,-0.14023 -0.09203,-0.22787 -0.09203,-0.0876 -0.245407,-0.0876 h -1.060509 v 1.0123 z"
           style="font-style:normal;font-variant:normal;font-weight:600;font-stretch:normal;font-size:4.38227px;font-family:'Bai Jamjuree';-inkscape-font-specification:'Bai Jamjuree, Semi-Bold';font-variant-ligatures:normal;font-variant-caps:normal;font-variant-numeric:normal;font-variant-east-asian:normal;fill:#000000;fill-opacity:1;stroke-width:0.328671"
           id="path916" />
        <path
           d="m 81.532782,174.78869 h 0.512725 v 3.06759 h -0.512725 z"
           style="font-style:normal;font-variant:normal;font-weight:600;font-stretch:normal;font-size:4.38227px;font-family:'Bai Jamjuree';-inkscape-font-specification:'Bai Jamjuree, Semi-Bold';font-variant-ligatures:normal;font-variant-caps:normal;font-variant-numeric:normal;font-variant-east-asian:normal;fill:#000000;fill-opacity:1;stroke-width:0.328671"
           id="path918" />
        <path
           d="m 82.685317,174.78869 h 0.460138 l 1.551323,2.24372 v -2.24372 h 0.499579 v 3.06759 h -0.46452 l -1.546942,-2.23496 v 2.23496 h -0.499578 z"
           style="font-style:normal;font-variant:normal;font-weight:600;font-stretch:normal;font-size:4.38227px;font-family:'Bai Jamjuree';-inkscape-font-specification:'Bai Jamjuree, Semi-Bold';font-variant-ligatures:normal;font-variant-caps:normal;font-variant-numeric:normal;font-variant-east-asian:normal;fill:#000000;fill-opacity:1;stroke-width:0.328671"
           id="path920" />
        <path
           d="m 85.792342,174.78869 h 2.204281 v 0.44699 h -1.691556 v 0.92466 h 1.529412 v 0.44699 h -1.529412 v 1.24895 h -0.512725 z"
           style="font-style:normal;font-variant:normal;font-weight:600;font-stretch:normal;font-size:4.38227px;font-family:'Bai Jamjuree';-inkscape-font-specification:'Bai Jamjuree, Semi-Bold';font-variant-ligatures:normal;font-variant-caps:normal;font-variant-numeric:normal;font-variant-east-asian:normal;fill:#000000;fill-opacity:1;stroke-width:0.328671"
           id="path922" />
        <path
           d="m 89.346363,177.89134 q -0.333052,0 -0.587224,-0.14024 -0.254172,-0.14461 -0.394404,-0.40317 -0.140233,-0.26293 -0.140233,-0.60475 v -0.84139 q 0,-0.34182 0.140233,-0.60038 0.140232,-0.26293 0.394404,-0.40316 0.254172,-0.14462 0.587224,-0.14462 h 0.464521 q 0.333052,0 0.587224,0.14462 0.258554,0.14023 0.398787,0.40316 0.140232,0.25856 0.140232,0.60038 v 0.84139 q 0,0.34182 -0.140232,0.60475 -0.140233,0.25856 -0.398787,0.40317 -0.254172,0.14024 -0.587224,0.14024 z m 0.464521,-0.45138 q 0.271701,0 0.442609,-0.1972 0.170909,-0.1972 0.170909,-0.51711 v -0.80634 q 0,-0.3199 -0.170909,-0.5171 -0.166526,-0.19721 -0.442609,-0.19721 h -0.460138 q -0.276083,0 -0.446992,0.19721 -0.166526,0.1972 -0.166526,0.5171 v 0.80634 q 0,0.31991 0.166526,0.51711 0.170909,0.1972 0.446992,0.1972 z"
           style="font-style:normal;font-variant:normal;font-weight:600;font-stretch:normal;font-size:4.38227px;font-family:'Bai Jamjuree';-inkscape-font-specification:'Bai Jamjuree, Semi-Bold';font-variant-ligatures:normal;font-variant-caps:normal;font-variant-numeric:normal;font-variant-east-asian:normal;fill:#000000;fill-opacity:1;stroke-width:0.328671"
           id="path924" />
        <path
           d="m 91.445456,174.78869 h 1.581999 q 0.376876,0 0.609136,0.20597 0.23226,0.20596 0.23226,0.5434 v 0.31114 q 0,0.22788 -0.140232,0.40317 -0.135851,0.17091 -0.381258,0.25417 v 0.009 q 0.140233,0.0833 0.223496,0.21473 0.08764,0.12709 0.148997,0.33306 l 0.245407,0.79319 h -0.530254 l -0.236643,-0.75814 q -0.05697,-0.1972 -0.175291,-0.30237 -0.118321,-0.10518 -0.276083,-0.10518 h -0.788808 v 1.16569 h -0.512726 z m 1.46806,1.45929 q 0.201585,0 0.319906,-0.10955 0.122704,-0.10956 0.122704,-0.28485 v -0.30238 q 0,-0.14023 -0.09203,-0.22787 -0.09203,-0.0876 -0.245407,-0.0876 h -1.060509 v 1.0123 z"
           style="font-style:normal;font-variant:normal;font-weight:600;font-stretch:normal;font-size:4.38227px;font-family:'Bai Jamjuree';-inkscape-font-specification:'Bai Jamjuree, Semi-Bold';font-variant-ligatures:normal;font-variant-caps:normal;font-variant-numeric:normal;font-variant-east-asian:normal;fill:#000000;fill-opacity:1;stroke-width:0.328671"
           id="path926" />
        <path
           d="m 94.377196,174.78869 h 0.46452 l 1.034216,1.89314 1.007922,-1.89314 h 0.464521 v 3.06759 h -0.503961 v -2.11664 l -0.723075,1.34098 q -0.06135,0.10517 -0.118321,0.15338 -0.05697,0.0438 -0.127086,0.0438 h -0.144615 l -0.854542,-1.53818 v 2.11664 h -0.499579 z"
           style="font-style:normal;font-variant:normal;font-weight:600;font-stretch:normal;font-size:4.38227px;font-family:'Bai Jamjuree';-inkscape-font-specification:'Bai Jamjuree, Semi-Bold';font-variant-ligatures:normal;font-variant-caps:normal;font-variant-numeric:normal;font-variant-east-asian:normal;fill:#000000;fill-opacity:1;stroke-width:0.328671"
           id="path928" />
        <path
           d="m 99.723559,177.09814 h -1.218271 l -0.284848,0.75814 h -0.530254 l 1.191977,-3.06759 h 0.23226 q 0.236643,0 0.328671,0.23226 l 1.095566,2.83533 h -0.53464 z m -1.073656,-0.42946 h 0.929041 l -0.460138,-1.24456 h -0.0044 z"
           style="font-style:normal;font-variant:normal;font-weight:600;font-stretch:normal;font-size:4.38227px;font-family:'Bai Jamjuree';-inkscape-font-specification:'Bai Jamjuree, Semi-Bold';font-variant-ligatures:normal;font-variant-caps:normal;font-variant-numeric:normal;font-variant-east-asian:normal;fill:#000000;fill-opacity:1;stroke-width:0.328671"
           id="path930" />
        <path
           d="m 101.19599,175.2313 h -0.97287 v -0.44261 h 2.45846 v 0.44261 h -0.97287 v 2.62498 h -0.51272 z"
           style="font-style:normal;font-variant:normal;font-weight:600;font-stretch:normal;font-size:4.38227px;font-family:'Bai Jamjuree';-inkscape-font-specification:'Bai Jamjuree, Semi-Bold';font-variant-ligatures:normal;font-variant-caps:normal;font-variant-numeric:normal;font-variant-east-asian:normal;fill:#000000;fill-opacity:1;stroke-width:0.328671"
           id="path932" />
        <path
           d="m 103.10227,174.78869 h 0.51273 v 3.06759 h -0.51273 z"
           style="font-style:normal;font-variant:normal;font-weight:600;font-stretch:normal;font-size:4.38227px;font-family:'Bai Jamjuree';-inkscape-font-specification:'Bai Jamjuree, Semi-Bold';font-variant-ligatures:normal;font-variant-caps:normal;font-variant-numeric:normal;font-variant-east-asian:normal;fill:#000000;fill-opacity:1;stroke-width:0.328671"
           id="path934" />
        <path
           d="m 105.28902,177.89134 q -0.33305,0 -0.58722,-0.14024 -0.25418,-0.14461 -0.39441,-0.40317 -0.14023,-0.26293 -0.14023,-0.60475 v -0.84139 q 0,-0.34182 0.14023,-0.60038 0.14023,-0.26293 0.39441,-0.40316 0.25417,-0.14462 0.58722,-0.14462 h 0.46452 q 0.33305,0 0.58723,0.14462 0.25855,0.14023 0.39878,0.40316 0.14023,0.25856 0.14023,0.60038 v 0.84139 q 0,0.34182 -0.14023,0.60475 -0.14023,0.25856 -0.39878,0.40317 -0.25418,0.14024 -0.58723,0.14024 z m 0.46452,-0.45138 q 0.2717,0 0.44261,-0.1972 0.17091,-0.1972 0.17091,-0.51711 v -0.80634 q 0,-0.3199 -0.17091,-0.5171 -0.16653,-0.19721 -0.44261,-0.19721 h -0.46014 q -0.27608,0 -0.44699,0.19721 -0.16652,0.1972 -0.16652,0.5171 v 0.80634 q 0,0.31991 0.16652,0.51711 0.17091,0.1972 0.44699,0.1972 z"
           style="font-style:normal;font-variant:normal;font-weight:600;font-stretch:normal;font-size:4.38227px;font-family:'Bai Jamjuree';-inkscape-font-specification:'Bai Jamjuree, Semi-Bold';font-variant-ligatures:normal;font-variant-caps:normal;font-variant-numeric:normal;font-variant-east-asian:normal;fill:#000000;fill-opacity:1;stroke-width:0.328671"
           id="path936" />
        <path
           d="m 107.38811,174.78869 h 0.46014 l 1.55133,2.24372 v -2.24372 h 0.49957 v 3.06759 h -0.46452 l -1.54694,-2.23496 v 2.23496 h -0.49958 z"
           style="font-style:normal;font-variant:normal;font-weight:600;font-stretch:normal;font-size:4.38227px;font-family:'Bai Jamjuree';-inkscape-font-specification:'Bai Jamjuree, Semi-Bold';font-variant-ligatures:normal;font-variant-caps:normal;font-variant-numeric:normal;font-variant-east-asian:normal;fill:#000000;fill-opacity:1;stroke-width:0.328671"
           id="path938" />
        <path
           d="m 113.497,177.09814 h -1.21827 l -0.28485,0.75814 h -0.53026 l 1.19198,-3.06759 h 0.23226 q 0.23664,0 0.32867,0.23226 l 1.09557,2.83533 h -0.53464 z m -1.07366,-0.42946 h 0.92904 l -0.46014,-1.24456 h -0.004 z"
           style="font-style:normal;font-variant:normal;font-weight:600;font-stretch:normal;font-size:4.38227px;font-family:'Bai Jamjuree';-inkscape-font-specification:'Bai Jamjuree, Semi-Bold';font-variant-ligatures:normal;font-variant-caps:normal;font-variant-numeric:normal;font-variant-east-asian:normal;fill:#000000;fill-opacity:1;stroke-width:0.328671"
           id="path940" />
        <path
           d="m 115.56103,177.89134 q -0.30676,0 -0.5434,-0.13147 -0.23664,-0.13585 -0.36811,-0.37688 -0.12709,-0.2454 -0.12709,-0.56531 v -2.02899 h 0.51273 v 2.02022 q 0,0.28485 0.14461,0.46014 0.14462,0.17091 0.38126,0.17091 h 0.4689 q 0.24103,0 0.38564,-0.17091 0.149,-0.17529 0.149,-0.46014 v -2.02022 h 0.51273 v 2.02899 q 0,0.31991 -0.13147,0.56531 -0.13147,0.24103 -0.36811,0.37688 -0.23665,0.13147 -0.54779,0.13147 z"
           style="font-style:normal;font-variant:normal;font-weight:600;font-stretch:normal;font-size:4.38227px;font-family:'Bai Jamjuree';-inkscape-font-specification:'Bai Jamjuree, Semi-Bold';font-variant-ligatures:normal;font-variant-caps:normal;font-variant-numeric:normal;font-variant-east-asian:normal;fill:#000000;fill-opacity:1;stroke-width:0.328671"
           id="path942" />
        <path
           d="m 118.4095,175.2313 h -0.97286 v -0.44261 h 2.45845 v 0.44261 h -0.97286 v 2.62498 h -0.51273 z"
           style="font-style:normal;font-variant:normal;font-weight:600;font-stretch:normal;font-size:4.38227px;font-family:'Bai Jamjuree';-inkscape-font-specification:'Bai Jamjuree, Semi-Bold';font-variant-ligatures:normal;font-variant-caps:normal;font-variant-numeric:normal;font-variant-east-asian:normal;fill:#000000;fill-opacity:1;stroke-width:0.328671"
           id="path944" />
        <path
           d="m 120.27196,174.78869 h 0.51273 v 1.30153 h 1.51626 v -1.30153 h 0.50835 v 3.06759 h -0.50835 v -1.31907 h -1.51626 v 1.31907 h -0.51273 z"
           style="font-style:normal;font-variant:normal;font-weight:600;font-stretch:normal;font-size:4.38227px;font-family:'Bai Jamjuree';-inkscape-font-specification:'Bai Jamjuree, Semi-Bold';font-variant-ligatures:normal;font-variant-caps:normal;font-variant-numeric:normal;font-variant-east-asian:normal;fill:#000000;fill-opacity:1;stroke-width:0.328671"
           id="path946" />
        <path
           d="m 124.43949,177.89134 q -0.33305,0 -0.58723,-0.14024 -0.25417,-0.14461 -0.3944,-0.40317 -0.14023,-0.26293 -0.14023,-0.60475 v -0.84139 q 0,-0.34182 0.14023,-0.60038 0.14023,-0.26293 0.3944,-0.40316 0.25418,-0.14462 0.58723,-0.14462 h 0.46452 q 0.33305,0 0.58722,0.14462 0.25856,0.14023 0.39879,0.40316 0.14023,0.25856 0.14023,0.60038 v 0.84139 q 0,0.34182 -0.14023,0.60475 -0.14023,0.25856 -0.39879,0.40317 -0.25417,0.14024 -0.58722,0.14024 z m 0.46452,-0.45138 q 0.2717,0 0.44261,-0.1972 0.17091,-0.1972 0.17091,-0.51711 v -0.80634 q 0,-0.3199 -0.17091,-0.5171 -0.16653,-0.19721 -0.44261,-0.19721 h -0.46014 q -0.27608,0 -0.44699,0.19721 -0.16653,0.1972 -0.16653,0.5171 v 0.80634 q 0,0.31991 0.16653,0.51711 0.17091,0.1972 0.44699,0.1972 z"
           style="font-style:normal;font-variant:normal;font-weight:600;font-stretch:normal;font-size:4.38227px;font-family:'Bai Jamjuree';-inkscape-font-specification:'Bai Jamjuree, Semi-Bold';font-variant-ligatures:normal;font-variant-caps:normal;font-variant-numeric:normal;font-variant-east-asian:normal;fill:#000000;fill-opacity:1;stroke-width:0.328671"
           id="path948" />
        <path
           d="m 126.53859,174.78869 h 1.582 q 0.37687,0 0.60913,0.20597 0.23226,0.20596 0.23226,0.5434 v 0.31114 q 0,0.22788 -0.14023,0.40317 -0.13585,0.17091 -0.38126,0.25417 v 0.009 q 0.14024,0.0833 0.2235,0.21473 0.0876,0.12709 0.149,0.33306 l 0.2454,0.79319 h -0.53025 l -0.23664,-0.75814 q -0.057,-0.1972 -0.17529,-0.30237 -0.11833,-0.10518 -0.27609,-0.10518 h -0.78881 v 1.16569 h -0.51272 z m 1.46806,1.45929 q 0.20158,0 0.3199,-0.10955 0.12271,-0.10956 0.12271,-0.28485 v -0.30238 q 0,-0.14023 -0.092,-0.22787 -0.092,-0.0876 -0.24541,-0.0876 h -1.06051 v 1.0123 z"
           style="font-style:normal;font-variant:normal;font-weight:600;font-stretch:normal;font-size:4.38227px;font-family:'Bai Jamjuree';-inkscape-font-specification:'Bai Jamjuree, Semi-Bold';font-variant-ligatures:normal;font-variant-caps:normal;font-variant-numeric:normal;font-variant-east-asian:normal;fill:#000000;fill-opacity:1;stroke-width:0.328671"
           id="path950" />
        <path
           d="m 129.51414,174.78869 h 0.51273 v 3.06759 h -0.51273 z"
           style="font-style:normal;font-variant:normal;font-weight:600;font-stretch:normal;font-size:4.38227px;font-family:'Bai Jamjuree';-inkscape-font-specification:'Bai Jamjuree, Semi-Bold';font-variant-ligatures:normal;font-variant-caps:normal;font-variant-numeric:normal;font-variant-east-asian:normal;fill:#000000;fill-opacity:1;stroke-width:0.328671"
           id="path952" />
        <path
           d="m 131.42043,175.2313 h -0.97287 v -0.44261 h 2.45846 v 0.44261 h -0.97287 v 2.62498 h -0.51272 z"
           style="font-style:normal;font-variant:normal;font-weight:600;font-stretch:normal;font-size:4.38227px;font-family:'Bai Jamjuree';-inkscape-font-specification:'Bai Jamjuree, Semi-Bold';font-variant-ligatures:normal;font-variant-caps:normal;font-variant-numeric:normal;font-variant-east-asian:normal;fill:#000000;fill-opacity:1;stroke-width:0.328671"
           id="path954" />
        <path
           d="m 134.13743,176.66868 -1.13501,-1.87999 h 0.55655 l 0.83263,1.41109 0.83263,-1.41109 h 0.55655 l -1.13501,1.87999 v 1.1876 h -0.50834 z"
           style="font-style:normal;font-variant:normal;font-weight:600;font-stretch:normal;font-size:4.38227px;font-family:'Bai Jamjuree';-inkscape-font-specification:'Bai Jamjuree, Semi-Bold';font-variant-ligatures:normal;font-variant-caps:normal;font-variant-numeric:normal;font-variant-east-asian:normal;fill:#000000;fill-opacity:1;stroke-width:0.328671"
           id="path956" />
      </g>
    </g>
  </g>
</svg>
