<?xml version="1.0" encoding="UTF-8" standalone="no"?>
<svg
   xmlns:dc="http://purl.org/dc/elements/1.1/"
   xmlns:cc="http://creativecommons.org/ns#"
   xmlns:rdf="http://www.w3.org/1999/02/22-rdf-syntax-ns#"
   xmlns:svg="http://www.w3.org/2000/svg"
   xmlns="http://www.w3.org/2000/svg"
   xmlns:sodipodi="http://sodipodi.sourceforge.net/DTD/sodipodi-0.dtd"
   xmlns:inkscape="http://www.inkscape.org/namespaces/inkscape"
   width="1052mm"
   height="118mm"
   viewBox="0 0 1052 118"
   version="1.1"
   id="svg8"
   inkscape:version="1.0.1 (3bc2e813f5, 2020-09-07)"
   sodipodi:docname="white_dx_01.svg">
  <defs
     id="defs2">
    <pattern
       id="EMFhbasepattern"
       patternUnits="userSpaceOnUse"
       width="6"
       height="6"
       x="0"
       y="0" />
  </defs>
  <sodipodi:namedview
     id="base"
     pagecolor="#ffffff"
     bordercolor="#666666"
     borderopacity="1.0"
     inkscape:pageopacity="0.0"
     inkscape:pageshadow="2"
     inkscape:zoom="0.98994949"
     inkscape:cx="231.23944"
     inkscape:cy="499.75642"
     inkscape:document-units="mm"
     inkscape:current-layer="layer1"
     inkscape:document-rotation="0"
     showgrid="false"
     inkscape:window-width="1920"
     inkscape:window-height="1027"
     inkscape:window-x="-8"
     inkscape:window-y="-8"
     inkscape:window-maximized="1"
     inkscape:snap-text-baseline="true" />
  <metadata
     id="metadata5">
    <rdf:RDF>
      <cc:Work
         rdf:about="">
        <dc:format>image/svg+xml</dc:format>
        <dc:type
           rdf:resource="http://purl.org/dc/dcmitype/StillImage" />
        <dc:title />
      </cc:Work>
    </rdf:RDF>
  </metadata>
  <g
     inkscape:label="Warstwa 1"
     inkscape:groupmode="layer"
     id="layer1">
    <text
       xml:space="preserve"
       style="font-style:normal;font-variant:normal;font-weight:400;font-size:16.0617px;line-height:125%;font-family:Calibri;text-align:start;letter-spacing:0px;word-spacing:0px;text-anchor:start;fill:#000000;fill-opacity:1;stroke:none;stroke-width:1.49411"
       x="18.370987"
       y="-137.70193"
       id="text27"><tspan
         sodipodi:role="line"
         x="18.370987"
         y="-137.70193"
         id="tspan25"
         style="stroke-width:1.49411"><tspan
           dx="0"
           dy="0"
           style="font-style:normal;font-variant:normal;font-weight:400;font-size:16.0617px;font-family:Calibri;fill:#000000;stroke-width:1.49411"
           id="tspan23"> </tspan></tspan></text>
    <g
       aria-label="STASIA.IO/DX"
       id="text21-8-4"
       style="font-style:normal;font-variant:normal;font-weight:700;font-size:159.402px;line-height:125%;font-family:'Gill Sans MT';text-align:start;letter-spacing:0px;word-spacing:0px;text-anchor:start;fill:#5f9ea0;fill-opacity:1;stroke:none;stroke-width:1.49411">
      <path
         d="m 37.380346,116.45627 q -17.534441,0 -27.4174896,-9.72364 Q 0.07980796,96.849577 0.07980796,79.315136 H 21.758753 q 0,8.289009 4.144504,13.071129 4.303908,4.622716 11.795897,4.622716 h 17.693844 q 7.013777,0 11.317685,-2.869272 4.463312,-3.028676 4.463312,-7.9702 v -5.419737 q 0,-7.810796 -11.477088,-9.723644 L 30.366569,66.084604 Q 16.020209,63.693544 8.5282203,56.998575 1.195636,50.144203 1.195636,39.623539 v -8.926625 q 0,-8.448412 4.4633122,-14.824572 Q 10.281664,9.3367773 18.570673,5.8298891 27.019085,2.323001 38.017962,2.323001 h 18.012652 q 10.361261,0 18.331461,4.3039082 7.970201,4.3039078 12.274109,12.1147048 4.463312,7.651392 4.463312,17.853248 H 69.420551 q 0,-6.694968 -3.666292,-10.680068 Q 62.087967,21.77029 56.030614,21.77029 H 38.017962 q -6.694969,0 -10.839473,2.869272 -3.9851,2.869272 -3.9851,7.651392 v 4.303908 q 0,7.970201 10.998876,9.883049 l 29.170934,5.100928 q 14.505764,2.550464 22.157157,9.086029 7.651392,6.37616 7.651392,16.578016 v 10.520665 q 0,8.448412 -4.78212,14.983981 -4.622716,6.53556 -13.071129,10.20185 -8.448412,3.50689 -19.606693,3.50689 z"
         style="font-style:normal;font-variant:normal;font-weight:bold;font-stretch:normal;font-size:159.404px;font-family:'Bai Jamjuree';-inkscape-font-specification:'Bai Jamjuree, Bold';font-variant-ligatures:normal;font-variant-caps:normal;font-variant-numeric:normal;font-variant-east-asian:normal;fill:#5f9ea0;fill-opacity:1;stroke-width:1.49411"
         id="path838" />
      <path
         d="M 133.34116,22.726714 H 97.953469 V 3.598233 H 190.7266 v 19.128481 h -35.38769 v 92.454326 h -21.99775 z"
         style="font-style:normal;font-variant:normal;font-weight:bold;font-stretch:normal;font-size:159.404px;font-family:'Bai Jamjuree';-inkscape-font-specification:'Bai Jamjuree, Bold';font-variant-ligatures:normal;font-variant-caps:normal;font-variant-numeric:normal;font-variant-east-asian:normal;fill:#5f9ea0;fill-opacity:1;stroke-width:1.49411"
         id="path840" />
      <path
         d="m 251.93751,89.198185 h -41.76385 l -9.88305,25.982855 H 177.33643 L 221.01313,3.598233 h 9.88305 q 10.36126,0 14.02755,9.56424 l 39.6916,102.018567 H 261.66115 Z M 216.07161,70.70732 h 29.96795 L 231.21499,30.53751 h -0.15941 z"
         style="font-style:normal;font-variant:normal;font-weight:bold;font-stretch:normal;font-size:159.404px;font-family:'Bai Jamjuree';-inkscape-font-specification:'Bai Jamjuree, Bold';font-variant-ligatures:normal;font-variant-caps:normal;font-variant-numeric:normal;font-variant-east-asian:normal;fill:#5f9ea0;fill-opacity:1;stroke-width:1.49411"
         id="path842" />
      <path
         d="m 325.74128,116.45627 q -17.53444,0 -27.41749,-9.72364 -9.88305,-9.883053 -9.88305,-27.417494 h 21.67894 q 0,8.289009 4.14451,13.071129 4.30391,4.622716 11.79589,4.622716 h 17.69385 q 7.01378,0 11.31768,-2.869272 4.46332,-3.028676 4.46332,-7.9702 v -5.419737 q 0,-7.810796 -11.47709,-9.723644 L 318.7275,66.084604 q -14.34636,-2.39106 -21.83835,-9.086029 -7.33258,-6.854372 -7.33258,-17.375036 v -8.926625 q 0,-8.448412 4.46331,-14.824572 Q 298.6426,9.3367773 306.9316,5.8298891 315.38002,2.323001 326.37889,2.323001 h 18.01266 q 10.36126,0 18.33146,4.3039082 7.9702,4.3039078 12.27411,12.1147048 4.46331,7.651392 4.46331,17.853248 h -21.67895 q 0,-6.694968 -3.66629,-10.680068 -3.66629,-4.144504 -9.72364,-4.144504 h -18.01266 q -6.69497,0 -10.83947,2.869272 -3.9851,2.869272 -3.9851,7.651392 v 4.303908 q 0,7.970201 10.99888,9.883049 l 29.17093,5.100928 q 14.50576,2.550464 22.15716,9.086029 7.65139,6.37616 7.65139,16.578016 v 10.520665 q 0,8.448412 -4.78212,14.983981 -4.62272,6.53556 -13.07113,10.20185 -8.44841,3.50689 -19.60669,3.50689 z"
         style="font-style:normal;font-variant:normal;font-weight:bold;font-stretch:normal;font-size:159.404px;font-family:'Bai Jamjuree';-inkscape-font-specification:'Bai Jamjuree, Bold';font-variant-ligatures:normal;font-variant-caps:normal;font-variant-numeric:normal;font-variant-east-asian:normal;fill:#5f9ea0;fill-opacity:1;stroke-width:1.49411"
         id="path844" />
      <path
         d="m 398.42923,3.598233 h 21.99775 V 115.18104 h -21.99775 z"
         style="font-style:normal;font-variant:normal;font-weight:bold;font-stretch:normal;font-size:159.404px;font-family:'Bai Jamjuree';-inkscape-font-specification:'Bai Jamjuree, Bold';font-variant-ligatures:normal;font-variant-caps:normal;font-variant-numeric:normal;font-variant-east-asian:normal;fill:#5f9ea0;fill-opacity:1;stroke-width:1.49411"
         id="path846" />
      <path
         d="m 507.14271,89.198185 h -41.76385 l -9.88305,25.982855 H 432.54163 L 476.21833,3.598233 h 9.88305 q 10.36126,0 14.02755,9.56424 l 39.6916,102.018567 H 516.86635 Z M 471.27681,70.70732 h 29.96795 L 486.42019,30.53751 h -0.15941 z"
         style="font-style:normal;font-variant:normal;font-weight:bold;font-stretch:normal;font-size:159.404px;font-family:'Bai Jamjuree';-inkscape-font-specification:'Bai Jamjuree, Bold';font-variant-ligatures:normal;font-variant-caps:normal;font-variant-numeric:normal;font-variant-east-asian:normal;fill:#5f9ea0;fill-opacity:1;stroke-width:1.49411"
         id="path848" />
      <path
         d="m 559.58661,116.77508 q -5.89795,0 -9.56424,-3.50689 -3.50689,-3.66629 -3.50689,-9.56424 0,-5.897949 3.50689,-9.404837 3.66629,-3.666292 9.56424,-3.666292 5.89794,0 9.40483,3.666292 3.66629,3.506888 3.66629,9.404837 0,5.89795 -3.66629,9.56424 -3.50689,3.50689 -9.40483,3.50689 z"
         style="font-style:normal;font-variant:normal;font-weight:bold;font-stretch:normal;font-size:159.404px;font-family:'Bai Jamjuree';-inkscape-font-specification:'Bai Jamjuree, Bold';font-variant-ligatures:normal;font-variant-caps:normal;font-variant-numeric:normal;font-variant-east-asian:normal;fill:#5f9ea0;fill-opacity:1;stroke-width:1.49411"
         id="path850" />
      <path
         d="m 609.0546,3.598233 h 21.99775 V 115.18104 H 609.0546 Z"
         style="font-style:normal;font-variant:normal;font-weight:bold;font-stretch:normal;font-size:159.404px;font-family:'Bai Jamjuree';-inkscape-font-specification:'Bai Jamjuree, Bold';font-variant-ligatures:normal;font-variant-caps:normal;font-variant-numeric:normal;font-variant-east-asian:normal;fill:#5f9ea0;fill-opacity:1;stroke-width:1.49411"
         id="path852" />
      <path
         d="m 691.78519,116.45627 q -12.59292,0 -22.31656,-5.26033 -9.56424,-5.41974 -14.98398,-14.983979 -5.26033,-9.723644 -5.26033,-22.475965 V 45.043275 q 0,-12.752321 5.26033,-22.316561 5.41974,-9.723645 14.98398,-14.9839768 9.72364,-5.4197362 22.31656,-5.4197362 h 16.89683 q 12.59291,0 22.15715,5.4197362 9.72365,5.2603318 14.98398,14.9839768 5.41974,9.56424 5.41974,22.316561 v 28.692721 q 0,12.752321 -5.41974,22.475965 -5.26033,9.564239 -14.98398,14.983979 -9.56424,5.26033 -22.15715,5.26033 z m 16.89683,-19.447289 q 9.24543,0 14.82457,-6.694968 5.73854,-6.694968 5.73854,-17.534441 V 45.999699 q 0,-10.839473 -5.73854,-17.534441 -5.57914,-6.694968 -14.82457,-6.694968 h -16.89683 q -9.24543,0 -14.98398,6.694968 -5.57914,6.694968 -5.57914,17.534441 v 26.779873 q 0,10.839473 5.57914,17.534441 5.73855,6.694968 14.98398,6.694968 z"
         style="font-style:normal;font-variant:normal;font-weight:bold;font-stretch:normal;font-size:159.404px;font-family:'Bai Jamjuree';-inkscape-font-specification:'Bai Jamjuree, Bold';font-variant-ligatures:normal;font-variant-caps:normal;font-variant-numeric:normal;font-variant-east-asian:normal;fill:#5f9ea0;fill-opacity:1;stroke-width:1.49411"
         id="path854" />
      <path
         d="m 816.5982,0.09134488 h 21.99776 L 778.66005,119.16614 H 756.6623 Z"
         style="font-style:normal;font-variant:normal;font-weight:bold;font-stretch:normal;font-size:159.404px;font-family:'Bai Jamjuree';-inkscape-font-specification:'Bai Jamjuree, Bold';font-variant-ligatures:normal;font-variant-caps:normal;font-variant-numeric:normal;font-variant-east-asian:normal;fill:#5f9ea0;fill-opacity:1;stroke-width:1.49411"
         id="path856" />
      <path
         d="m 866.81038,115.18104 q -6.85437,0 -11.15828,-4.14451 -4.30391,-4.1445 -4.30391,-10.83947 V 3.598233 h 53.24094 q 12.75232,0 22.31656,4.7821202 9.72365,4.7821198 14.98398,13.5493408 5.41973,8.76722 5.41973,20.244309 v 31.243185 q 0,20.563117 -10.68006,31.243182 -10.68007,10.52067 -31.40259,10.52067 z m 37.77875,-19.447291 q 10.20186,0 15.46219,-5.897948 5.26033,-5.897948 5.26033,-17.375037 V 43.130427 q 0,-9.086029 -5.89795,-14.505765 -5.89795,-5.57914 -15.46219,-5.57914 h -30.60556 v 72.688227 z"
         style="fill:#80b1b3;fill-opacity:1;stroke-width:1.49411"
         id="path858" />
      <path
         d="M 987.16024,58.273807 949.8597,3.598233 h 25.02643 l 24.86702,36.662922 24.86705,-36.662922 h 24.867 l -37.3005,54.675574 38.8945,56.907233 h -25.0264 l -26.30165,-38.89458 -26.46106,38.89458 h -25.02643 z"
         style="fill:#80b1b3;fill-opacity:1;stroke-width:1.49411"
         id="path860" />
    </g>
  </g>
</svg>
