<?xml version="1.0" encoding="UTF-8" standalone="no"?>
<svg
   xmlns:dc="http://purl.org/dc/elements/1.1/"
   xmlns:cc="http://creativecommons.org/ns#"
   xmlns:rdf="http://www.w3.org/1999/02/22-rdf-syntax-ns#"
   xmlns:svg="http://www.w3.org/2000/svg"
   xmlns="http://www.w3.org/2000/svg"
   xmlns:sodipodi="http://sodipodi.sourceforge.net/DTD/sodipodi-0.dtd"
   xmlns:inkscape="http://www.inkscape.org/namespaces/inkscape"
   width="753mm"
   height="118mm"
   viewBox="0 0 753 118"
   version="1.1"
   id="svg8"
   inkscape:version="1.0.1 (3bc2e813f5, 2020-09-07)"
   sodipodi:docname="white_main_01.svg">
  <defs
     id="defs2">
    <pattern
       id="EMFhbasepattern"
       patternUnits="userSpaceOnUse"
       width="6"
       height="6"
       x="0"
       y="0" />
  </defs>
  <sodipodi:namedview
     id="base"
     pagecolor="#ffffff"
     bordercolor="#666666"
     borderopacity="1.0"
     inkscape:pageopacity="0.0"
     inkscape:pageshadow="2"
     inkscape:zoom="0.24748737"
     inkscape:cx="834.46008"
     inkscape:cy="216.02439"
     inkscape:document-units="mm"
     inkscape:current-layer="layer1"
     inkscape:document-rotation="0"
     showgrid="false"
     inkscape:window-width="1465"
     inkscape:window-height="1041"
     inkscape:window-x="0"
     inkscape:window-y="0"
     inkscape:window-maximized="0"
     inkscape:snap-text-baseline="true" />
  <metadata
     id="metadata5">
    <rdf:RDF>
      <cc:Work
         rdf:about="">
        <dc:format>image/svg+xml</dc:format>
        <dc:type
           rdf:resource="http://purl.org/dc/dcmitype/StillImage" />
        <dc:title />
      </cc:Work>
    </rdf:RDF>
  </metadata>
  <g
     inkscape:label="Warstwa 1"
     inkscape:groupmode="layer"
     id="layer1">
    <g
       aria-label="STASIA.IO"
       id="text21-8"
       style="font-style:normal;font-variant:normal;font-weight:700;font-size:159.402px;line-height:125%;font-family:'Gill Sans MT';text-align:start;letter-spacing:0px;word-spacing:0px;text-anchor:start;fill:#000000;fill-opacity:1;stroke:none;stroke-width:1.49411">
      <path
         d="m 38.095648,114.93613 q -17.534441,0 -27.41749,-9.72365 Q 0.79510995,95.329436 0.79510995,77.794995 H 22.474055 q 0,8.289008 4.144504,13.071128 4.303908,4.622717 11.795897,4.622717 H 56.1083 q 7.013777,0 11.317685,-2.869273 4.463312,-3.028676 4.463312,-7.9702 v -5.419736 q 0,-7.810797 -11.477088,-9.723645 L 31.081871,64.564462 Q 16.735511,62.173402 9.2435223,55.478434 1.910938,48.624061 1.910938,38.103397 v -8.926624 q 0,-8.448413 4.4633122,-14.824573 Q 10.996966,7.8166357 19.285975,4.3097475 27.734387,0.80285938 38.733264,0.80285938 h 18.012652 q 10.361261,0 18.331461,4.30390822 7.970201,4.3039082 12.274109,12.1147044 4.463312,7.651392 4.463312,17.853249 H 70.135853 q 0,-6.694968 -3.666292,-10.680069 -3.666292,-4.144504 -9.723645,-4.144504 H 38.733264 q -6.694969,0 -10.839473,2.869272 -3.9851,2.869272 -3.9851,7.651393 v 4.303908 q 0,7.9702 10.998876,9.883048 l 29.170934,5.100929 q 14.505764,2.550464 22.157157,9.086028 7.651392,6.37616 7.651392,16.578017 v 10.520664 q 0,8.448412 -4.78212,14.983973 -4.622716,6.53557 -13.071129,10.20186 -8.448412,3.50689 -19.606693,3.50689 z"
         style="font-style:normal;font-variant:normal;font-weight:bold;font-stretch:normal;font-size:159.404px;font-family:'Bai Jamjuree';-inkscape-font-specification:'Bai Jamjuree, Bold';font-variant-ligatures:normal;font-variant-caps:normal;font-variant-numeric:normal;font-variant-east-asian:normal;fill:#000000;stroke-width:1.49411"
         id="path835" />
      <path
         d="M 134.05646,21.206572 H 98.668771 V 2.0780914 H 191.4419 V 21.206572 H 156.05421 V 113.6609 h -21.99775 z"
         style="font-style:normal;font-variant:normal;font-weight:bold;font-stretch:normal;font-size:159.404px;font-family:'Bai Jamjuree';-inkscape-font-specification:'Bai Jamjuree, Bold';font-variant-ligatures:normal;font-variant-caps:normal;font-variant-numeric:normal;font-variant-east-asian:normal;fill:#000000;stroke-width:1.49411"
         id="path837" />
      <path
         d="M 252.65281,87.678043 H 210.88896 L 201.00591,113.6609 H 178.05173 L 221.72843,2.0780914 h 9.88305 q 10.36126,0 14.02755,9.5642406 l 39.6916,102.018568 h -22.95418 z m -35.8659,-18.490865 h 29.96795 L 231.93029,29.017369 h -0.1594 z"
         style="font-style:normal;font-variant:normal;font-weight:bold;font-stretch:normal;font-size:159.404px;font-family:'Bai Jamjuree';-inkscape-font-specification:'Bai Jamjuree, Bold';font-variant-ligatures:normal;font-variant-caps:normal;font-variant-numeric:normal;font-variant-east-asian:normal;fill:#000000;stroke-width:1.49411"
         id="path839" />
      <path
         d="m 326.45658,114.93613 q -17.53444,0 -27.41749,-9.72365 -9.88305,-9.883044 -9.88305,-27.417485 h 21.67895 q 0,8.289008 4.1445,13.071128 4.30391,4.622717 11.7959,4.622717 h 17.69384 q 7.01378,0 11.31769,-2.869273 4.46331,-3.028676 4.46331,-7.9702 v -5.419736 q 0,-7.810797 -11.47709,-9.723645 L 319.4428,64.564462 q -14.34636,-2.39106 -21.83835,-9.086028 -7.33258,-6.854373 -7.33258,-17.375037 v -8.926624 q 0,-8.448413 4.46331,-14.824573 4.62272,-6.5355643 12.91173,-10.0424525 8.44841,-3.50688812 19.44728,-3.50688812 h 18.01266 q 10.36126,0 18.33146,4.30390822 7.9702,4.3039082 12.27411,12.1147044 4.46331,7.651392 4.46331,17.853249 h -21.67895 q 0,-6.694968 -3.66629,-10.680069 -3.66629,-4.144504 -9.72364,-4.144504 h -18.01266 q -6.69496,0 -10.83947,2.869272 -3.9851,2.869272 -3.9851,7.651393 v 4.303908 q 0,7.9702 10.99888,9.883048 l 29.17093,5.100929 q 14.50577,2.550464 22.15716,9.086028 7.65139,6.37616 7.65139,16.578017 v 10.520664 q 0,8.448412 -4.78212,14.983973 -4.62272,6.53557 -13.07113,10.20186 -8.44841,3.50689 -19.60669,3.50689 z"
         style="font-style:normal;font-variant:normal;font-weight:bold;font-stretch:normal;font-size:159.404px;font-family:'Bai Jamjuree';-inkscape-font-specification:'Bai Jamjuree, Bold';font-variant-ligatures:normal;font-variant-caps:normal;font-variant-numeric:normal;font-variant-east-asian:normal;fill:#000000;stroke-width:1.49411"
         id="path841" />
      <path
         d="m 399.14453,2.0780914 h 21.99776 V 113.6609 h -21.99776 z"
         style="font-style:normal;font-variant:normal;font-weight:bold;font-stretch:normal;font-size:159.404px;font-family:'Bai Jamjuree';-inkscape-font-specification:'Bai Jamjuree, Bold';font-variant-ligatures:normal;font-variant-caps:normal;font-variant-numeric:normal;font-variant-east-asian:normal;fill:#000000;stroke-width:1.49411"
         id="path843" />
      <path
         d="M 507.85801,87.678043 H 466.09416 L 456.21111,113.6609 H 433.25693 L 476.93363,2.0780914 h 9.88305 q 10.36126,0 14.02755,9.5642406 l 39.6916,102.018568 h -22.95418 z m -35.8659,-18.490865 h 29.96795 L 487.13549,29.017369 h -0.1594 z"
         style="font-style:normal;font-variant:normal;font-weight:bold;font-stretch:normal;font-size:159.404px;font-family:'Bai Jamjuree';-inkscape-font-specification:'Bai Jamjuree, Bold';font-variant-ligatures:normal;font-variant-caps:normal;font-variant-numeric:normal;font-variant-east-asian:normal;fill:#000000;stroke-width:1.49411"
         id="path845" />
      <path
         d="m 560.30191,115.25494 q -5.89795,0 -9.56424,-3.50689 -3.50689,-3.66629 -3.50689,-9.56424 0,-5.89795 3.50689,-9.404839 3.66629,-3.666292 9.56424,-3.666292 5.89795,0 9.40483,3.666292 3.6663,3.506889 3.6663,9.404839 0,5.89795 -3.6663,9.56424 -3.50688,3.50689 -9.40483,3.50689 z"
         style="font-style:normal;font-variant:normal;font-weight:bold;font-stretch:normal;font-size:159.404px;font-family:'Bai Jamjuree';-inkscape-font-specification:'Bai Jamjuree, Bold';font-variant-ligatures:normal;font-variant-caps:normal;font-variant-numeric:normal;font-variant-east-asian:normal;fill:#000000;stroke-width:1.49411"
         id="path847" />
      <path
         d="m 609.7699,2.0780914 h 21.99775 V 113.6609 H 609.7699 Z"
         style="font-style:normal;font-variant:normal;font-weight:bold;font-stretch:normal;font-size:159.404px;font-family:'Bai Jamjuree';-inkscape-font-specification:'Bai Jamjuree, Bold';font-variant-ligatures:normal;font-variant-caps:normal;font-variant-numeric:normal;font-variant-east-asian:normal;fill:#999999;stroke-width:1.49411"
         id="path849" />
      <path
         d="m 692.50049,114.93613 q -12.59291,0 -22.31656,-5.26033 -9.56424,-5.41974 -14.98397,-14.983981 -5.26034,-9.723644 -5.26034,-22.475965 V 43.523133 q 0,-12.75232 5.26034,-22.316561 5.41973,-9.723644 14.98397,-14.9839764 9.72365,-5.41973622 22.31656,-5.41973622 h 16.89683 q 12.59291,0 22.15715,5.41973622 9.72365,5.2603324 14.98398,14.9839764 5.41974,9.564241 5.41974,22.316561 v 28.692721 q 0,12.752321 -5.41974,22.475965 -5.26033,9.564241 -14.98398,14.983981 -9.56424,5.26033 -22.15715,5.26033 z m 16.89683,-19.44729 q 9.24543,0 14.82457,-6.694969 5.73854,-6.694968 5.73854,-17.534441 V 44.479557 q 0,-10.839472 -5.73854,-17.53444 -5.57914,-6.694969 -14.82457,-6.694969 h -16.89683 q -9.24543,0 -14.98397,6.694969 -5.57914,6.694968 -5.57914,17.53444 V 71.25943 q 0,10.839473 5.57914,17.534441 5.73854,6.694969 14.98397,6.694969 z"
         style="font-style:normal;font-variant:normal;font-weight:bold;font-stretch:normal;font-size:159.404px;font-family:'Bai Jamjuree';-inkscape-font-specification:'Bai Jamjuree, Bold';font-variant-ligatures:normal;font-variant-caps:normal;font-variant-numeric:normal;font-variant-east-asian:normal;fill:#999999;stroke-width:1.49411"
         id="path851" />
    </g>
  </g>
</svg>
