<?xml version="1.0" encoding="UTF-8" standalone="no"?>
<svg
   xmlns:dc="http://purl.org/dc/elements/1.1/"
   xmlns:cc="http://creativecommons.org/ns#"
   xmlns:rdf="http://www.w3.org/1999/02/22-rdf-syntax-ns#"
   xmlns:svg="http://www.w3.org/2000/svg"
   xmlns="http://www.w3.org/2000/svg"
   xmlns:sodipodi="http://sodipodi.sourceforge.net/DTD/sodipodi-0.dtd"
   xmlns:inkscape="http://www.inkscape.org/namespaces/inkscape"
   width="213mm"
   height="33.5mm"
   viewBox="0 0 213 33.5"
   version="1.1"
   id="svg8"
   inkscape:version="1.0.1 (3bc2e813f5, 2020-09-07)"
   sodipodi:docname="leasure.svg">
  <defs
     id="defs2" />
  <sodipodi:namedview
     id="base"
     pagecolor="#ffffff"
     bordercolor="#666666"
     borderopacity="1.0"
     inkscape:pageopacity="0.0"
     inkscape:pageshadow="2"
     inkscape:zoom="7.9195959"
     inkscape:cx="358.54915"
     inkscape:cy="32.439871"
     inkscape:document-units="mm"
     inkscape:current-layer="layer1"
     inkscape:document-rotation="0"
     showgrid="false"
     inkscape:window-width="1465"
     inkscape:window-height="1041"
     inkscape:window-x="182"
     inkscape:window-y="0"
     inkscape:window-maximized="0" />
  <metadata
     id="metadata5">
    <rdf:RDF>
      <cc:Work
         rdf:about="">
        <dc:format>image/svg+xml</dc:format>
        <dc:type
           rdf:resource="http://purl.org/dc/dcmitype/StillImage" />
        <dc:title />
      </cc:Work>
    </rdf:RDF>
  </metadata>
  <g
     inkscape:label="Warstwa 1"
     inkscape:groupmode="layer"
     id="layer1">
    <g
       aria-label="VENTURE LEASURE  "
       id="text12"
       style="font-style:normal;font-weight:normal;font-size:45.7726px;line-height:1.25;font-family:sans-serif;fill:#ffffff;fill-opacity:1;stroke:none;stroke-width:1.14431"
       transform="translate(-0.54334077,0.03307292)">
      <path
         d="m 5.0582136,32.446921 q -2.0139943,0 -3.2498545,-1.144315 Q 0.61827157,30.112519 0.61827157,28.190069 V 0.4061023 H 6.9348901 V 26.954209 H 24.328477 v 5.492712 z"
         style="font-style:normal;font-variant:normal;font-weight:bold;font-stretch:normal;font-size:45.7726px;font-family:'Bai Jamjuree';-inkscape-font-specification:'Bai Jamjuree, Bold';font-variant-ligatures:normal;font-variant-caps:normal;font-variant-numeric:normal;font-variant-east-asian:normal;fill:#ffffff;stroke-width:1.14431"
         id="path26" />
      <path
         d="m 31.972471,32.446921 q -1.968222,0 -3.204082,-1.190087 -1.23586,-1.190088 -1.23586,-3.112537 V 0.4061023 H 51.975096 V 5.8988141 H 33.849147 v 7.4151609 h 16.752771 v 5.492712 H 33.849147 v 8.147522 h 18.125949 v 5.492712 z"
         style="font-style:normal;font-variant:normal;font-weight:bold;font-stretch:normal;font-size:45.7726px;font-family:'Bai Jamjuree';-inkscape-font-specification:'Bai Jamjuree, Bold';font-variant-ligatures:normal;font-variant-caps:normal;font-variant-numeric:normal;font-variant-east-asian:normal;fill:#ffffff;stroke-width:1.14431"
         id="path28" />
      <path
         d="M 75.044411,24.985988 H 63.05199 l -2.837901,7.460933 H 53.622835 L 66.164527,0.4061023 h 2.837901 q 2.975219,0 4.027989,2.7463559 L 84.427794,32.446921 H 77.83654 Z M 64.745576,19.676366 h 8.605249 L 69.093973,8.1416714 h -0.04577 z"
         style="font-style:normal;font-variant:normal;font-weight:bold;font-stretch:normal;font-size:45.7726px;font-family:'Bai Jamjuree';-inkscape-font-specification:'Bai Jamjuree, Bold';font-variant-ligatures:normal;font-variant-caps:normal;font-variant-numeric:normal;font-variant-east-asian:normal;fill:#ffffff;stroke-width:1.14431"
         id="path30" />
      <path
         d="m 96.23704,32.813102 q -5.034985,0 -7.872887,-2.792129 -2.837901,-2.837901 -2.837901,-7.872887 h 6.225074 q 0,2.380176 1.190087,3.753354 1.23586,1.327405 3.387173,1.327405 h 5.080754 q 2.014,0 3.24986,-0.823907 1.28163,-0.869679 1.28163,-2.28863 V 22.56004 q 0,-2.242857 -3.29563,-2.792129 l -8.422154,-1.41895 Q 90.103512,17.662372 87.9522,15.739923 85.846661,13.771701 85.846661,10.75071 V 8.187444 q 0,-2.4259477 1.281632,-4.2568516 1.327406,-1.8766766 3.707581,-2.8836737 2.425947,-1.00699719 5.584257,-1.00699719 h 5.172299 q 2.97522,0 5.26385,1.23586019 2.28863,1.2358601 3.52449,3.4787174 1.28164,2.1970848 1.28164,5.126531 h -6.22508 q 0,-1.9224491 -1.05277,-3.066764 -1.05277,-1.1900876 -2.79213,-1.1900876 h -5.172299 q -1.922449,0 -3.112537,0.8239068 Q 92.163279,7.271992 92.163279,8.64517 v 1.2358601 q 0,2.2886299 3.158309,2.8379009 l 8.376382,1.464723 q 4.16531,0.732362 6.3624,2.609038 2.19708,1.830904 2.19708,4.760351 v 3.020991 q 0,2.425948 -1.37318,4.302624 -1.3274,1.876677 -3.75335,2.929447 -2.42595,1.006997 -5.63003,1.006997 z"
         style="font-style:normal;font-variant:normal;font-weight:bold;font-stretch:normal;font-size:45.7726px;font-family:'Bai Jamjuree';-inkscape-font-specification:'Bai Jamjuree, Bold';font-variant-ligatures:normal;font-variant-caps:normal;font-variant-numeric:normal;font-variant-east-asian:normal;fill:#ffffff;stroke-width:1.14431"
         id="path32" />
      <path
         d="m 127.82005,32.813102 q -3.38717,0 -5.95044,-1.418951 -2.56326,-1.464723 -3.98221,-4.073761 -1.41895,-2.609038 -1.41895,-6.041983 V 0.4061023 h 6.31661 V 21.095317 q 0,2.746356 1.37318,4.439942 1.41895,1.693586 3.66181,1.693586 h 4.8519 q 2.28863,0 3.70758,-1.693586 1.41895,-1.693586 1.41895,-4.439942 V 0.4061023 h 6.31661 V 21.278407 q 0,3.432945 -1.41895,6.041983 -1.41895,2.609038 -4.02798,4.073761 -2.60904,1.418951 -5.99621,1.418951 z"
         style="font-style:normal;font-variant:normal;font-weight:bold;font-stretch:normal;font-size:45.7726px;font-family:'Bai Jamjuree';-inkscape-font-specification:'Bai Jamjuree, Bold';font-variant-ligatures:normal;font-variant-caps:normal;font-variant-numeric:normal;font-variant-east-asian:normal;fill:#ffffff;stroke-width:1.14431"
         id="path34" />
      <path
         d="m 149.60777,0.4061023 h 17.02741 q 4.16531,0 6.6828,2.2428573 2.56326,2.2428573 2.56326,5.9046652 v 3.2040822 q 0,2.380175 -1.37317,4.165306 -1.32741,1.739359 -3.89067,2.654811 v 0.09154 q 1.46472,0.961225 2.19708,2.197085 0.77814,1.23586 1.5105,3.432945 l 2.56326,8.147522 h -6.54548 l -2.42595,-7.598251 q -0.59504,-1.968222 -1.64781,-2.929447 -1.05277,-0.961224 -2.60904,-0.961224 h -7.73557 v 11.488922 h -6.31662 z M 165.44509,15.51106 q 1.92245,0 3.02099,-1.006997 1.09855,-1.05277 1.09855,-2.700584 V 8.8282604 q 0,-1.3274054 -0.82391,-2.1055395 -0.82391,-0.8239068 -2.19709,-0.8239068 H 155.92439 V 15.51106 Z"
         style="font-style:normal;font-variant:normal;font-weight:bold;font-stretch:normal;font-size:45.7726px;font-family:'Bai Jamjuree';-inkscape-font-specification:'Bai Jamjuree, Bold';font-variant-ligatures:normal;font-variant-caps:normal;font-variant-numeric:normal;font-variant-east-asian:normal;fill:#ffffff;stroke-width:1.14431"
         id="path36" />
      <path
         d="m 185.08151,32.446921 q -1.96822,0 -3.20408,-1.190087 -1.23586,-1.190088 -1.23586,-3.112537 V 0.4061023 h 24.44257 v 5.4927118 h -18.12595 v 7.4151609 h 16.75277 v 5.492712 h -16.75277 v 8.147522 h 18.12595 v 5.492712 z"
         style="font-style:normal;font-variant:normal;font-weight:bold;font-stretch:normal;font-size:45.7726px;font-family:'Bai Jamjuree';-inkscape-font-specification:'Bai Jamjuree, Bold';font-variant-ligatures:normal;font-variant-caps:normal;font-variant-numeric:normal;font-variant-east-asian:normal;fill:#ffffff;stroke-width:1.14431"
         id="path38" />
    </g>
  </g>
</svg>
